<?xml version="1.0" encoding="UTF-8" standalone="no"?>
<!DOCTYPE svg PUBLIC "-//W3C//DTD SVG 1.1//EN" "http://www.w3.org/Graphics/SVG/1.1/DTD/svg11.dtd">
<!-- Created with Vectornator (http://vectornator.io/) -->
<svg height="100%" stroke-miterlimit="10" style="fill-rule:nonzero;clip-rule:evenodd;stroke-linecap:round;stroke-linejoin:round;" version="1.1" viewBox="0 0 150.1 114.91" width="100%" xml:space="preserve" xmlns="http://www.w3.org/2000/svg" xmlns:xlink="http://www.w3.org/1999/xlink">
<defs/>
<clipPath id="ArtboardFrame">
<rect height="114.91" width="150.1" x="0" y="0"/>
</clipPath>
<g clip-path="url(#ArtboardFrame)" id="Layer-1">
<g opacity="1">
<path d="M64.036 0.000305173L39.8507 66.4687L119.879 95.6165L148.997 15.5902L106.197 0.000305173L64.036 0.000305173Z" fill="#562784" fill-rule="nonzero" opacity="1" stroke="none"/>
<path d="M24.4238 0.000305173L0.238496 66.4687L80.2656 95.6165L109.385 15.5902L66.5844 0.000305173L24.4238 0.000305173Z" fill="#009b79" fill-rule="nonzero" opacity="1" stroke="none"/>
<g opacity="1">
<clipPath id="ClipPath">
<path d="M0 101.144L150.1 101.144L150.1 0L0 0L0 101.144Z"/>
</clipPath>
<g clip-path="url(#ClipPath)">
<path d="M89.0658 45.131L89.6328 45.131L89.6328 44.153L89.9158 44.153L90.4628 45.131L91.0648 45.131L90.4538 44.086C90.7068 43.992 90.9728 43.802 90.9728 43.431C90.9728 43.24 90.8938 43.066 90.7468 42.946C90.5898 42.816 90.3658 42.731 89.8538 42.731L89.0658 42.731L89.0658 45.131ZM89.6328 43.102L89.8448 43.102C90.1368 43.102 90.3738 43.173 90.3738 43.457C90.3738 43.682 90.2108 43.815 89.9258 43.815L89.6328 43.815L89.6328 43.102ZM89.9388 41.856C88.7488 41.856 87.8218 42.774 87.8218 43.948C87.8218 45.124 88.7488 46.042 89.9388 46.042C91.1298 46.042 92.0558 45.124 92.0558 43.948C92.0558 42.774 91.1298 41.856 89.9468 41.856L89.9388 41.856ZM89.9468 42.235C90.9028 42.235 91.6438 42.982 91.6438 43.948C91.6438 44.916 90.9068 45.663 89.9468 45.663C88.9888 45.663 88.2488 44.916 88.2488 43.948C88.2488 42.982 88.9888 42.235 89.9388 42.235L89.9468 42.235Z" fill="#ffffff" fill-rule="evenodd" opacity="1" stroke="none"/>
<path d="M45.058 53.8289C42.83 53.8059 41.042 52.0549 40.979 49.827C40.915 47.536 42.766 45.615 45.058 45.595C45.785 45.555 46.905 45.979 46.905 45.979C46.297 44.866 45.179 44.26 43.826 44.363C41.619 44.531 40.5319 46.225 40.2529 46.921C39.7069 48.287 39.6649 49.209 39.5359 51.155L39.6729 63.2239C39.7179 63.5818 39.7979 63.7908 40.0009 64.0868C40.3569 64.6078 40.855 65.0008 41.426 65.1898C42.107 65.4158 42.439 65.5998 43.053 65.6688L33.1158 65.6688C31.9888 65.6688 31.5088 65.3008 31.1008 64.6098C30.7978 64.0948 30.8358 63.2199 30.8438 62.8519L30.8278 47.775C30.7998 47.015 30.7978 46.714 30.6538 46.214C30.4528 45.521 30.2818 45.18 29.5648 44.77C28.5398 44.292 27.5838 44.155 27.5838 44.155L36.8729 43.745C37.5009 43.656 38.0869 43.829 38.4089 43.916C38.7569 44.01 39.1229 44.506 39.2629 44.838L39.6709 45.979C40.6779 44.423 42.122 43.601 43.975 43.568C45.922 43.533 47.591 44.562 48.4831 46.232C49.2271 47.625 49.5101 48.43 49.2141 49.981C48.8001 52.1509 47.267 53.8519 45.058 53.8289" fill="#ffffff" fill-rule="nonzero" opacity="1" stroke="none"/>
<path d="M45.058 53.8289C42.83 53.8059 41.042 52.0549 40.979 49.827C40.915 47.536 42.766 45.615 45.058 45.595C45.785 45.555 46.905 45.979 46.905 45.979C46.297 44.866 45.179 44.26 43.826 44.363C41.619 44.531 40.5319 46.225 40.2529 46.921C39.7069 48.287 39.6649 49.209 39.5359 51.155L39.6729 63.2239C39.7179 63.5818 39.7979 63.7908 40.0009 64.0868C40.3569 64.6078 40.855 65.0008 41.426 65.1898C42.107 65.4158 42.439 65.5998 43.053 65.6688L33.1158 65.6688C31.9888 65.6688 31.5088 65.3008 31.1008 64.6098C30.7978 64.0948 30.8358 63.2199 30.8438 62.8519L30.8278 47.775C30.7998 47.015 30.7978 46.714 30.6538 46.214C30.4528 45.521 30.2818 45.18 29.5648 44.77C28.5398 44.292 27.5838 44.155 27.5838 44.155L36.8729 43.745C37.5009 43.656 38.0869 43.829 38.4089 43.916C38.7569 44.01 39.1229 44.506 39.2629 44.838L39.6709 45.979C40.6779 44.423 42.122 43.601 43.975 43.568C45.922 43.533 47.591 44.562 48.4831 46.232C49.2271 47.625 49.5101 48.43 49.2141 49.981C48.8001 52.1509 47.267 53.8519 45.058 53.8289Z" fill="none" opacity="1" stroke="#ffffff" stroke-linecap="butt" stroke-linejoin="miter" stroke-width="0.051"/>
<path d="M64.859 54.8846C62.5669 54.9186 60.6389 53.2087 60.6399 50.9167C60.6409 48.6667 62.4549 46.7267 64.705 46.7257L66.63 47.1107C66.05 46.0697 65.434 45.5347 64.32 45.1097C63.0289 44.6167 61.8369 44.7607 60.5719 45.3167C58.6659 46.1537 57.8619 47.6467 57.8549 49.7277L57.8549 59.7686C57.9219 62.0986 59.4819 63.8886 61.7809 64.2746C64.205 64.6816 66.924 61.8436 67.743 58.9746L67.709 61.2286C65.421 65.1216 63.3069 65.7726 59.9569 66.0096C53.6688 66.4545 48.1797 62.6646 48.2337 54.6537C48.2777 47.9117 52.5128 43.7457 59.3429 43.5407C62.6059 43.4427 65.195 44.1257 67.196 46.2037C68.12 47.2047 68.996 48.6017 68.939 50.1897C68.85 52.6137 67.285 54.8486 64.859 54.8846" fill="#ffffff" fill-rule="nonzero" opacity="1" stroke="none"/>
<path d="M64.859 54.8846C62.5669 54.9186 60.6389 53.2087 60.6399 50.9167C60.6409 48.6667 62.4549 46.7267 64.705 46.7257L66.63 47.1107C66.05 46.0697 65.434 45.5347 64.32 45.1097C63.0289 44.6167 61.8369 44.7607 60.5719 45.3167C58.6659 46.1537 57.8619 47.6467 57.8549 49.7277L57.8549 59.7686C57.9219 62.0986 59.4819 63.8886 61.7809 64.2746C64.205 64.6816 66.924 61.8436 67.743 58.9746L67.709 61.2286C65.421 65.1216 63.3069 65.7726 59.9569 66.0096C53.6688 66.4545 48.1797 62.6646 48.2337 54.6537C48.2777 47.9117 52.5128 43.7457 59.3429 43.5407C62.6059 43.4427 65.195 44.1257 67.196 46.2037C68.12 47.2047 68.996 48.6017 68.939 50.1897C68.85 52.6137 67.285 54.8486 64.859 54.8846Z" fill="none" opacity="1" stroke="#ffffff" stroke-linecap="butt" stroke-linejoin="miter" stroke-width="0.051"/>
<path d="M79.8451 62.5048C79.5131 63.2598 78.899 63.6608 78.074 63.6598C76.816 63.6568 76.347 62.3578 76.193 61.4338C75.962 60.2018 76.165 60.0538 76.07 58.5798C75.969 57.0098 75.945 55.8238 76.997 54.6538C77.822 53.7348 78.613 53.3508 79.8451 53.2688L79.8451 62.5048ZM72.764 53.3458C70.6839 53.3238 69.1819 51.5739 69.0689 49.4969C68.9809 47.8749 69.6139 46.8389 70.7979 45.7259C71.662 44.9139 72.434 44.5609 73.548 44.1559C75.319 43.5109 76.58 43.4499 78.466 43.4719C80.4611 43.4969 81.6811 43.7649 83.5391 44.4939C84.7241 44.9589 85.7951 45.4359 86.7722 46.5729C87.8702 47.8489 88.2922 48.8939 88.3882 50.5749L88.3882 62.3508C88.5152 62.8218 88.8312 63.1118 89.3122 63.1978C89.8952 63.3008 90.5192 62.6808 90.7582 62.3048C91.1562 61.6798 91.4252 61.2978 91.5442 60.8878L91.5442 62.5818C90.1582 65.0227 88.0372 66.1867 85.2321 66.0457C83.0881 65.9367 81.6801 65.2337 80.3071 63.5818C78.124 65.1217 76.497 66.2207 73.958 65.9417C70.5579 65.5677 67.6629 63.3078 67.6839 59.8878C67.7019 56.8058 69.7739 54.8098 73.189 53.8528C74.816 53.3268 74.673 53.4788 75.766 53.1918C76.836 52.9098 77.447 52.7738 78.536 52.5758C78.9561 52.4498 79.5311 52.5328 79.8181 52.0809C79.9621 51.8559 80.0071 51.6879 79.9991 51.4209L79.9991 49.3559C80.1971 47.1099 78.746 45.1699 76.535 44.7249C75.143 44.4449 74.109 44.6919 72.995 45.5709C75.048 45.7589 76.559 47.4359 76.535 49.4969C76.511 51.5979 74.865 53.3668 72.764 53.3458" fill="#ffffff" fill-rule="evenodd" opacity="1" stroke="none"/>
<path d="M79.8451 62.5048C79.5131 63.2598 78.899 63.6608 78.074 63.6598C76.816 63.6568 76.347 62.3578 76.193 61.4338C75.962 60.2018 76.165 60.0538 76.07 58.5798C75.969 57.0098 75.945 55.8238 76.997 54.6538C77.822 53.7348 78.613 53.3508 79.8451 53.2688L79.8451 62.5048ZM72.764 53.3458C70.6839 53.3238 69.1819 51.5739 69.0689 49.4969C68.9809 47.8749 69.6139 46.8389 70.7979 45.7259C71.662 44.9139 72.434 44.5609 73.548 44.1559C75.319 43.5109 76.58 43.4499 78.466 43.4719C80.4611 43.4969 81.6811 43.7649 83.5391 44.4939C84.7241 44.9589 85.7951 45.4359 86.7722 46.5729C87.8702 47.8489 88.2922 48.8939 88.3882 50.5749L88.3882 62.3508C88.5152 62.8218 88.8312 63.1118 89.3122 63.1978C89.8952 63.3008 90.5192 62.6808 90.7582 62.3048C91.1562 61.6798 91.4252 61.2978 91.5442 60.8878L91.5442 62.5818C90.1582 65.0227 88.0372 66.1867 85.2321 66.0457C83.0881 65.9367 81.6801 65.2337 80.3071 63.5818C78.124 65.1217 76.497 66.2207 73.958 65.9417C70.5579 65.5677 67.6629 63.3078 67.6839 59.8878C67.7019 56.8058 69.7739 54.8098 73.189 53.8528C74.816 53.3268 74.673 53.4788 75.766 53.1918C76.836 52.9098 77.447 52.7738 78.536 52.5758C78.9561 52.4498 79.5311 52.5328 79.8181 52.0809C79.9621 51.8559 80.0071 51.6879 79.9991 51.4209L79.9991 49.3559C80.1971 47.1099 78.746 45.1699 76.535 44.7249C75.143 44.4449 74.109 44.6919 72.995 45.5709C75.048 45.7589 76.559 47.4359 76.535 49.4969C76.511 51.5979 74.865 53.3668 72.764 53.3458Z" fill="none" opacity="1" stroke="#ffffff" stroke-linecap="butt" stroke-linejoin="miter" stroke-width="0.051"/>
<path d="M19.0519 62.5048C18.7199 63.2598 18.1058 63.6608 17.2818 63.6598C16.0228 63.6568 15.5538 62.3578 15.4008 61.4338C15.1688 60.2018 15.3718 60.0538 15.2768 58.5798C15.1758 57.0098 15.1518 55.8238 16.2038 54.6538C17.0288 53.7348 17.8198 53.3508 19.0519 53.2688L19.0519 62.5048ZM11.9708 53.3458C9.88974 53.3238 8.38872 51.5739 8.27572 49.4969C8.18771 47.8749 8.81972 46.8389 10.0047 45.7259C10.8688 44.9139 11.4178 44.7659 12.5318 44.3599C14.3028 43.7159 15.4958 43.5869 17.3808 43.6089C19.3759 43.6329 20.8879 43.7649 22.7459 44.4939C23.9309 44.9589 25.0019 45.4359 25.979 46.5729C27.077 47.8489 27.499 48.8939 27.596 50.5749L27.596 62.3508C27.723 62.8218 28.038 63.1118 28.519 63.1978C29.102 63.3008 29.487 62.9008 29.838 62.4238C30.316 61.7758 30.691 60.9558 30.863 59.6928L30.751 62.5818C29.365 65.0227 27.244 66.1867 24.4389 66.0457C22.2949 65.9367 20.8869 65.2337 19.5139 63.5818C17.3308 65.1217 15.7038 66.2207 13.1648 65.9417C9.76474 65.5677 6.8697 63.3078 6.8907 59.8878C6.9087 56.8058 8.98073 54.8098 12.3948 53.8528C14.0228 53.3268 13.8798 53.4788 14.9728 53.1918C16.0428 52.9098 16.6538 52.7738 17.7428 52.5758C18.1628 52.4498 18.7379 52.5328 19.0259 52.0809C19.1689 51.8559 19.2149 51.6879 19.2049 51.4209L19.2049 49.3559C19.4049 47.1099 17.9528 45.1699 15.7418 44.7249C14.3498 44.4449 13.3168 44.6919 12.2018 45.5709C14.2548 45.7589 15.7658 47.4359 15.7418 49.4969C15.7178 51.5979 14.0718 53.3668 11.9708 53.3458" fill="#ffffff" fill-rule="evenodd" opacity="1" stroke="none"/>
<path d="M19.0519 62.5048C18.7199 63.2598 18.1058 63.6608 17.2818 63.6598C16.0228 63.6568 15.5538 62.3578 15.4008 61.4338C15.1688 60.2018 15.3718 60.0538 15.2768 58.5798C15.1758 57.0098 15.1518 55.8238 16.2038 54.6538C17.0288 53.7348 17.8198 53.3508 19.0519 53.2688L19.0519 62.5048ZM11.9708 53.3458C9.88974 53.3238 8.38872 51.5739 8.27572 49.4969C8.18771 47.8749 8.81972 46.8389 10.0047 45.7259C10.8688 44.9139 11.4178 44.7659 12.5318 44.3599C14.3028 43.7159 15.4958 43.5869 17.3808 43.6089C19.3759 43.6329 20.8879 43.7649 22.7459 44.4939C23.9309 44.9589 25.0019 45.4359 25.979 46.5729C27.077 47.8489 27.499 48.8939 27.596 50.5749L27.596 62.3508C27.723 62.8218 28.038 63.1118 28.519 63.1978C29.102 63.3008 29.487 62.9008 29.838 62.4238C30.316 61.7758 30.691 60.9558 30.863 59.6928L30.751 62.5818C29.365 65.0227 27.244 66.1867 24.4389 66.0457C22.2949 65.9367 20.8869 65.2337 19.5139 63.5818C17.3308 65.1217 15.7038 66.2207 13.1648 65.9417C9.76474 65.5677 6.8697 63.3078 6.8907 59.8878C6.9087 56.8058 8.98073 54.8098 12.3948 53.8528C14.0228 53.3268 13.8798 53.4788 14.9728 53.1918C16.0428 52.9098 16.6538 52.7738 17.7428 52.5758C18.1628 52.4498 18.7379 52.5328 19.0259 52.0809C19.1689 51.8559 19.2149 51.6879 19.2049 51.4209L19.2049 49.3559C19.4049 47.1099 17.9528 45.1699 15.7418 44.7249C14.3498 44.4449 13.3168 44.6919 12.2018 45.5709C14.2548 45.7589 15.7658 47.4359 15.7418 49.4969C15.7178 51.5979 14.0718 53.3668 11.9708 53.3458Z" fill="none" opacity="1" stroke="#ffffff" stroke-linecap="butt" stroke-linejoin="miter" stroke-width="0.051"/>
</g>
</g>
<path d="M0.000183108 107.006L0.000183108 114.709L5.38926 114.709L5.38926 113.488L2.59122 113.488L2.59122 107.006L0.000183108 107.006Z" fill="#562784" fill-rule="nonzero" opacity="1" stroke="none"/>
<g opacity="1">
<clipPath id="ClipPath_2">
<path d="M0 114.91L150.1 114.91L150.1 0L0 0L0 114.91Z"/>
</clipPath>
<g clip-path="url(#ClipPath_2)">
<path d="M10.9395 109.514C10.8435 109.268 10.7815 109.08 10.7555 108.948C10.7285 108.818 10.7045 108.696 10.6835 108.585C10.6625 108.689 10.6355 108.788 10.6035 108.881C10.5715 108.975 10.4915 109.186 10.3635 109.514L9.33952 112.022L11.9156 112.022L10.9395 109.514ZM12.9386 114.708L12.2666 113.063L8.95651 113.063L8.2525 114.708L5.93347 114.708L9.51652 107.006L12.0436 107.006L15.6096 114.708L12.9386 114.708Z" fill="#562784" fill-rule="nonzero" opacity="1" stroke="none"/>
<path d="M19.6879 111.148L19.1758 111.148L19.1758 113.622C19.3038 113.653 19.4479 113.678 19.6079 113.701C19.7679 113.723 19.9539 113.734 20.1679 113.734C20.8069 113.734 21.2839 113.641 21.5989 113.454C21.9129 113.268 22.0709 112.955 22.0709 112.514C22.0709 112.037 21.8949 111.69 21.5429 111.473C21.1909 111.256 20.5729 111.148 19.6879 111.148M20.1139 107.913C19.9869 107.913 19.8519 107.915 19.7089 107.918C19.5649 107.922 19.3879 107.95 19.1758 108.003L19.1758 110.275L19.6849 110.275C20.4899 110.275 21.0519 110.182 21.3699 109.995C21.6879 109.809 21.8469 109.499 21.8469 109.066C21.8469 108.297 21.2689 107.913 20.1139 107.913M20.2319 114.82C18.7178 114.82 17.5448 114.671 16.7128 114.373L16.7128 107.342C17.0968 107.2 17.5818 107.09 18.1688 107.012C18.7548 106.933 19.3999 106.894 20.1039 106.894C21.4899 106.894 22.5429 107.085 23.2619 107.465C23.9819 107.846 24.3419 108.338 24.3419 108.943C24.3419 109.398 24.1419 109.773 23.7419 110.068C23.3429 110.363 22.8869 110.555 22.3749 110.645C22.9509 110.764 23.4759 110.995 23.9499 111.339C24.4249 111.682 24.6619 112.096 24.6619 112.581C24.6619 113.328 24.2749 113.888 23.5019 114.261C22.7289 114.634 21.6389 114.82 20.2319 114.82" fill="#562784" fill-rule="nonzero" opacity="1" stroke="none"/>
<path d="M26.3091 114.708L26.3091 107.005L31.9392 107.005L31.9392 108.226L28.9162 108.226L28.9162 110.185L31.5552 110.185L31.5552 111.372L28.9162 111.372L28.9162 113.487L31.9392 113.487L31.9392 114.708L26.3091 114.708Z" fill="#562784" fill-rule="nonzero" opacity="1" stroke="none"/>
<path d="M33.6822 114.708L33.6822 107.005L36.2732 107.005L36.2732 113.487L39.0722 113.487L39.0722 114.708L33.6822 114.708Z" fill="#562784" fill-rule="nonzero" opacity="1" stroke="none"/>
<path d="M40.6235 107.006L43.2146 107.006L43.2146 114.709L40.6235 114.709L40.6235 107.006Z" fill="#562784" fill-rule="nonzero" opacity="1" stroke="none"/>
<path d="M51.7066 114.708L48.0435 110.387C47.9055 110.222 47.7855 110.062 47.6835 109.905C47.5825 109.748 47.5105 109.64 47.4685 109.58C47.4785 109.685 47.4865 109.806 47.4925 109.945C47.4975 110.083 47.4995 110.241 47.4995 110.42L47.4995 114.708L45.3255 114.708L45.3255 107.005L47.6125 107.005L50.9866 110.957C51.1576 111.159 51.2856 111.32 51.3706 111.439C51.4566 111.558 51.5146 111.644 51.5466 111.697C51.5356 111.6 51.5276 111.489 51.5226 111.366C51.5176 111.243 51.5146 111.095 51.5146 110.924L51.5146 107.005L53.7056 107.005L53.7056 114.708L51.7066 114.708Z" fill="#562784" fill-rule="nonzero" opacity="1" stroke="none"/>
<path d="M60.4389 114.821C58.8079 114.821 57.5678 114.468 56.7198 113.763C55.8728 113.057 55.4488 112.078 55.4488 110.824C55.4488 109.637 55.9018 108.686 56.8088 107.969C57.7149 107.253 58.9519 106.894 60.5189 106.894C61.1689 106.894 61.7209 106.93 62.1739 107.001C62.6269 107.072 63.0459 107.185 63.4289 107.342L62.6779 108.462C62.4859 108.38 62.2349 108.313 61.9269 108.26C61.6169 108.208 61.2489 108.182 60.8229 108.182C59.9269 108.182 59.2449 108.4 58.7759 108.836C58.3059 109.274 58.0719 109.951 58.0719 110.869C58.0719 111.749 58.2689 112.42 58.6639 112.878C59.0579 113.338 59.6019 113.567 60.2949 113.567C60.4869 113.567 60.6489 113.558 60.7829 113.539C60.9159 113.521 61.0249 113.492 61.1109 113.455L61.1109 111.272L59.7989 111.272L59.7989 110.186L63.5419 110.186L63.5419 114.373C63.1579 114.529 62.7339 114.644 62.2699 114.715C61.8059 114.785 61.1959 114.821 60.4389 114.821" fill="#562784" fill-rule="nonzero" opacity="1" stroke="none"/>
<path d="M73.3246 108.955C73.4216 109.061 73.6326 109.249 73.9566 109.519C74.2806 109.365 74.5126 109.236 74.6536 109.13C74.9226 108.933 75.0576 108.719 75.0576 108.489C75.0576 108.321 74.9766 108.171 74.8146 108.04C74.6526 107.908 74.4076 107.843 74.0776 107.843C73.8726 107.843 73.6806 107.881 73.5036 107.958C73.2326 108.071 73.0976 108.25 73.0976 108.495C73.0976 108.641 73.1736 108.794 73.3246 108.955M72.3445 113.27C72.6605 113.493 73.0636 113.604 73.5566 113.604C73.9276 113.604 74.2786 113.546 74.6096 113.428C74.9406 113.311 75.2096 113.181 75.4156 113.037L73.2626 111.201C72.6986 111.46 72.3265 111.689 72.1445 111.886C71.9625 112.083 71.8725 112.3 71.8725 112.537C71.8725 112.804 72.0295 113.048 72.3445 113.27M70.1695 111.341C70.5135 110.995 71.0755 110.652 71.8565 110.313L72.0985 110.209C71.7655 109.947 71.5075 109.678 71.3255 109.404C71.1425 109.131 71.0515 108.846 71.0515 108.551C71.0515 107.963 71.3365 107.504 71.9055 107.173C72.4745 106.843 73.2126 106.679 74.1176 106.679C74.9456 106.679 75.6296 106.847 76.1686 107.186C76.7086 107.524 76.9796 107.956 76.9796 108.482C76.9796 108.957 76.8176 109.344 76.4936 109.639C76.1696 109.935 75.6946 110.21 75.0676 110.462L76.7216 111.866C76.9116 111.677 77.0576 111.47 77.1606 111.248C77.2626 111.026 77.3176 110.791 77.3226 110.543L79.2986 110.543C79.2626 111.033 79.0926 111.528 78.7916 112.029C78.6266 112.311 78.3566 112.621 77.9826 112.961L80.0716 114.709L77.3776 114.709L76.5766 114.026C76.1866 114.279 75.8246 114.466 75.4866 114.587C74.8876 114.803 74.1956 114.911 73.4116 114.911C72.2325 114.911 71.3115 114.67 70.6485 114.189C69.9855 113.709 69.6535 113.174 69.6535 112.587C69.6535 112.102 69.8255 111.687 70.1695 111.341" fill="#562784" fill-rule="nonzero" opacity="1" stroke="none"/>
<path d="M94.316 114.708L93.772 110.275C93.751 110.088 93.737 109.915 93.732 109.754C93.726 109.594 93.724 109.454 93.724 109.334C93.681 109.446 93.644 109.551 93.6119 109.648C93.5799 109.745 93.4919 109.961 93.3479 110.297C93.2049 110.633 93.0169 111.08 92.7879 111.641C92.5589 112.2 92.3109 112.805 92.0449 113.454C91.7779 114.104 91.5969 114.522 91.5009 114.708L90.2059 114.708C90.1409 114.581 89.9919 114.236 89.7569 113.673C89.5229 113.108 89.2669 112.493 88.9899 111.825C88.7129 111.157 88.5149 110.68 88.3979 110.392C88.2799 110.105 88.1919 109.874 88.1349 109.698C88.0749 109.522 88.0349 109.402 88.0139 109.334C88.0139 109.446 88.0119 109.564 88.0059 109.687C88.0009 109.81 87.9819 110.006 87.9499 110.275L87.3899 114.708L85.2478 114.708L86.4149 107.005L88.9419 107.005L90.6529 111.316C90.7279 111.488 90.7889 111.66 90.8369 111.831C90.8849 112.003 90.9199 112.118 90.9409 112.178C90.9839 112.081 91.0319 111.96 91.0849 111.814C91.1379 111.668 91.2019 111.502 91.2769 111.316L93.0839 107.005L95.595 107.005L96.779 114.708L94.316 114.708Z" fill="#562784" fill-rule="nonzero" opacity="1" stroke="none"/>
<path d="M102.472 109.514C102.376 109.268 102.314 109.08 102.288 108.948C102.261 108.818 102.237 108.696 102.216 108.585C102.195 108.689 102.168 108.788 102.136 108.881C102.104 108.975 102.024 109.186 101.896 109.514L100.872 112.022L103.448 112.022L102.472 109.514ZM104.471 114.708L103.8 113.063L100.489 113.063L99.7853 114.708L97.4663 114.708L101.049 107.006L103.576 107.006L107.142 114.708L104.471 114.708Z" fill="#562784" fill-rule="nonzero" opacity="1" stroke="none"/>
<path d="M111.573 107.924C111.306 107.924 111.056 107.958 110.82 108.025L110.82 110.846C110.948 110.876 111.136 110.891 111.381 110.891C112.042 110.891 112.54 110.76 112.876 110.499C113.212 110.238 113.381 109.869 113.381 109.391C113.381 108.883 113.247 108.512 112.98 108.276C112.713 108.041 112.245 107.924 111.573 107.924M113.46 114.708L110.852 111.305L110.82 114.708L108.261 114.708L108.261 107.342C108.677 107.2 109.168 107.09 109.733 107.012C110.298 106.933 110.911 106.894 111.573 106.894C113.023 106.894 114.11 107.105 114.835 107.526C115.56 107.949 115.923 108.54 115.923 109.301C115.923 109.801 115.683 110.232 115.203 110.594C114.724 110.956 114.116 111.179 113.381 111.26L116.307 114.708L113.46 114.708Z" fill="#562784" fill-rule="nonzero" opacity="1" stroke="none"/>
<path d="M123.056 114.708L120.337 110.89L120.305 114.708L117.73 114.708L117.73 107.005L120.305 107.005L120.305 110.476L123.103 107.005L125.759 107.005L122.64 110.543L125.967 114.708L123.056 114.708Z" fill="#562784" fill-rule="nonzero" opacity="1" stroke="none"/>
<path d="M127.182 107.006L129.773 107.006L129.773 114.709L127.182 114.709L127.182 107.006Z" fill="#562784" fill-rule="nonzero" opacity="1" stroke="none"/>
<path d="M138.265 114.708L134.602 110.387C134.463 110.222 134.344 110.062 134.243 109.905C134.141 109.748 134.069 109.64 134.027 109.58C134.037 109.685 134.045 109.806 134.05 109.945C134.056 110.083 134.059 110.241 134.059 110.42L134.059 114.708L131.883 114.708L131.883 107.005L134.171 107.005L137.545 110.957C137.716 111.159 137.844 111.32 137.929 111.439C138.014 111.558 138.073 111.644 138.105 111.697C138.094 111.6 138.086 111.489 138.081 111.366C138.076 111.243 138.073 111.095 138.073 110.924L138.073 107.005L140.264 107.005L140.264 114.708L138.265 114.708Z" fill="#562784" fill-rule="nonzero" opacity="1" stroke="none"/>
<path d="M146.998 114.821C145.366 114.821 144.126 114.468 143.279 113.763C142.432 113.057 142.008 112.078 142.008 110.824C142.008 109.637 142.46 108.686 143.367 107.969C144.274 107.253 145.51 106.894 147.078 106.894C147.728 106.894 148.279 106.93 148.733 107.001C149.186 107.072 149.605 107.185 149.988 107.342L149.237 108.462C149.045 108.38 148.794 108.313 148.485 108.26C148.176 108.208 147.808 108.182 147.381 108.182C146.486 108.182 145.803 108.4 145.335 108.836C144.865 109.274 144.631 109.951 144.631 110.869C144.631 111.749 144.827 112.42 145.223 112.878C145.617 113.338 146.16 113.567 146.854 113.567C147.045 113.567 147.208 113.558 147.341 113.539C147.475 113.521 147.584 113.492 147.67 113.455L147.67 111.272L146.358 111.272L146.358 110.186L150.101 110.186L150.101 114.373C149.717 114.529 149.293 114.644 148.829 114.715C148.365 114.785 147.755 114.821 146.998 114.821" fill="#562784" fill-rule="nonzero" opacity="1" stroke="none"/>
</g>
</g>
</g>
</g>
</svg>
