<?xml version="1.0" encoding="UTF-8" standalone="no"?>
<!DOCTYPE svg PUBLIC "-//W3C//DTD SVG 1.1//EN" "http://www.w3.org/Graphics/SVG/1.1/DTD/svg11.dtd">
<!-- Created with Vectornator (http://vectornator.io/) -->
<svg height="100%" stroke-miterlimit="10" style="fill-rule:nonzero;clip-rule:evenodd;stroke-linecap:round;stroke-linejoin:round;" version="1.1" viewBox="0 0 600 260" width="100%" xml:space="preserve" xmlns="http://www.w3.org/2000/svg" xmlns:xlink="http://www.w3.org/1999/xlink">
<defs/>
<g id="Untitled">
<path d="M158.991 249L157.691 253.5C155.491 254.4 152.591 254.7 150.191 254.7C148.791 254.7 147.291 254.6 145.891 254.3C142.191 253.4 138.991 251 138.991 246.5C138.991 239.9 144.591 234.9 154.291 234.9C157.791 234.9 160.791 235.6 162.391 235.9L161.191 240.4L160.491 240.4C160.491 240 160.491 239.4 159.991 238.8C159.191 237.9 157.591 237.4 155.391 237.4C149.391 237.4 145.291 241 145.291 245.9C145.291 249.6 148.191 251.9 152.291 251.9C155.091 251.9 157.391 250.9 158.391 248.9L158.991 248.9" fill="#e50012" fill-rule="nonzero" opacity="1" stroke="none"/>
<path d="M177.591 246.7L176.191 240.8L171.591 246.7L177.591 246.7M167.791 251.6C167.391 252.2 167.091 252.5 167.091 252.8C167.091 253.5 167.891 253.6 168.691 253.7L168.491 254.2L160.691 254.2L160.891 253.7C162.091 253.5 162.491 253.3 163.391 252.2L176.891 235.3L180.791 235.3L184.491 251.6C184.891 253.2 185.291 253.5 186.691 253.7L186.591 254.2L176.991 254.2L177.091 253.7C177.891 253.6 178.891 253.4 178.891 252.3C178.891 252.1 178.891 252 178.891 251.8L178.291 249L169.891 249L167.791 251.6Z" fill="#e50012" fill-rule="nonzero" opacity="1" stroke="none"/>
<path d="M199.891 243.4L201.191 243.4C203.691 243.4 205.891 242.5 205.891 240.2C205.891 238.7 204.691 237.9 202.891 237.9L201.391 237.9L199.891 243.4M199.191 246.1L197.791 251.2C197.691 251.5 197.591 252.1 197.591 252.4C197.591 253.2 198.191 253.7 199.391 253.8L199.291 254.3L189.291 254.3L189.391 253.8C191.091 253.6 191.591 252.9 191.891 251.5L195.491 237.9C195.491 237.7 195.591 237.5 195.591 237.3C195.591 236.1 194.491 236 193.791 235.9L193.891 235.4L204.491 235.4C207.691 235.4 211.691 236.5 211.691 240.2C211.691 242.6 209.691 244.6 206.891 245.4L210.291 252.1C210.791 253.1 211.291 253.6 212.391 253.7L212.191 254.2L208.191 254.2C207.391 254.2 206.491 254.1 205.691 253.7C204.791 253.3 204.491 252.7 204.091 252.1L200.991 246L199.191 246L199.191 246.1Z" fill="#e50012" fill-rule="nonzero" opacity="1" stroke="none"/>
<path d="M224.191 250.3C224.191 250.5 224.091 250.6 224.091 250.7C224.091 251.5 224.891 251.7 226.091 251.7C227.891 251.7 230.791 251.2 232.891 249.7C234.891 248.2 236.191 245.6 236.191 243.3C236.191 242.5 236.091 240.5 234.091 239.1C232.491 238 230.691 237.9 229.091 237.9L227.591 237.9L224.191 250.3M221.591 237.9C221.591 237.7 221.691 237.5 221.691 237.3C221.691 236.2 220.891 236 219.991 235.9L220.091 235.4L230.891 235.4C233.191 235.4 236.291 235.4 238.791 236.9C241.291 238.3 242.291 240.6 242.291 243.1C242.291 246.5 240.491 249.8 237.591 251.8C234.291 254.1 230.891 254.3 228.191 254.3L215.391 254.3L215.491 253.8C217.191 253.6 217.591 252.9 217.991 251.5L221.591 237.9Z" fill="#e50012" fill-rule="nonzero" opacity="1" stroke="none"/>
<path d="M263.091 251.3C262.991 251.6 262.891 252 262.891 252.4C262.891 253.2 263.591 253.7 264.791 253.8L264.691 254.3L254.491 254.3L254.591 253.8C255.991 253.6 256.691 253.6 257.191 251.5L260.691 238.4C260.791 238.1 260.891 237.6 260.891 237.3C260.891 236.7 260.491 236.1 258.991 235.9L259.091 235.4L269.291 235.4L269.191 235.9C267.591 236 266.891 236.6 266.491 238.2L263.091 251.3" fill="#e50012" fill-rule="nonzero" opacity="1" stroke="none"/>
<path d="M284.291 254.2L282.091 254.2L278.791 241L274.591 251.6C274.491 251.9 274.391 252.2 274.391 252.4C274.391 253.4 275.391 253.6 276.091 253.7L275.991 254.2L268.591 254.2L268.691 253.7C270.191 253.5 270.691 253 271.191 251.8L276.591 238.2C276.691 237.9 276.791 237.6 276.791 237.3C276.791 236.1 275.491 236 274.991 235.9L275.091 235.4L283.191 235.4L285.891 247.3L295.291 235.4L303.091 235.4L302.991 235.9C300.891 236.2 300.791 237.2 300.691 237.9L298.891 251.3C298.891 251.6 298.791 252 298.791 252.4C298.791 253.2 299.491 253.7 300.491 253.8L300.391 254.3L290.691 254.3L290.791 253.8C292.591 253.5 292.991 252.8 293.191 251.3L294.691 240.9L284.291 254.2" fill="#e50012" fill-rule="nonzero" opacity="1" stroke="none"/>
<path d="M319.091 246.7L317.691 240.8L313.091 246.7L319.091 246.7M309.291 251.6C308.891 252.2 308.591 252.5 308.591 252.8C308.591 253.5 309.391 253.6 310.191 253.7L309.991 254.2L302.191 254.2L302.391 253.7C303.591 253.5 303.991 253.3 304.891 252.2L318.391 235.3L322.291 235.3L325.991 251.6C326.391 253.2 326.791 253.5 328.191 253.7L328.091 254.2L318.291 254.2L318.391 253.7C319.191 253.6 320.191 253.4 320.191 252.3C320.191 252.1 320.191 252 320.191 251.8L319.591 249L311.291 249L309.291 251.6Z" fill="#e50012" fill-rule="nonzero" opacity="1" stroke="none"/>
<path d="M356.391 246.5L356.291 247C354.791 247.2 354.291 247.8 353.891 249.3L352.791 253.4C351.191 254 348.691 254.8 343.491 254.8C341.191 254.8 334.391 254.8 331.991 249.8C331.491 248.8 331.291 247.6 331.291 246.5C331.291 242.4 333.691 239.4 336.291 237.7C339.491 235.7 343.591 235 347.691 235C351.891 235 355.091 235.7 356.391 236L355.191 240.5L354.691 240.5C354.591 239.5 354.191 238.7 352.591 238.1C351.391 237.6 349.891 237.5 348.491 237.5C342.091 237.5 337.691 241 337.691 246.4C337.691 247.5 337.791 250.1 340.991 251.5C342.291 252.1 343.791 252.2 344.691 252.2C346.391 252.2 347.191 251.9 347.691 251.7L348.391 249.4C348.491 249 348.591 248.7 348.591 248.4C348.591 247.8 348.091 247.2 346.691 247.1L346.791 246.6L356.391 246.6" fill="#e50012" fill-rule="nonzero" opacity="1" stroke="none"/>
<path d="M367.591 251.3C367.491 251.6 367.391 252 367.391 252.4C367.391 253.2 368.091 253.7 369.291 253.8L369.191 254.3L358.891 254.3L358.991 253.8C360.391 253.6 361.091 253.6 361.591 251.5L365.091 238.4C365.191 238.1 365.291 237.6 365.291 237.3C365.291 236.7 364.891 236.1 363.391 235.9L363.491 235.4L373.791 235.4L373.691 235.9C372.091 236 371.391 236.6 370.991 238.2L367.591 251.3" fill="#e50012" fill-rule="nonzero" opacity="1" stroke="none"/>
<path d="M380.191 238.2C380.291 237.9 380.391 237.5 380.391 237.2C380.391 236.4 379.691 236 378.591 235.9L378.691 235.4L385.791 235.4L395.291 248.2L397.891 238.3C397.991 237.9 398.091 237.5 398.091 237.2C398.091 236.4 397.491 235.9 396.291 235.9L396.391 235.4L403.791 235.4L403.691 235.9C402.191 236 401.591 236.7 401.191 238.1L396.891 254.3L393.291 254.3L382.991 240.3L379.991 251.7C379.991 251.9 379.891 252.1 379.891 252.3C379.891 253.5 380.991 253.6 381.691 253.7L381.591 254.2L374.191 254.2L374.291 253.7C375.991 253.5 376.391 252.8 376.791 251.4L380.191 238.2" fill="#e50012" fill-rule="nonzero" opacity="1" stroke="none"/>
<path d="M430.691 246.5L430.591 247C429.091 247.2 428.591 247.8 428.191 249.3L427.091 253.4C425.491 254 422.991 254.8 417.791 254.8C415.491 254.8 408.691 254.8 406.291 249.8C405.791 248.8 405.591 247.6 405.591 246.5C405.591 242.4 407.991 239.4 410.591 237.7C413.791 235.7 417.891 235 421.991 235C426.191 235 429.391 235.7 430.691 236L429.491 240.5L428.991 240.5C428.891 239.5 428.491 238.7 426.891 238.1C425.691 237.6 424.191 237.5 422.791 237.5C416.391 237.5 411.891 241 411.891 246.4C411.891 247.5 411.991 250.1 415.191 251.5C416.491 252.1 417.991 252.2 418.891 252.2C420.591 252.2 421.391 251.9 421.791 251.7L422.491 249.4C422.591 249 422.691 248.7 422.691 248.4C422.691 247.8 422.191 247.2 420.691 247.1L420.791 246.6L430.691 246.6" fill="#e50012" fill-rule="nonzero" opacity="1" stroke="none"/>
<path d="M457.491 254.2L455.291 254.2L451.991 241L447.791 251.6C447.691 251.9 447.591 252.2 447.591 252.4C447.591 253.4 448.591 253.6 449.291 253.7L449.191 254.2L441.791 254.2L441.891 253.7C443.391 253.5 443.891 253 444.391 251.8L449.791 238.2C449.891 237.9 449.991 237.6 449.991 237.3C449.991 236.1 448.791 236 448.291 235.9L448.391 235.4L456.491 235.4L459.191 247.3L468.591 235.4L476.391 235.4L476.291 235.9C474.191 236.2 474.091 237.2 473.991 237.9L472.191 251.3C472.191 251.6 472.091 252 472.091 252.4C472.091 253.2 472.791 253.7 473.791 253.8L473.691 254.3L463.991 254.3L464.091 253.8C465.891 253.5 466.291 252.8 466.491 251.3L467.991 240.9L457.491 254.2" fill="#e50012" fill-rule="nonzero" opacity="1" stroke="none"/>
<path d="M492.191 246.7L490.791 240.8L486.191 246.7L492.191 246.7M482.491 251.6C482.091 252.2 481.791 252.5 481.791 252.8C481.791 253.5 482.591 253.6 483.391 253.7L483.191 254.2L475.391 254.2L475.591 253.7C476.791 253.5 477.191 253.3 478.091 252.2L491.591 235.3L495.491 235.3L499.191 251.6C499.591 253.2 499.991 253.5 501.391 253.7L501.291 254.2L491.591 254.2L491.691 253.7C492.491 253.6 493.491 253.4 493.491 252.3C493.491 252.1 493.491 252 493.491 251.8L492.891 249L484.491 249L482.491 251.6Z" fill="#e50012" fill-rule="nonzero" opacity="1" stroke="none"/>
<path d="M523.591 240.5L522.991 240.5C522.991 240 522.991 239.4 522.291 238.7C521.191 237.6 519.491 237.5 518.491 237.5C515.191 237.5 514.391 239.3 514.391 240.3C514.391 241.6 515.591 242.3 516.991 242.9L518.191 243.5C519.791 244.4 522.291 245.8 522.291 248.5C522.291 249.4 521.991 250.3 521.491 251.2C519.191 254.7 514.391 254.7 512.691 254.7C508.791 254.7 506.091 254 504.391 253.6L505.691 248.9L506.391 248.9C506.391 249.5 506.391 250.1 507.191 250.8C507.991 251.6 509.691 252 511.191 252C513.891 252 515.891 250.7 515.891 248.9C515.891 247.4 514.391 246.6 513.291 246.1L512.091 245.5C510.591 244.7 508.291 243.5 508.291 240.9C508.291 240 508.591 239.1 509.191 238.2C510.591 236.1 513.191 234.9 517.591 234.9C520.491 234.9 522.991 235.4 524.791 236L523.591 240.5" fill="#e50012" fill-rule="nonzero" opacity="1" stroke="none"/>
<path d="M531.891 238.1C530.791 238.1 529.491 238.2 528.691 239.6L528.091 239.6L529.191 235.4L549.991 235.4L548.791 239.8L548.291 239.8C548.391 238.4 547.491 238.1 545.591 238.1L541.891 238.1L538.191 251.8C538.091 252 538.091 252.2 538.091 252.4C538.091 253.6 539.191 253.7 539.891 253.8L539.791 254.3L529.691 254.3L529.791 253.8C531.491 253.6 531.991 252.9 532.391 251.5L535.991 238.1L531.891 238.1" fill="#e50012" fill-rule="nonzero" opacity="1" stroke="none"/>
<path d="M567.491 254.2L549.291 254.2L549.391 253.7C551.091 253.5 551.491 252.8 551.891 251.4L555.491 238.2C555.591 237.9 555.691 237.5 555.691 237.2C555.691 236.4 555.191 235.9 553.991 235.8L554.091 235.3L570.791 235.3L569.591 239.7L568.991 239.7C568.991 239.5 568.991 239.5 568.991 239.3C568.991 239 568.891 238.7 568.691 238.5C568.191 237.9 567.291 237.9 566.691 237.9L561.691 237.9L560.291 242.8L564.391 242.8C565.391 242.8 566.691 242.8 567.491 241.3L568.091 241.3L566.491 247.3L565.891 247.3C565.891 247.1 565.891 247 565.891 246.9C565.891 245.6 564.391 245.5 563.591 245.5L559.491 245.5L558.191 250C558.191 250.2 558.091 250.4 558.091 250.6C558.091 251.1 558.391 251.4 559.591 251.4L564.891 251.4C566.691 251.4 567.391 251.1 567.991 249.9L568.591 249.9L567.491 254.2" fill="#e50012" fill-rule="nonzero" opacity="1" stroke="none"/>
<path d="M583.291 243.4L584.591 243.4C587.091 243.4 589.291 242.5 589.291 240.2C589.291 238.7 588.091 237.9 586.291 237.9L584.791 237.9L583.291 243.4M582.491 246.1L581.091 251.2C580.991 251.5 580.891 252.1 580.891 252.4C580.891 253.2 581.491 253.7 582.691 253.8L582.591 254.3L572.591 254.3L572.691 253.8C574.391 253.6 574.891 252.9 575.191 251.5L578.791 237.9C578.791 237.7 578.891 237.5 578.891 237.3C578.891 236.1 577.791 236 577.091 235.9L577.191 235.4L587.791 235.4C590.991 235.4 594.991 236.5 594.991 240.2C594.991 242.6 592.991 244.6 590.091 245.4L593.491 252.1C594.091 253.1 594.491 253.6 595.591 253.7L595.391 254.2L591.391 254.2C590.591 254.2 589.791 254.1 588.891 253.7C587.991 253.3 587.691 252.7 587.291 252.1L584.191 246L582.491 246L582.491 246.1Z" fill="#e50012" fill-rule="nonzero" opacity="1" stroke="none"/>
<path d="M158.991 249L157.691 253.5C155.491 254.4 152.591 254.7 150.191 254.7C148.791 254.7 147.291 254.6 145.891 254.3C142.191 253.4 138.991 251 138.991 246.5C138.991 239.9 144.591 234.9 154.291 234.9C157.791 234.9 160.791 235.6 162.391 235.9L161.191 240.4L160.491 240.4C160.491 240 160.491 239.4 159.991 238.8C159.191 237.9 157.591 237.4 155.391 237.4C149.391 237.4 145.291 241 145.291 245.9C145.291 249.6 148.191 251.9 152.291 251.9C155.091 251.9 157.391 250.9 158.391 248.9L158.991 248.9" fill="#e50012" fill-rule="nonzero" opacity="1" stroke="none"/>
<path d="M177.591 246.7L176.191 240.8L171.591 246.7L177.591 246.7M167.791 251.6C167.391 252.2 167.091 252.5 167.091 252.8C167.091 253.5 167.891 253.6 168.691 253.7L168.491 254.2L160.691 254.2L160.891 253.7C162.091 253.5 162.491 253.3 163.391 252.2L176.891 235.3L180.791 235.3L184.491 251.6C184.891 253.2 185.291 253.5 186.691 253.7L186.591 254.2L176.991 254.2L177.091 253.7C177.891 253.6 178.891 253.4 178.891 252.3C178.891 252.1 178.891 252 178.891 251.8L178.291 249L169.891 249L167.791 251.6Z" fill="#e50012" fill-rule="nonzero" opacity="1" stroke="none"/>
<path d="M199.891 243.4L201.191 243.4C203.691 243.4 205.891 242.5 205.891 240.2C205.891 238.7 204.691 237.9 202.891 237.9L201.391 237.9L199.891 243.4M199.191 246.1L197.791 251.2C197.691 251.5 197.591 252.1 197.591 252.4C197.591 253.2 198.191 253.7 199.391 253.8L199.291 254.3L189.291 254.3L189.391 253.8C191.091 253.6 191.591 252.9 191.891 251.5L195.491 237.9C195.491 237.7 195.591 237.5 195.591 237.3C195.591 236.1 194.491 236 193.791 235.9L193.891 235.4L204.491 235.4C207.691 235.4 211.691 236.5 211.691 240.2C211.691 242.6 209.691 244.6 206.891 245.4L210.291 252.1C210.791 253.1 211.291 253.6 212.391 253.7L212.191 254.2L208.191 254.2C207.391 254.2 206.491 254.1 205.691 253.7C204.791 253.3 204.491 252.7 204.091 252.1L200.991 246L199.191 246L199.191 246.1Z" fill="#e50012" fill-rule="nonzero" opacity="1" stroke="none"/>
<path d="M224.191 250.3C224.191 250.5 224.091 250.6 224.091 250.7C224.091 251.5 224.891 251.7 226.091 251.7C227.891 251.7 230.791 251.2 232.891 249.7C234.891 248.2 236.191 245.6 236.191 243.3C236.191 242.5 236.091 240.5 234.091 239.1C232.491 238 230.691 237.9 229.091 237.9L227.591 237.9L224.191 250.3M221.591 237.9C221.591 237.7 221.691 237.5 221.691 237.3C221.691 236.2 220.891 236 219.991 235.9L220.091 235.4L230.891 235.4C233.191 235.4 236.291 235.4 238.791 236.9C241.291 238.3 242.291 240.6 242.291 243.1C242.291 246.5 240.491 249.8 237.591 251.8C234.291 254.1 230.891 254.3 228.191 254.3L215.391 254.3L215.491 253.8C217.191 253.6 217.591 252.9 217.991 251.5L221.591 237.9Z" fill="#e50012" fill-rule="nonzero" opacity="1" stroke="none"/>
<path d="M263.091 251.3C262.991 251.6 262.891 252 262.891 252.4C262.891 253.2 263.591 253.7 264.791 253.8L264.691 254.3L254.491 254.3L254.591 253.8C255.991 253.6 256.691 253.6 257.191 251.5L260.691 238.4C260.791 238.1 260.891 237.6 260.891 237.3C260.891 236.7 260.491 236.1 258.991 235.9L259.091 235.4L269.291 235.4L269.191 235.9C267.591 236 266.891 236.6 266.491 238.2L263.091 251.3" fill="#e50012" fill-rule="nonzero" opacity="1" stroke="none"/>
<path d="M284.291 254.2L282.091 254.2L278.791 241L274.591 251.6C274.491 251.9 274.391 252.2 274.391 252.4C274.391 253.4 275.391 253.6 276.091 253.7L275.991 254.2L268.591 254.2L268.691 253.7C270.191 253.5 270.691 253 271.191 251.8L276.591 238.2C276.691 237.9 276.791 237.6 276.791 237.3C276.791 236.1 275.491 236 274.991 235.9L275.091 235.4L283.191 235.4L285.891 247.3L295.291 235.4L303.091 235.4L302.991 235.9C300.891 236.2 300.791 237.2 300.691 237.9L298.891 251.3C298.891 251.6 298.791 252 298.791 252.4C298.791 253.2 299.491 253.7 300.491 253.8L300.391 254.3L290.691 254.3L290.791 253.8C292.591 253.5 292.991 252.8 293.191 251.3L294.691 240.9L284.291 254.2" fill="#e50012" fill-rule="nonzero" opacity="1" stroke="none"/>
<path d="M319.091 246.7L317.691 240.8L313.091 246.7L319.091 246.7M309.291 251.6C308.891 252.2 308.591 252.5 308.591 252.8C308.591 253.5 309.391 253.6 310.191 253.7L309.991 254.2L302.191 254.2L302.391 253.7C303.591 253.5 303.991 253.3 304.891 252.2L318.391 235.3L322.291 235.3L325.991 251.6C326.391 253.2 326.791 253.5 328.191 253.7L328.091 254.2L318.291 254.2L318.391 253.7C319.191 253.6 320.191 253.4 320.191 252.3C320.191 252.1 320.191 252 320.191 251.8L319.591 249L311.291 249L309.291 251.6Z" fill="#e50012" fill-rule="nonzero" opacity="1" stroke="none"/>
<path d="M356.391 246.5L356.291 247C354.791 247.2 354.291 247.8 353.891 249.3L352.791 253.4C351.191 254 348.691 254.8 343.491 254.8C341.191 254.8 334.391 254.8 331.991 249.8C331.491 248.8 331.291 247.6 331.291 246.5C331.291 242.4 333.691 239.4 336.291 237.7C339.491 235.7 343.591 235 347.691 235C351.891 235 355.091 235.7 356.391 236L355.191 240.5L354.691 240.5C354.591 239.5 354.191 238.7 352.591 238.1C351.391 237.6 349.891 237.5 348.491 237.5C342.091 237.5 337.691 241 337.691 246.4C337.691 247.5 337.791 250.1 340.991 251.5C342.291 252.1 343.791 252.2 344.691 252.2C346.391 252.2 347.191 251.9 347.691 251.7L348.391 249.4C348.491 249 348.591 248.7 348.591 248.4C348.591 247.8 348.091 247.2 346.691 247.1L346.791 246.6L356.391 246.6" fill="#e50012" fill-rule="nonzero" opacity="1" stroke="none"/>
<path d="M367.591 251.3C367.491 251.6 367.391 252 367.391 252.4C367.391 253.2 368.091 253.7 369.291 253.8L369.191 254.3L358.891 254.3L358.991 253.8C360.391 253.6 361.091 253.6 361.591 251.5L365.091 238.4C365.191 238.1 365.291 237.6 365.291 237.3C365.291 236.7 364.891 236.1 363.391 235.9L363.491 235.4L373.791 235.4L373.691 235.9C372.091 236 371.391 236.6 370.991 238.2L367.591 251.3" fill="#e50012" fill-rule="nonzero" opacity="1" stroke="none"/>
<path d="M380.191 238.2C380.291 237.9 380.391 237.5 380.391 237.2C380.391 236.4 379.691 236 378.591 235.9L378.691 235.4L385.791 235.4L395.291 248.2L397.891 238.3C397.991 237.9 398.091 237.5 398.091 237.2C398.091 236.4 397.491 235.9 396.291 235.9L396.391 235.4L403.791 235.4L403.691 235.9C402.191 236 401.591 236.7 401.191 238.1L396.891 254.3L393.291 254.3L382.991 240.3L379.991 251.7C379.991 251.9 379.891 252.1 379.891 252.3C379.891 253.5 380.991 253.6 381.691 253.7L381.591 254.2L374.191 254.2L374.291 253.7C375.991 253.5 376.391 252.8 376.791 251.4L380.191 238.2" fill="#e50012" fill-rule="nonzero" opacity="1" stroke="none"/>
<path d="M430.691 246.5L430.591 247C429.091 247.2 428.591 247.8 428.191 249.3L427.091 253.4C425.491 254 422.991 254.8 417.791 254.8C415.491 254.8 408.691 254.8 406.291 249.8C405.791 248.8 405.591 247.6 405.591 246.5C405.591 242.4 407.991 239.4 410.591 237.7C413.791 235.7 417.891 235 421.991 235C426.191 235 429.391 235.7 430.691 236L429.491 240.5L428.991 240.5C428.891 239.5 428.491 238.7 426.891 238.1C425.691 237.6 424.191 237.5 422.791 237.5C416.391 237.5 411.891 241 411.891 246.4C411.891 247.5 411.991 250.1 415.191 251.5C416.491 252.1 417.991 252.2 418.891 252.2C420.591 252.2 421.391 251.9 421.791 251.7L422.491 249.4C422.591 249 422.691 248.7 422.691 248.4C422.691 247.8 422.191 247.2 420.691 247.1L420.791 246.6L430.691 246.6" fill="#e50012" fill-rule="nonzero" opacity="1" stroke="none"/>
<path d="M457.491 254.2L455.291 254.2L451.991 241L447.791 251.6C447.691 251.9 447.591 252.2 447.591 252.4C447.591 253.4 448.591 253.6 449.291 253.7L449.191 254.2L441.791 254.2L441.891 253.7C443.391 253.5 443.891 253 444.391 251.8L449.791 238.2C449.891 237.9 449.991 237.6 449.991 237.3C449.991 236.1 448.791 236 448.291 235.9L448.391 235.4L456.491 235.4L459.191 247.3L468.591 235.4L476.391 235.4L476.291 235.9C474.191 236.2 474.091 237.2 473.991 237.9L472.191 251.3C472.191 251.6 472.091 252 472.091 252.4C472.091 253.2 472.791 253.7 473.791 253.8L473.691 254.3L463.991 254.3L464.091 253.8C465.891 253.5 466.291 252.8 466.491 251.3L467.991 240.9L457.491 254.2" fill="#e50012" fill-rule="nonzero" opacity="1" stroke="none"/>
<path d="M492.191 246.7L490.791 240.8L486.191 246.7L492.191 246.7M482.491 251.6C482.091 252.2 481.791 252.5 481.791 252.8C481.791 253.5 482.591 253.6 483.391 253.7L483.191 254.2L475.391 254.2L475.591 253.7C476.791 253.5 477.191 253.3 478.091 252.2L491.591 235.3L495.491 235.3L499.191 251.6C499.591 253.2 499.991 253.5 501.391 253.7L501.291 254.2L491.591 254.2L491.691 253.7C492.491 253.6 493.491 253.4 493.491 252.3C493.491 252.1 493.491 252 493.491 251.8L492.891 249L484.491 249L482.491 251.6Z" fill="#e50012" fill-rule="nonzero" opacity="1" stroke="none"/>
<path d="M523.591 240.5L522.991 240.5C522.991 240 522.991 239.4 522.291 238.7C521.191 237.6 519.491 237.5 518.491 237.5C515.191 237.5 514.391 239.3 514.391 240.3C514.391 241.6 515.591 242.3 516.991 242.9L518.191 243.5C519.791 244.4 522.291 245.8 522.291 248.5C522.291 249.4 521.991 250.3 521.491 251.2C519.191 254.7 514.391 254.7 512.691 254.7C508.791 254.7 506.091 254 504.391 253.6L505.691 248.9L506.391 248.9C506.391 249.5 506.391 250.1 507.191 250.8C507.991 251.6 509.691 252 511.191 252C513.891 252 515.891 250.7 515.891 248.9C515.891 247.4 514.391 246.6 513.291 246.1L512.091 245.5C510.591 244.7 508.291 243.5 508.291 240.9C508.291 240 508.591 239.1 509.191 238.2C510.591 236.1 513.191 234.9 517.591 234.9C520.491 234.9 522.991 235.4 524.791 236L523.591 240.5" fill="#e50012" fill-rule="nonzero" opacity="1" stroke="none"/>
<path d="M531.891 238.1C530.791 238.1 529.491 238.2 528.691 239.6L528.091 239.6L529.191 235.4L549.991 235.4L548.791 239.8L548.291 239.8C548.391 238.4 547.491 238.1 545.591 238.1L541.891 238.1L538.191 251.8C538.091 252 538.091 252.2 538.091 252.4C538.091 253.6 539.191 253.7 539.891 253.8L539.791 254.3L529.691 254.3L529.791 253.8C531.491 253.6 531.991 252.9 532.391 251.5L535.991 238.1L531.891 238.1" fill="#e50012" fill-rule="nonzero" opacity="1" stroke="none"/>
<path d="M567.491 254.2L549.291 254.2L549.391 253.7C551.091 253.5 551.491 252.8 551.891 251.4L555.491 238.2C555.591 237.9 555.691 237.5 555.691 237.2C555.691 236.4 555.191 235.9 553.991 235.8L554.091 235.3L570.791 235.3L569.591 239.7L568.991 239.7C568.991 239.5 568.991 239.5 568.991 239.3C568.991 239 568.891 238.7 568.691 238.5C568.191 237.9 567.291 237.9 566.691 237.9L561.691 237.9L560.291 242.8L564.391 242.8C565.391 242.8 566.691 242.8 567.491 241.3L568.091 241.3L566.491 247.3L565.891 247.3C565.891 247.1 565.891 247 565.891 246.9C565.891 245.6 564.391 245.5 563.591 245.5L559.491 245.5L558.191 250C558.191 250.2 558.091 250.4 558.091 250.6C558.091 251.1 558.391 251.4 559.591 251.4L564.891 251.4C566.691 251.4 567.391 251.1 567.991 249.9L568.591 249.9L567.491 254.2" fill="#e50012" fill-rule="nonzero" opacity="1" stroke="none"/>
<path d="M583.291 243.4L584.591 243.4C587.091 243.4 589.291 242.5 589.291 240.2C589.291 238.7 588.091 237.9 586.291 237.9L584.791 237.9L583.291 243.4M582.491 246.1L581.091 251.2C580.991 251.5 580.891 252.1 580.891 252.4C580.891 253.2 581.491 253.7 582.691 253.8L582.591 254.3L572.591 254.3L572.691 253.8C574.391 253.6 574.891 252.9 575.191 251.5L578.791 237.9C578.791 237.7 578.891 237.5 578.891 237.3C578.891 236.1 577.791 236 577.091 235.9L577.191 235.4L587.791 235.4C590.991 235.4 594.991 236.5 594.991 240.2C594.991 242.6 592.991 244.6 590.091 245.4L593.491 252.1C594.091 253.1 594.491 253.6 595.591 253.7L595.391 254.2L591.391 254.2C590.591 254.2 589.791 254.1 588.891 253.7C587.991 253.3 587.691 252.7 587.291 252.1L584.191 246L582.491 246L582.491 246.1Z" fill="#e50012" fill-rule="nonzero" opacity="1" stroke="none"/>
<path d="M158.991 249L157.691 253.5C155.491 254.4 152.591 254.7 150.191 254.7C148.791 254.7 147.291 254.6 145.891 254.3C142.191 253.4 138.991 251 138.991 246.5C138.991 239.9 144.591 234.9 154.291 234.9C157.791 234.9 160.791 235.6 162.391 235.9L161.191 240.4L160.491 240.4C160.491 240 160.491 239.4 159.991 238.8C159.191 237.9 157.591 237.4 155.391 237.4C149.391 237.4 145.291 241 145.291 245.9C145.291 249.6 148.191 251.9 152.291 251.9C155.091 251.9 157.391 250.9 158.391 248.9L158.991 248.9" fill="#e50012" fill-rule="nonzero" opacity="1" stroke="none"/>
<path d="M177.591 246.7L176.191 240.8L171.591 246.7L177.591 246.7M167.791 251.6C167.391 252.2 167.091 252.5 167.091 252.8C167.091 253.5 167.891 253.6 168.691 253.7L168.491 254.2L160.691 254.2L160.891 253.7C162.091 253.5 162.491 253.3 163.391 252.2L176.891 235.3L180.791 235.3L184.491 251.6C184.891 253.2 185.291 253.5 186.691 253.7L186.591 254.2L176.991 254.2L177.091 253.7C177.891 253.6 178.891 253.4 178.891 252.3C178.891 252.1 178.891 252 178.891 251.8L178.291 249L169.891 249L167.791 251.6Z" fill="#e50012" fill-rule="nonzero" opacity="1" stroke="none"/>
<path d="M199.891 243.4L201.191 243.4C203.691 243.4 205.891 242.5 205.891 240.2C205.891 238.7 204.691 237.9 202.891 237.9L201.391 237.9L199.891 243.4M199.191 246.1L197.791 251.2C197.691 251.5 197.591 252.1 197.591 252.4C197.591 253.2 198.191 253.7 199.391 253.8L199.291 254.3L189.291 254.3L189.391 253.8C191.091 253.6 191.591 252.9 191.891 251.5L195.491 237.9C195.491 237.7 195.591 237.5 195.591 237.3C195.591 236.1 194.491 236 193.791 235.9L193.891 235.4L204.491 235.4C207.691 235.4 211.691 236.5 211.691 240.2C211.691 242.6 209.691 244.6 206.891 245.4L210.291 252.1C210.791 253.1 211.291 253.6 212.391 253.7L212.191 254.2L208.191 254.2C207.391 254.2 206.491 254.1 205.691 253.7C204.791 253.3 204.491 252.7 204.091 252.1L200.991 246L199.191 246L199.191 246.1Z" fill="#e50012" fill-rule="nonzero" opacity="1" stroke="none"/>
<path d="M224.191 250.3C224.191 250.5 224.091 250.6 224.091 250.7C224.091 251.5 224.891 251.7 226.091 251.7C227.891 251.7 230.791 251.2 232.891 249.7C234.891 248.2 236.191 245.6 236.191 243.3C236.191 242.5 236.091 240.5 234.091 239.1C232.491 238 230.691 237.9 229.091 237.9L227.591 237.9L224.191 250.3M221.591 237.9C221.591 237.7 221.691 237.5 221.691 237.3C221.691 236.2 220.891 236 219.991 235.9L220.091 235.4L230.891 235.4C233.191 235.4 236.291 235.4 238.791 236.9C241.291 238.3 242.291 240.6 242.291 243.1C242.291 246.5 240.491 249.8 237.591 251.8C234.291 254.1 230.891 254.3 228.191 254.3L215.391 254.3L215.491 253.8C217.191 253.6 217.591 252.9 217.991 251.5L221.591 237.9Z" fill="#e50012" fill-rule="nonzero" opacity="1" stroke="none"/>
<path d="M263.091 251.3C262.991 251.6 262.891 252 262.891 252.4C262.891 253.2 263.591 253.7 264.791 253.8L264.691 254.3L254.491 254.3L254.591 253.8C255.991 253.6 256.691 253.6 257.191 251.5L260.691 238.4C260.791 238.1 260.891 237.6 260.891 237.3C260.891 236.7 260.491 236.1 258.991 235.9L259.091 235.4L269.291 235.4L269.191 235.9C267.591 236 266.891 236.6 266.491 238.2L263.091 251.3" fill="#e50012" fill-rule="nonzero" opacity="1" stroke="none"/>
<path d="M284.291 254.2L282.091 254.2L278.791 241L274.591 251.6C274.491 251.9 274.391 252.2 274.391 252.4C274.391 253.4 275.391 253.6 276.091 253.7L275.991 254.2L268.591 254.2L268.691 253.7C270.191 253.5 270.691 253 271.191 251.8L276.591 238.2C276.691 237.9 276.791 237.6 276.791 237.3C276.791 236.1 275.491 236 274.991 235.9L275.091 235.4L283.191 235.4L285.891 247.3L295.291 235.4L303.091 235.4L302.991 235.9C300.891 236.2 300.791 237.2 300.691 237.9L298.891 251.3C298.891 251.6 298.791 252 298.791 252.4C298.791 253.2 299.491 253.7 300.491 253.8L300.391 254.3L290.691 254.3L290.791 253.8C292.591 253.5 292.991 252.8 293.191 251.3L294.691 240.9L284.291 254.2" fill="#e50012" fill-rule="nonzero" opacity="1" stroke="none"/>
<path d="M319.091 246.7L317.691 240.8L313.091 246.7L319.091 246.7M309.291 251.6C308.891 252.2 308.591 252.5 308.591 252.8C308.591 253.5 309.391 253.6 310.191 253.7L309.991 254.2L302.191 254.2L302.391 253.7C303.591 253.5 303.991 253.3 304.891 252.2L318.391 235.3L322.291 235.3L325.991 251.6C326.391 253.2 326.791 253.5 328.191 253.7L328.091 254.2L318.291 254.2L318.391 253.7C319.191 253.6 320.191 253.4 320.191 252.3C320.191 252.1 320.191 252 320.191 251.8L319.591 249L311.291 249L309.291 251.6Z" fill="#e50012" fill-rule="nonzero" opacity="1" stroke="none"/>
<path d="M356.391 246.5L356.291 247C354.791 247.2 354.291 247.8 353.891 249.3L352.791 253.4C351.191 254 348.691 254.8 343.491 254.8C341.191 254.8 334.391 254.8 331.991 249.8C331.491 248.8 331.291 247.6 331.291 246.5C331.291 242.4 333.691 239.4 336.291 237.7C339.491 235.7 343.591 235 347.691 235C351.891 235 355.091 235.7 356.391 236L355.191 240.5L354.691 240.5C354.591 239.5 354.191 238.7 352.591 238.1C351.391 237.6 349.891 237.5 348.491 237.5C342.091 237.5 337.691 241 337.691 246.4C337.691 247.5 337.791 250.1 340.991 251.5C342.291 252.1 343.791 252.2 344.691 252.2C346.391 252.2 347.191 251.9 347.691 251.7L348.391 249.4C348.491 249 348.591 248.7 348.591 248.4C348.591 247.8 348.091 247.2 346.691 247.1L346.791 246.6L356.391 246.6" fill="#e50012" fill-rule="nonzero" opacity="1" stroke="none"/>
<path d="M367.591 251.3C367.491 251.6 367.391 252 367.391 252.4C367.391 253.2 368.091 253.7 369.291 253.8L369.191 254.3L358.891 254.3L358.991 253.8C360.391 253.6 361.091 253.6 361.591 251.5L365.091 238.4C365.191 238.1 365.291 237.6 365.291 237.3C365.291 236.7 364.891 236.1 363.391 235.9L363.491 235.4L373.791 235.4L373.691 235.9C372.091 236 371.391 236.6 370.991 238.2L367.591 251.3" fill="#e50012" fill-rule="nonzero" opacity="1" stroke="none"/>
<path d="M380.191 238.2C380.291 237.9 380.391 237.5 380.391 237.2C380.391 236.4 379.691 236 378.591 235.9L378.691 235.4L385.791 235.4L395.291 248.2L397.891 238.3C397.991 237.9 398.091 237.5 398.091 237.2C398.091 236.4 397.491 235.9 396.291 235.9L396.391 235.4L403.791 235.4L403.691 235.9C402.191 236 401.591 236.7 401.191 238.1L396.891 254.3L393.291 254.3L382.991 240.3L379.991 251.7C379.991 251.9 379.891 252.1 379.891 252.3C379.891 253.5 380.991 253.6 381.691 253.7L381.591 254.2L374.191 254.2L374.291 253.7C375.991 253.5 376.391 252.8 376.791 251.4L380.191 238.2" fill="#e50012" fill-rule="nonzero" opacity="1" stroke="none"/>
<path d="M430.691 246.5L430.591 247C429.091 247.2 428.591 247.8 428.191 249.3L427.091 253.4C425.491 254 422.991 254.8 417.791 254.8C415.491 254.8 408.691 254.8 406.291 249.8C405.791 248.8 405.591 247.6 405.591 246.5C405.591 242.4 407.991 239.4 410.591 237.7C413.791 235.7 417.891 235 421.991 235C426.191 235 429.391 235.7 430.691 236L429.491 240.5L428.991 240.5C428.891 239.5 428.491 238.7 426.891 238.1C425.691 237.6 424.191 237.5 422.791 237.5C416.391 237.5 411.891 241 411.891 246.4C411.891 247.5 411.991 250.1 415.191 251.5C416.491 252.1 417.991 252.2 418.891 252.2C420.591 252.2 421.391 251.9 421.791 251.7L422.491 249.4C422.591 249 422.691 248.7 422.691 248.4C422.691 247.8 422.191 247.2 420.691 247.1L420.791 246.6L430.691 246.6" fill="#e50012" fill-rule="nonzero" opacity="1" stroke="none"/>
<path d="M457.491 254.2L455.291 254.2L451.991 241L447.791 251.6C447.691 251.9 447.591 252.2 447.591 252.4C447.591 253.4 448.591 253.6 449.291 253.7L449.191 254.2L441.791 254.2L441.891 253.7C443.391 253.5 443.891 253 444.391 251.8L449.791 238.2C449.891 237.9 449.991 237.6 449.991 237.3C449.991 236.1 448.791 236 448.291 235.9L448.391 235.4L456.491 235.4L459.191 247.3L468.591 235.4L476.391 235.4L476.291 235.9C474.191 236.2 474.091 237.2 473.991 237.9L472.191 251.3C472.191 251.6 472.091 252 472.091 252.4C472.091 253.2 472.791 253.7 473.791 253.8L473.691 254.3L463.991 254.3L464.091 253.8C465.891 253.5 466.291 252.8 466.491 251.3L467.991 240.9L457.491 254.2" fill="#e50012" fill-rule="nonzero" opacity="1" stroke="none"/>
<path d="M492.191 246.7L490.791 240.8L486.191 246.7L492.191 246.7M482.491 251.6C482.091 252.2 481.791 252.5 481.791 252.8C481.791 253.5 482.591 253.6 483.391 253.7L483.191 254.2L475.391 254.2L475.591 253.7C476.791 253.5 477.191 253.3 478.091 252.2L491.591 235.3L495.491 235.3L499.191 251.6C499.591 253.2 499.991 253.5 501.391 253.7L501.291 254.2L491.591 254.2L491.691 253.7C492.491 253.6 493.491 253.4 493.491 252.3C493.491 252.1 493.491 252 493.491 251.8L492.891 249L484.491 249L482.491 251.6Z" fill="#e50012" fill-rule="nonzero" opacity="1" stroke="none"/>
<path d="M523.591 240.5L522.991 240.5C522.991 240 522.991 239.4 522.291 238.7C521.191 237.6 519.491 237.5 518.491 237.5C515.191 237.5 514.391 239.3 514.391 240.3C514.391 241.6 515.591 242.3 516.991 242.9L518.191 243.5C519.791 244.4 522.291 245.8 522.291 248.5C522.291 249.4 521.991 250.3 521.491 251.2C519.191 254.7 514.391 254.7 512.691 254.7C508.791 254.7 506.091 254 504.391 253.6L505.691 248.9L506.391 248.9C506.391 249.5 506.391 250.1 507.191 250.8C507.991 251.6 509.691 252 511.191 252C513.891 252 515.891 250.7 515.891 248.9C515.891 247.4 514.391 246.6 513.291 246.1L512.091 245.5C510.591 244.7 508.291 243.5 508.291 240.9C508.291 240 508.591 239.1 509.191 238.2C510.591 236.1 513.191 234.9 517.591 234.9C520.491 234.9 522.991 235.4 524.791 236L523.591 240.5" fill="#e50012" fill-rule="nonzero" opacity="1" stroke="none"/>
<path d="M531.891 238.1C530.791 238.1 529.491 238.2 528.691 239.6L528.091 239.6L529.191 235.4L549.991 235.4L548.791 239.8L548.291 239.8C548.391 238.4 547.491 238.1 545.591 238.1L541.891 238.1L538.191 251.8C538.091 252 538.091 252.2 538.091 252.4C538.091 253.6 539.191 253.7 539.891 253.8L539.791 254.3L529.691 254.3L529.791 253.8C531.491 253.6 531.991 252.9 532.391 251.5L535.991 238.1L531.891 238.1" fill="#e50012" fill-rule="nonzero" opacity="1" stroke="none"/>
<path d="M567.491 254.2L549.291 254.2L549.391 253.7C551.091 253.5 551.491 252.8 551.891 251.4L555.491 238.2C555.591 237.9 555.691 237.5 555.691 237.2C555.691 236.4 555.191 235.9 553.991 235.8L554.091 235.3L570.791 235.3L569.591 239.7L568.991 239.7C568.991 239.5 568.991 239.5 568.991 239.3C568.991 239 568.891 238.7 568.691 238.5C568.191 237.9 567.291 237.9 566.691 237.9L561.691 237.9L560.291 242.8L564.391 242.8C565.391 242.8 566.691 242.8 567.491 241.3L568.091 241.3L566.491 247.3L565.891 247.3C565.891 247.1 565.891 247 565.891 246.9C565.891 245.6 564.391 245.5 563.591 245.5L559.491 245.5L558.191 250C558.191 250.2 558.091 250.4 558.091 250.6C558.091 251.1 558.391 251.4 559.591 251.4L564.891 251.4C566.691 251.4 567.391 251.1 567.991 249.9L568.591 249.9L567.491 254.2" fill="#e50012" fill-rule="nonzero" opacity="1" stroke="none"/>
<path d="M583.291 243.4L584.591 243.4C587.091 243.4 589.291 242.5 589.291 240.2C589.291 238.7 588.091 237.9 586.291 237.9L584.791 237.9L583.291 243.4M582.491 246.1L581.091 251.2C580.991 251.5 580.891 252.1 580.891 252.4C580.891 253.2 581.491 253.7 582.691 253.8L582.591 254.3L572.591 254.3L572.691 253.8C574.391 253.6 574.891 252.9 575.191 251.5L578.791 237.9C578.791 237.7 578.891 237.5 578.891 237.3C578.891 236.1 577.791 236 577.091 235.9L577.191 235.4L587.791 235.4C590.991 235.4 594.991 236.5 594.991 240.2C594.991 242.6 592.991 244.6 590.091 245.4L593.491 252.1C594.091 253.1 594.491 253.6 595.591 253.7L595.391 254.2L591.391 254.2C590.591 254.2 589.791 254.1 588.891 253.7C587.991 253.3 587.691 252.7 587.291 252.1L584.191 246L582.491 246L582.491 246.1Z" fill="#e50012" fill-rule="nonzero" opacity="1" stroke="none"/>
<path d="M71.091 182.1C39.491 168.3-3.20896 141.5 0.191041 104.3C3.99104 68.5 46.091 45.6 77.191 32C120.391 14.2 168.491 4.79999 216.291 0C170.191 8.39999 124.091 22.1 86.491 52.2C70.591 66.2 57.991 84.3 64.491 104.3C76.891 134.6 112.091 150.3 140.691 162.6C218.991 192.1 298.791 201 388.791 195.8C452.591 192.1 523.991 187.9 585.091 165C590.091 162.8 595.291 160.8 599.991 158C550.591 191.1 491.491 205.8 430.891 215.6C367.291 225.6 284.291 226.4 219.991 218.4C168.391 213 117.191 202.2 71.091 182.1" fill="#e50012" fill-rule="nonzero" opacity="1" stroke="none"/>
<path d="M258.191 51.3C273.491 52.5 289.091 52.4 300.691 62.6C306.891 69.5 307.291 78.9 307.191 88.4L266.191 88.4C266.491 84.4 265.291 80.4 261.591 78.8C258.091 76.6 253.391 77.1 249.391 76.4L194.391 76.6C187.991 77.5 181.191 78.8 177.291 84.8C172.991 93 175.491 104.5 175.091 114.1C175.891 118.4 177.491 122.8 181.891 125C185.791 127.4 190.891 127.3 195.591 127.9L254.391 127.7C259.391 127.1 265.691 125.9 267.191 120L267.891 114L308.891 114.2C310.091 127.4 308.791 141 296.091 147C287.091 151.3 276.791 152.6 266.291 153.2L177.491 153C160.791 151.4 141.391 149 134.591 131C130.691 115.9 132.991 98 132.691 81.6C133.691 73 137.391 64.6 145.391 59.7C156.791 52.9 170.591 51.6 184.691 51.1L258.191 51.3" fill="#e50012" fill-rule="nonzero" opacity="1" stroke="none"/>
<path d="M320.191 52.3L361.191 52.3L361.191 52.3L361.191 152.3L361.191 152.3L320.191 152.3L320.191 152.3L320.191 52.3L320.191 52.3Z" fill="#e50012" fill-rule="nonzero" opacity="1" stroke="none"/>
<path d="M485.991 116.6L488.191 114.2L532.791 52.7L533.291 52.3L596.791 52.3L596.791 152L556.891 152.3L556.891 80.5L556.391 80L501.591 152L470.591 152.3L416.391 80.5L415.891 80L415.391 80.5L415.391 152.3L375.391 152.3L375.391 52.3L438.991 52.3L485.991 116.6Z" fill="#e50012" fill-rule="nonzero" opacity="1" stroke="none"/>
<path d="M158.991 249L157.691 253.5C155.491 254.4 152.591 254.7 150.191 254.7C148.791 254.7 147.291 254.6 145.891 254.3C142.191 253.4 138.991 251 138.991 246.5C138.991 239.9 144.591 234.9 154.291 234.9C157.791 234.9 160.791 235.6 162.391 235.9L161.191 240.4L160.491 240.4C160.491 240 160.491 239.4 159.991 238.8C159.191 237.9 157.591 237.4 155.391 237.4C149.391 237.4 145.291 241 145.291 245.9C145.291 249.6 148.191 251.9 152.291 251.9C155.091 251.9 157.391 250.9 158.391 248.9L158.991 248.9" fill="#e50012" fill-rule="nonzero" opacity="1" stroke="none"/>
<path d="M177.591 246.7L176.191 240.8L171.591 246.7L177.591 246.7M167.791 251.6C167.391 252.2 167.091 252.5 167.091 252.8C167.091 253.5 167.891 253.6 168.691 253.7L168.491 254.2L160.691 254.2L160.891 253.7C162.091 253.5 162.491 253.3 163.391 252.2L176.891 235.3L180.791 235.3L184.491 251.6C184.891 253.2 185.291 253.5 186.691 253.7L186.591 254.2L176.991 254.2L177.091 253.7C177.891 253.6 178.891 253.4 178.891 252.3C178.891 252.1 178.891 252 178.891 251.8L178.291 249L169.891 249L167.791 251.6Z" fill="#e50012" fill-rule="nonzero" opacity="1" stroke="none"/>
<path d="M199.891 243.4L201.191 243.4C203.691 243.4 205.891 242.5 205.891 240.2C205.891 238.7 204.691 237.9 202.891 237.9L201.391 237.9L199.891 243.4M199.191 246.1L197.791 251.2C197.691 251.5 197.591 252.1 197.591 252.4C197.591 253.2 198.191 253.7 199.391 253.8L199.291 254.3L189.291 254.3L189.391 253.8C191.091 253.6 191.591 252.9 191.891 251.5L195.491 237.9C195.491 237.7 195.591 237.5 195.591 237.3C195.591 236.1 194.491 236 193.791 235.9L193.891 235.4L204.491 235.4C207.691 235.4 211.691 236.5 211.691 240.2C211.691 242.6 209.691 244.6 206.891 245.4L210.291 252.1C210.791 253.1 211.291 253.6 212.391 253.7L212.191 254.2L208.191 254.2C207.391 254.2 206.491 254.1 205.691 253.7C204.791 253.3 204.491 252.7 204.091 252.1L200.991 246L199.191 246L199.191 246.1Z" fill="#e50012" fill-rule="nonzero" opacity="1" stroke="none"/>
<path d="M224.191 250.3C224.191 250.5 224.091 250.6 224.091 250.7C224.091 251.5 224.891 251.7 226.091 251.7C227.891 251.7 230.791 251.2 232.891 249.7C234.891 248.2 236.191 245.6 236.191 243.3C236.191 242.5 236.091 240.5 234.091 239.1C232.491 238 230.691 237.9 229.091 237.9L227.591 237.9L224.191 250.3M221.591 237.9C221.591 237.7 221.691 237.5 221.691 237.3C221.691 236.2 220.891 236 219.991 235.9L220.091 235.4L230.891 235.4C233.191 235.4 236.291 235.4 238.791 236.9C241.291 238.3 242.291 240.6 242.291 243.1C242.291 246.5 240.491 249.8 237.591 251.8C234.291 254.1 230.891 254.3 228.191 254.3L215.391 254.3L215.491 253.8C217.191 253.6 217.591 252.9 217.991 251.5L221.591 237.9Z" fill="#e50012" fill-rule="nonzero" opacity="1" stroke="none"/>
<path d="M263.091 251.3C262.991 251.6 262.891 252 262.891 252.4C262.891 253.2 263.591 253.7 264.791 253.8L264.691 254.3L254.491 254.3L254.591 253.8C255.991 253.6 256.691 253.6 257.191 251.5L260.691 238.4C260.791 238.1 260.891 237.6 260.891 237.3C260.891 236.7 260.491 236.1 258.991 235.9L259.091 235.4L269.291 235.4L269.191 235.9C267.591 236 266.891 236.6 266.491 238.2L263.091 251.3" fill="#e50012" fill-rule="nonzero" opacity="1" stroke="none"/>
<path d="M284.291 254.2L282.091 254.2L278.791 241L274.591 251.6C274.491 251.9 274.391 252.2 274.391 252.4C274.391 253.4 275.391 253.6 276.091 253.7L275.991 254.2L268.591 254.2L268.691 253.7C270.191 253.5 270.691 253 271.191 251.8L276.591 238.2C276.691 237.9 276.791 237.6 276.791 237.3C276.791 236.1 275.491 236 274.991 235.9L275.091 235.4L283.191 235.4L285.891 247.3L295.291 235.4L303.091 235.4L302.991 235.9C300.891 236.2 300.791 237.2 300.691 237.9L298.891 251.3C298.891 251.6 298.791 252 298.791 252.4C298.791 253.2 299.491 253.7 300.491 253.8L300.391 254.3L290.691 254.3L290.791 253.8C292.591 253.5 292.991 252.8 293.191 251.3L294.691 240.9L284.291 254.2" fill="#e50012" fill-rule="nonzero" opacity="1" stroke="none"/>
<path d="M319.091 246.7L317.691 240.8L313.091 246.7L319.091 246.7M309.291 251.6C308.891 252.2 308.591 252.5 308.591 252.8C308.591 253.5 309.391 253.6 310.191 253.7L309.991 254.2L302.191 254.2L302.391 253.7C303.591 253.5 303.991 253.3 304.891 252.2L318.391 235.3L322.291 235.3L325.991 251.6C326.391 253.2 326.791 253.5 328.191 253.7L328.091 254.2L318.291 254.2L318.391 253.7C319.191 253.6 320.191 253.4 320.191 252.3C320.191 252.1 320.191 252 320.191 251.8L319.591 249L311.291 249L309.291 251.6Z" fill="#e50012" fill-rule="nonzero" opacity="1" stroke="none"/>
<path d="M356.391 246.5L356.291 247C354.791 247.2 354.291 247.8 353.891 249.3L352.791 253.4C351.191 254 348.691 254.8 343.491 254.8C341.191 254.8 334.391 254.8 331.991 249.8C331.491 248.8 331.291 247.6 331.291 246.5C331.291 242.4 333.691 239.4 336.291 237.7C339.491 235.7 343.591 235 347.691 235C351.891 235 355.091 235.7 356.391 236L355.191 240.5L354.691 240.5C354.591 239.5 354.191 238.7 352.591 238.1C351.391 237.6 349.891 237.5 348.491 237.5C342.091 237.5 337.691 241 337.691 246.4C337.691 247.5 337.791 250.1 340.991 251.5C342.291 252.1 343.791 252.2 344.691 252.2C346.391 252.2 347.191 251.9 347.691 251.7L348.391 249.4C348.491 249 348.591 248.7 348.591 248.4C348.591 247.8 348.091 247.2 346.691 247.1L346.791 246.6L356.391 246.6" fill="#e50012" fill-rule="nonzero" opacity="1" stroke="none"/>
<path d="M367.591 251.3C367.491 251.6 367.391 252 367.391 252.4C367.391 253.2 368.091 253.7 369.291 253.8L369.191 254.3L358.891 254.3L358.991 253.8C360.391 253.6 361.091 253.6 361.591 251.5L365.091 238.4C365.191 238.1 365.291 237.6 365.291 237.3C365.291 236.7 364.891 236.1 363.391 235.9L363.491 235.4L373.791 235.4L373.691 235.9C372.091 236 371.391 236.6 370.991 238.2L367.591 251.3" fill="#e50012" fill-rule="nonzero" opacity="1" stroke="none"/>
<path d="M380.191 238.2C380.291 237.9 380.391 237.5 380.391 237.2C380.391 236.4 379.691 236 378.591 235.9L378.691 235.4L385.791 235.4L395.291 248.2L397.891 238.3C397.991 237.9 398.091 237.5 398.091 237.2C398.091 236.4 397.491 235.9 396.291 235.9L396.391 235.4L403.791 235.4L403.691 235.9C402.191 236 401.591 236.7 401.191 238.1L396.891 254.3L393.291 254.3L382.991 240.3L379.991 251.7C379.991 251.9 379.891 252.1 379.891 252.3C379.891 253.5 380.991 253.6 381.691 253.7L381.591 254.2L374.191 254.2L374.291 253.7C375.991 253.5 376.391 252.8 376.791 251.4L380.191 238.2" fill="#e50012" fill-rule="nonzero" opacity="1" stroke="none"/>
<path d="M430.691 246.5L430.591 247C429.091 247.2 428.591 247.8 428.191 249.3L427.091 253.4C425.491 254 422.991 254.8 417.791 254.8C415.491 254.8 408.691 254.8 406.291 249.8C405.791 248.8 405.591 247.6 405.591 246.5C405.591 242.4 407.991 239.4 410.591 237.7C413.791 235.7 417.891 235 421.991 235C426.191 235 429.391 235.7 430.691 236L429.491 240.5L428.991 240.5C428.891 239.5 428.491 238.7 426.891 238.1C425.691 237.6 424.191 237.5 422.791 237.5C416.391 237.5 411.891 241 411.891 246.4C411.891 247.5 411.991 250.1 415.191 251.5C416.491 252.1 417.991 252.2 418.891 252.2C420.591 252.2 421.391 251.9 421.791 251.7L422.491 249.4C422.591 249 422.691 248.7 422.691 248.4C422.691 247.8 422.191 247.2 420.691 247.1L420.791 246.6L430.691 246.6" fill="#e50012" fill-rule="nonzero" opacity="1" stroke="none"/>
<path d="M457.491 254.2L455.291 254.2L451.991 241L447.791 251.6C447.691 251.9 447.591 252.2 447.591 252.4C447.591 253.4 448.591 253.6 449.291 253.7L449.191 254.2L441.791 254.2L441.891 253.7C443.391 253.5 443.891 253 444.391 251.8L449.791 238.2C449.891 237.9 449.991 237.6 449.991 237.3C449.991 236.1 448.791 236 448.291 235.9L448.391 235.4L456.491 235.4L459.191 247.3L468.591 235.4L476.391 235.4L476.291 235.9C474.191 236.2 474.091 237.2 473.991 237.9L472.191 251.3C472.191 251.6 472.091 252 472.091 252.4C472.091 253.2 472.791 253.7 473.791 253.8L473.691 254.3L463.991 254.3L464.091 253.8C465.891 253.5 466.291 252.8 466.491 251.3L467.991 240.9L457.491 254.2" fill="#e50012" fill-rule="nonzero" opacity="1" stroke="none"/>
<path d="M492.191 246.7L490.791 240.8L486.191 246.7L492.191 246.7M482.491 251.6C482.091 252.2 481.791 252.5 481.791 252.8C481.791 253.5 482.591 253.6 483.391 253.7L483.191 254.2L475.391 254.2L475.591 253.7C476.791 253.5 477.191 253.3 478.091 252.2L491.591 235.3L495.491 235.3L499.191 251.6C499.591 253.2 499.991 253.5 501.391 253.7L501.291 254.2L491.591 254.2L491.691 253.7C492.491 253.6 493.491 253.4 493.491 252.3C493.491 252.1 493.491 252 493.491 251.8L492.891 249L484.491 249L482.491 251.6Z" fill="#e50012" fill-rule="nonzero" opacity="1" stroke="none"/>
<path d="M523.591 240.5L522.991 240.5C522.991 240 522.991 239.4 522.291 238.7C521.191 237.6 519.491 237.5 518.491 237.5C515.191 237.5 514.391 239.3 514.391 240.3C514.391 241.6 515.591 242.3 516.991 242.9L518.191 243.5C519.791 244.4 522.291 245.8 522.291 248.5C522.291 249.4 521.991 250.3 521.491 251.2C519.191 254.7 514.391 254.7 512.691 254.7C508.791 254.7 506.091 254 504.391 253.6L505.691 248.9L506.391 248.9C506.391 249.5 506.391 250.1 507.191 250.8C507.991 251.6 509.691 252 511.191 252C513.891 252 515.891 250.7 515.891 248.9C515.891 247.4 514.391 246.6 513.291 246.1L512.091 245.5C510.591 244.7 508.291 243.5 508.291 240.9C508.291 240 508.591 239.1 509.191 238.2C510.591 236.1 513.191 234.9 517.591 234.9C520.491 234.9 522.991 235.4 524.791 236L523.591 240.5" fill="#e50012" fill-rule="nonzero" opacity="1" stroke="none"/>
<path d="M531.891 238.1C530.791 238.1 529.491 238.2 528.691 239.6L528.091 239.6L529.191 235.4L549.991 235.4L548.791 239.8L548.291 239.8C548.391 238.4 547.491 238.1 545.591 238.1L541.891 238.1L538.191 251.8C538.091 252 538.091 252.2 538.091 252.4C538.091 253.6 539.191 253.7 539.891 253.8L539.791 254.3L529.691 254.3L529.791 253.8C531.491 253.6 531.991 252.9 532.391 251.5L535.991 238.1L531.891 238.1" fill="#e50012" fill-rule="nonzero" opacity="1" stroke="none"/>
<path d="M567.491 254.2L549.291 254.2L549.391 253.7C551.091 253.5 551.491 252.8 551.891 251.4L555.491 238.2C555.591 237.9 555.691 237.5 555.691 237.2C555.691 236.4 555.191 235.9 553.991 235.8L554.091 235.3L570.791 235.3L569.591 239.7L568.991 239.7C568.991 239.5 568.991 239.5 568.991 239.3C568.991 239 568.891 238.7 568.691 238.5C568.191 237.9 567.291 237.9 566.691 237.9L561.691 237.9L560.291 242.8L564.391 242.8C565.391 242.8 566.691 242.8 567.491 241.3L568.091 241.3L566.491 247.3L565.891 247.3C565.891 247.1 565.891 247 565.891 246.9C565.891 245.6 564.391 245.5 563.591 245.5L559.491 245.5L558.191 250C558.191 250.2 558.091 250.4 558.091 250.6C558.091 251.1 558.391 251.4 559.591 251.4L564.891 251.4C566.691 251.4 567.391 251.1 567.991 249.9L568.591 249.9L567.491 254.2" fill="#e50012" fill-rule="nonzero" opacity="1" stroke="none"/>
<path d="M583.291 243.4L584.591 243.4C587.091 243.4 589.291 242.5 589.291 240.2C589.291 238.7 588.091 237.9 586.291 237.9L584.791 237.9L583.291 243.4M582.491 246.1L581.091 251.2C580.991 251.5 580.891 252.1 580.891 252.4C580.891 253.2 581.491 253.7 582.691 253.8L582.591 254.3L572.591 254.3L572.691 253.8C574.391 253.6 574.891 252.9 575.191 251.5L578.791 237.9C578.791 237.7 578.891 237.5 578.891 237.3C578.891 236.1 577.791 236 577.091 235.9L577.191 235.4L587.791 235.4C590.991 235.4 594.991 236.5 594.991 240.2C594.991 242.6 592.991 244.6 590.091 245.4L593.491 252.1C594.091 253.1 594.491 253.6 595.591 253.7L595.391 254.2L591.391 254.2C590.591 254.2 589.791 254.1 588.891 253.7C587.991 253.3 587.691 252.7 587.291 252.1L584.191 246L582.491 246L582.491 246.1Z" fill="#e50012" fill-rule="nonzero" opacity="1" stroke="none"/>
<path d="M158.991 249L157.691 253.5C155.491 254.4 152.591 254.7 150.191 254.7C148.791 254.7 147.291 254.6 145.891 254.3C142.191 253.4 138.991 251 138.991 246.5C138.991 239.9 144.591 234.9 154.291 234.9C157.791 234.9 160.791 235.6 162.391 235.9L161.191 240.4L160.491 240.4C160.491 240 160.491 239.4 159.991 238.8C159.191 237.9 157.591 237.4 155.391 237.4C149.391 237.4 145.291 241 145.291 245.9C145.291 249.6 148.191 251.9 152.291 251.9C155.091 251.9 157.391 250.9 158.391 248.9L158.991 248.9" fill="#e50012" fill-rule="nonzero" opacity="1" stroke="none"/>
<path d="M177.591 246.7L176.191 240.8L171.591 246.7L177.591 246.7M167.791 251.6C167.391 252.2 167.091 252.5 167.091 252.8C167.091 253.5 167.891 253.6 168.691 253.7L168.491 254.2L160.691 254.2L160.891 253.7C162.091 253.5 162.491 253.3 163.391 252.2L176.891 235.3L180.791 235.3L184.491 251.6C184.891 253.2 185.291 253.5 186.691 253.7L186.591 254.2L176.991 254.2L177.091 253.7C177.891 253.6 178.891 253.4 178.891 252.3C178.891 252.1 178.891 252 178.891 251.8L178.291 249L169.891 249L167.791 251.6Z" fill="#e50012" fill-rule="nonzero" opacity="1" stroke="none"/>
<path d="M199.891 243.4L201.191 243.4C203.691 243.4 205.891 242.5 205.891 240.2C205.891 238.7 204.691 237.9 202.891 237.9L201.391 237.9L199.891 243.4M199.191 246.1L197.791 251.2C197.691 251.5 197.591 252.1 197.591 252.4C197.591 253.2 198.191 253.7 199.391 253.8L199.291 254.3L189.291 254.3L189.391 253.8C191.091 253.6 191.591 252.9 191.891 251.5L195.491 237.9C195.491 237.7 195.591 237.5 195.591 237.3C195.591 236.1 194.491 236 193.791 235.9L193.891 235.4L204.491 235.4C207.691 235.4 211.691 236.5 211.691 240.2C211.691 242.6 209.691 244.6 206.891 245.4L210.291 252.1C210.791 253.1 211.291 253.6 212.391 253.7L212.191 254.2L208.191 254.2C207.391 254.2 206.491 254.1 205.691 253.7C204.791 253.3 204.491 252.7 204.091 252.1L200.991 246L199.191 246L199.191 246.1Z" fill="#e50012" fill-rule="nonzero" opacity="1" stroke="none"/>
<path d="M224.191 250.3C224.191 250.5 224.091 250.6 224.091 250.7C224.091 251.5 224.891 251.7 226.091 251.7C227.891 251.7 230.791 251.2 232.891 249.7C234.891 248.2 236.191 245.6 236.191 243.3C236.191 242.5 236.091 240.5 234.091 239.1C232.491 238 230.691 237.9 229.091 237.9L227.591 237.9L224.191 250.3M221.591 237.9C221.591 237.7 221.691 237.5 221.691 237.3C221.691 236.2 220.891 236 219.991 235.9L220.091 235.4L230.891 235.4C233.191 235.4 236.291 235.4 238.791 236.9C241.291 238.3 242.291 240.6 242.291 243.1C242.291 246.5 240.491 249.8 237.591 251.8C234.291 254.1 230.891 254.3 228.191 254.3L215.391 254.3L215.491 253.8C217.191 253.6 217.591 252.9 217.991 251.5L221.591 237.9Z" fill="#e50012" fill-rule="nonzero" opacity="1" stroke="none"/>
<path d="M263.091 251.3C262.991 251.6 262.891 252 262.891 252.4C262.891 253.2 263.591 253.7 264.791 253.8L264.691 254.3L254.491 254.3L254.591 253.8C255.991 253.6 256.691 253.6 257.191 251.5L260.691 238.4C260.791 238.1 260.891 237.6 260.891 237.3C260.891 236.7 260.491 236.1 258.991 235.9L259.091 235.4L269.291 235.4L269.191 235.9C267.591 236 266.891 236.6 266.491 238.2L263.091 251.3" fill="#e50012" fill-rule="nonzero" opacity="1" stroke="none"/>
<path d="M284.291 254.2L282.091 254.2L278.791 241L274.591 251.6C274.491 251.9 274.391 252.2 274.391 252.4C274.391 253.4 275.391 253.6 276.091 253.7L275.991 254.2L268.591 254.2L268.691 253.7C270.191 253.5 270.691 253 271.191 251.8L276.591 238.2C276.691 237.9 276.791 237.6 276.791 237.3C276.791 236.1 275.491 236 274.991 235.9L275.091 235.4L283.191 235.4L285.891 247.3L295.291 235.4L303.091 235.4L302.991 235.9C300.891 236.2 300.791 237.2 300.691 237.9L298.891 251.3C298.891 251.6 298.791 252 298.791 252.4C298.791 253.2 299.491 253.7 300.491 253.8L300.391 254.3L290.691 254.3L290.791 253.8C292.591 253.5 292.991 252.8 293.191 251.3L294.691 240.9L284.291 254.2" fill="#e50012" fill-rule="nonzero" opacity="1" stroke="none"/>
<path d="M319.091 246.7L317.691 240.8L313.091 246.7L319.091 246.7M309.291 251.6C308.891 252.2 308.591 252.5 308.591 252.8C308.591 253.5 309.391 253.6 310.191 253.7L309.991 254.2L302.191 254.2L302.391 253.7C303.591 253.5 303.991 253.3 304.891 252.2L318.391 235.3L322.291 235.3L325.991 251.6C326.391 253.2 326.791 253.5 328.191 253.7L328.091 254.2L318.291 254.2L318.391 253.7C319.191 253.6 320.191 253.4 320.191 252.3C320.191 252.1 320.191 252 320.191 251.8L319.591 249L311.291 249L309.291 251.6Z" fill="#e50012" fill-rule="nonzero" opacity="1" stroke="none"/>
<path d="M356.391 246.5L356.291 247C354.791 247.2 354.291 247.8 353.891 249.3L352.791 253.4C351.191 254 348.691 254.8 343.491 254.8C341.191 254.8 334.391 254.8 331.991 249.8C331.491 248.8 331.291 247.6 331.291 246.5C331.291 242.4 333.691 239.4 336.291 237.7C339.491 235.7 343.591 235 347.691 235C351.891 235 355.091 235.7 356.391 236L355.191 240.5L354.691 240.5C354.591 239.5 354.191 238.7 352.591 238.1C351.391 237.6 349.891 237.5 348.491 237.5C342.091 237.5 337.691 241 337.691 246.4C337.691 247.5 337.791 250.1 340.991 251.5C342.291 252.1 343.791 252.2 344.691 252.2C346.391 252.2 347.191 251.9 347.691 251.7L348.391 249.4C348.491 249 348.591 248.7 348.591 248.4C348.591 247.8 348.091 247.2 346.691 247.1L346.791 246.6L356.391 246.6" fill="#e50012" fill-rule="nonzero" opacity="1" stroke="none"/>
<path d="M367.591 251.3C367.491 251.6 367.391 252 367.391 252.4C367.391 253.2 368.091 253.7 369.291 253.8L369.191 254.3L358.891 254.3L358.991 253.8C360.391 253.6 361.091 253.6 361.591 251.5L365.091 238.4C365.191 238.1 365.291 237.6 365.291 237.3C365.291 236.7 364.891 236.1 363.391 235.9L363.491 235.4L373.791 235.4L373.691 235.9C372.091 236 371.391 236.6 370.991 238.2L367.591 251.3" fill="#e50012" fill-rule="nonzero" opacity="1" stroke="none"/>
<path d="M380.191 238.2C380.291 237.9 380.391 237.5 380.391 237.2C380.391 236.4 379.691 236 378.591 235.9L378.691 235.4L385.791 235.4L395.291 248.2L397.891 238.3C397.991 237.9 398.091 237.5 398.091 237.2C398.091 236.4 397.491 235.9 396.291 235.9L396.391 235.4L403.791 235.4L403.691 235.9C402.191 236 401.591 236.7 401.191 238.1L396.891 254.3L393.291 254.3L382.991 240.3L379.991 251.7C379.991 251.9 379.891 252.1 379.891 252.3C379.891 253.5 380.991 253.6 381.691 253.7L381.591 254.2L374.191 254.2L374.291 253.7C375.991 253.5 376.391 252.8 376.791 251.4L380.191 238.2" fill="#e50012" fill-rule="nonzero" opacity="1" stroke="none"/>
<path d="M430.691 246.5L430.591 247C429.091 247.2 428.591 247.8 428.191 249.3L427.091 253.4C425.491 254 422.991 254.8 417.791 254.8C415.491 254.8 408.691 254.8 406.291 249.8C405.791 248.8 405.591 247.6 405.591 246.5C405.591 242.4 407.991 239.4 410.591 237.7C413.791 235.7 417.891 235 421.991 235C426.191 235 429.391 235.7 430.691 236L429.491 240.5L428.991 240.5C428.891 239.5 428.491 238.7 426.891 238.1C425.691 237.6 424.191 237.5 422.791 237.5C416.391 237.5 411.891 241 411.891 246.4C411.891 247.5 411.991 250.1 415.191 251.5C416.491 252.1 417.991 252.2 418.891 252.2C420.591 252.2 421.391 251.9 421.791 251.7L422.491 249.4C422.591 249 422.691 248.7 422.691 248.4C422.691 247.8 422.191 247.2 420.691 247.1L420.791 246.6L430.691 246.6" fill="#e50012" fill-rule="nonzero" opacity="1" stroke="none"/>
<path d="M457.491 254.2L455.291 254.2L451.991 241L447.791 251.6C447.691 251.9 447.591 252.2 447.591 252.4C447.591 253.4 448.591 253.6 449.291 253.7L449.191 254.2L441.791 254.2L441.891 253.7C443.391 253.5 443.891 253 444.391 251.8L449.791 238.2C449.891 237.9 449.991 237.6 449.991 237.3C449.991 236.1 448.791 236 448.291 235.9L448.391 235.4L456.491 235.4L459.191 247.3L468.591 235.4L476.391 235.4L476.291 235.9C474.191 236.2 474.091 237.2 473.991 237.9L472.191 251.3C472.191 251.6 472.091 252 472.091 252.4C472.091 253.2 472.791 253.7 473.791 253.8L473.691 254.3L463.991 254.3L464.091 253.8C465.891 253.5 466.291 252.8 466.491 251.3L467.991 240.9L457.491 254.2" fill="#e50012" fill-rule="nonzero" opacity="1" stroke="none"/>
<path d="M492.191 246.7L490.791 240.8L486.191 246.7L492.191 246.7M482.491 251.6C482.091 252.2 481.791 252.5 481.791 252.8C481.791 253.5 482.591 253.6 483.391 253.7L483.191 254.2L475.391 254.2L475.591 253.7C476.791 253.5 477.191 253.3 478.091 252.2L491.591 235.3L495.491 235.3L499.191 251.6C499.591 253.2 499.991 253.5 501.391 253.7L501.291 254.2L491.591 254.2L491.691 253.7C492.491 253.6 493.491 253.4 493.491 252.3C493.491 252.1 493.491 252 493.491 251.8L492.891 249L484.491 249L482.491 251.6Z" fill="#e50012" fill-rule="nonzero" opacity="1" stroke="none"/>
<path d="M523.591 240.5L522.991 240.5C522.991 240 522.991 239.4 522.291 238.7C521.191 237.6 519.491 237.5 518.491 237.5C515.191 237.5 514.391 239.3 514.391 240.3C514.391 241.6 515.591 242.3 516.991 242.9L518.191 243.5C519.791 244.4 522.291 245.8 522.291 248.5C522.291 249.4 521.991 250.3 521.491 251.2C519.191 254.7 514.391 254.7 512.691 254.7C508.791 254.7 506.091 254 504.391 253.6L505.691 248.9L506.391 248.9C506.391 249.5 506.391 250.1 507.191 250.8C507.991 251.6 509.691 252 511.191 252C513.891 252 515.891 250.7 515.891 248.9C515.891 247.4 514.391 246.6 513.291 246.1L512.091 245.5C510.591 244.7 508.291 243.5 508.291 240.9C508.291 240 508.591 239.1 509.191 238.2C510.591 236.1 513.191 234.9 517.591 234.9C520.491 234.9 522.991 235.4 524.791 236L523.591 240.5" fill="#e50012" fill-rule="nonzero" opacity="1" stroke="none"/>
<path d="M531.891 238.1C530.791 238.1 529.491 238.2 528.691 239.6L528.091 239.6L529.191 235.4L549.991 235.4L548.791 239.8L548.291 239.8C548.391 238.4 547.491 238.1 545.591 238.1L541.891 238.1L538.191 251.8C538.091 252 538.091 252.2 538.091 252.4C538.091 253.6 539.191 253.7 539.891 253.8L539.791 254.3L529.691 254.3L529.791 253.8C531.491 253.6 531.991 252.9 532.391 251.5L535.991 238.1L531.891 238.1" fill="#e50012" fill-rule="nonzero" opacity="1" stroke="none"/>
<path d="M567.491 254.2L549.291 254.2L549.391 253.7C551.091 253.5 551.491 252.8 551.891 251.4L555.491 238.2C555.591 237.9 555.691 237.5 555.691 237.2C555.691 236.4 555.191 235.9 553.991 235.8L554.091 235.3L570.791 235.3L569.591 239.7L568.991 239.7C568.991 239.5 568.991 239.5 568.991 239.3C568.991 239 568.891 238.7 568.691 238.5C568.191 237.9 567.291 237.9 566.691 237.9L561.691 237.9L560.291 242.8L564.391 242.8C565.391 242.8 566.691 242.8 567.491 241.3L568.091 241.3L566.491 247.3L565.891 247.3C565.891 247.1 565.891 247 565.891 246.9C565.891 245.6 564.391 245.5 563.591 245.5L559.491 245.5L558.191 250C558.191 250.2 558.091 250.4 558.091 250.6C558.091 251.1 558.391 251.4 559.591 251.4L564.891 251.4C566.691 251.4 567.391 251.1 567.991 249.9L568.591 249.9L567.491 254.2" fill="#e50012" fill-rule="nonzero" opacity="1" stroke="none"/>
<path d="M583.291 243.4L584.591 243.4C587.091 243.4 589.291 242.5 589.291 240.2C589.291 238.7 588.091 237.9 586.291 237.9L584.791 237.9L583.291 243.4M582.491 246.1L581.091 251.2C580.991 251.5 580.891 252.1 580.891 252.4C580.891 253.2 581.491 253.7 582.691 253.8L582.591 254.3L572.591 254.3L572.691 253.8C574.391 253.6 574.891 252.9 575.191 251.5L578.791 237.9C578.791 237.7 578.891 237.5 578.891 237.3C578.891 236.1 577.791 236 577.091 235.9L577.191 235.4L587.791 235.4C590.991 235.4 594.991 236.5 594.991 240.2C594.991 242.6 592.991 244.6 590.091 245.4L593.491 252.1C594.091 253.1 594.491 253.6 595.591 253.7L595.391 254.2L591.391 254.2C590.591 254.2 589.791 254.1 588.891 253.7C587.991 253.3 587.691 252.7 587.291 252.1L584.191 246L582.491 246L582.491 246.1Z" fill="#e50012" fill-rule="nonzero" opacity="1" stroke="none"/>
<path d="M71.091 182.1C39.491 168.3-3.20896 141.5 0.191041 104.3C3.99104 68.5 46.091 45.6 77.191 32C120.391 14.2 168.491 4.79999 216.291 0C170.191 8.39999 124.091 22.1 86.491 52.2C70.591 66.2 57.991 84.3 64.491 104.3C76.891 134.6 112.091 150.3 140.691 162.6C218.991 192.1 298.791 201 388.791 195.8C452.591 192.1 523.991 187.9 585.091 165C590.091 162.8 595.291 160.8 599.991 158C550.591 191.1 491.491 205.8 430.891 215.6C367.291 225.6 284.291 226.4 219.991 218.4C168.391 213 117.191 202.2 71.091 182.1" fill="#e50012" fill-rule="nonzero" opacity="1" stroke="none"/>
<path d="M258.191 51.3C273.491 52.5 289.091 52.4 300.691 62.6C306.891 69.5 307.291 78.9 307.191 88.4L266.191 88.4C266.491 84.4 265.291 80.4 261.591 78.8C258.091 76.6 253.391 77.1 249.391 76.4L194.391 76.6C187.991 77.5 181.191 78.8 177.291 84.8C172.991 93 175.491 104.5 175.091 114.1C175.891 118.4 177.491 122.8 181.891 125C185.791 127.4 190.891 127.3 195.591 127.9L254.391 127.7C259.391 127.1 265.691 125.9 267.191 120L267.891 114L308.891 114.2C310.091 127.4 308.791 141 296.091 147C287.091 151.3 276.791 152.6 266.291 153.2L177.491 153C160.791 151.4 141.391 149 134.591 131C130.691 115.9 132.991 98 132.691 81.6C133.691 73 137.391 64.6 145.391 59.7C156.791 52.9 170.591 51.6 184.691 51.1L258.191 51.3" fill="#e50012" fill-rule="nonzero" opacity="1" stroke="none"/>
<path d="M320.191 52.3L361.191 52.3L361.191 52.3L361.191 152.3L361.191 152.3L320.191 152.3L320.191 152.3L320.191 52.3L320.191 52.3Z" fill="#e50012" fill-rule="nonzero" opacity="1" stroke="none"/>
<path d="M485.991 116.6L488.191 114.2L532.791 52.7L533.291 52.3L596.791 52.3L596.791 152L556.891 152.3L556.891 80.5L556.391 80L501.591 152L470.591 152.3L416.391 80.5L415.891 80L415.391 80.5L415.391 152.3L375.391 152.3L375.391 52.3L438.991 52.3L485.991 116.6Z" fill="#e50012" fill-rule="nonzero" opacity="1" stroke="none"/>
</g>
</svg>
