<?xml version="1.0" encoding="UTF-8" standalone="no"?>
<svg
   xmlns:dc="http://purl.org/dc/elements/1.1/"
   xmlns:cc="http://creativecommons.org/ns#"
   xmlns:rdf="http://www.w3.org/1999/02/22-rdf-syntax-ns#"
   xmlns:svg="http://www.w3.org/2000/svg"
   xmlns="http://www.w3.org/2000/svg"
   viewBox="0 0 498.66666 164"
   height="164"
   width="498.66666"
   xml:space="preserve"
   id="svg2"
   version="1.1"><metadata
     id="metadata8"><rdf:RDF><cc:Work
         rdf:about=""><dc:format>image/svg+xml</dc:format><dc:type
           rdf:resource="http://purl.org/dc/dcmitype/StillImage" /></cc:Work></rdf:RDF></metadata><defs
     id="defs6" /><g
     transform="matrix(1.3333333,0,0,-1.3333333,0,164)"
     id="g10"><g
       transform="scale(0.1)"
       id="g12"><path
         id="path14"
         style="fill:#ed1c24;fill-opacity:1;fill-rule:evenodd;stroke:none"
         d="M 957.422,122.734 932.285,97.1992 c 7.848,4.7148 16.492,10.2068 25.137,16.4958 69.168,48.735 147.368,128.508 180.368,194.125 z M 786.887,65.7656 740.516,18.6094 c 15.332,3.5312 31.043,7.0664 46.371,12.1797 1.562,0.3984 3.14,0.7734 4.715,1.5742 L 957.422,184.43 1175.9,385.617 c 14.94,36.153 25.93,74.27 33.8,113.574 L 957.422,240.621 Z M 957.422,291.707 1214.81,532.191 c 3.93,26.727 5.51,53.84 5.51,81.348 0,4.316 0,8.645 0,12.582 L 957.422,353.398 786.887,176.184 681.582,66.9375 621.457,4.85156 c 10.211,0 20.043,0.39844 29.863,1.17969 L 681.582,33.9375 786.887,132.563 Z M 575.875,75.1875 515.348,12.3203 c 6.687,-1.1836 13.375,-2.35155 20.043,-3.13671 l 40.484,37.71481 105.707,98.6366 105.305,98.238 170.535,159.137 262.098,244.813 c -1.58,29.082 -5.11,57.769 -11,85.664 L 957.422,472.086 786.887,294.465 681.582,185.223 Z m 0,124.5705 -90.398,-92.731 -68.747,-70.3551 c 4.704,-1.5547 9.036,-3.1328 13.754,-4.7071 l 54.993,50.6875 90.398,82.9107 105.707,97.457 105.305,97.066 170.535,157.176 248.348,229.093 c -5.89,25.938 -13.36,51.469 -22.4,76.227 L 957.422,590.746 786.887,415.879 681.582,307.816 Z M 485.477,225.297 335,71.2695 c 3.527,-1.9765 7.063,-3.5507 10.602,-5.5039 l 139.875,128.4844 90.398,83.305 105.707,97.062 105.305,97.063 170.535,157.175 222.018,204.352 c -9.42,24.352 -20.43,47.531 -32.61,70.324 L 957.422,709.035 786.887,534.547 681.582,426.48 575.875,318.043 Z m 0,524.996 L 320.844,598.605 281.934,562.852 207.285,494.082 58.7383,357.73 c -1.5547,3.532 -3.1328,7.465 -4.711,11 l 153.2577,156.79 74.649,76.621 38.91,39.691 164.633,168.57 90.398,92.735 105.707,108.453 105.305,107.67 55.801,57.38 c 23.96,-9.83 47.156,-21.23 69.152,-33.8 L 786.887,1027.71 681.582,930.641 575.875,833.582 Z M 320.844,525.52 l 164.633,168.578 90.398,92.351 105.707,108.442 105.305,107.659 132.426,135.97 c 12.972,-7.86 25.531,-16.11 38.109,-24.75 8.258,-5.51 16.508,-11.8 24.754,-17.68 L 957.422,1073.28 786.887,916.508 681.582,819.453 575.875,722.383 485.477,639.074 320.844,487.789 281.934,452.035 207.285,383.266 99.6055,284.637 c -1.9532,2.742 -3.9336,5.496 -5.4883,8.648 l 113.1678,115.914 74.649,76.235 z M 281.934,673.656 207.285,604.898 27.6953,439.859 c -1.5586,4.707 -2.7539,9.426 -3.9297,14.532 l 183.5194,187.836 74.649,76.625 38.91,39.683 164.633,168.977 90.398,92.338 105.707,108.45 74.648,76.63 c 10.219,-2.76 20.438,-5.5 30.657,-8.65 15.316,-4.32 30.644,-9.82 45.98,-15.32 L 786.887,1138.52 681.582,1041.46 575.875,944.395 485.477,861.09 320.844,709.41 Z m 38.91,147.746 -38.91,-35.754 L 207.285,716.895 7.67188,533.766 c -0.77735,6.668 -1.57813,13.359 -2.35547,20.047 l 201.96859,206.683 74.649,76.637 38.91,39.687 164.633,168.57 90.398,92.74 80.934,82.91 c 8.265,-0.78 16.507,-1.56 24.773,-2.75 20.422,-2.36 40.469,-5.5 60.109,-9.83 l -60.109,-55.4 -105.707,-97.07 -90.398,-83.299 z m -38.91,-480.578 -74.649,-68.379 -58.547,-53.82 c -1.976,2.352 -4.336,4.711 -6.293,7.063 l 64.84,66.417 74.649,76.231 38.91,40.082 164.633,168.57 90.398,92.348 105.707,108.445 105.305,107.684 170.535,174.865 30.262,31.04 c 19.646,-15.33 38.116,-31.84 55.796,-49.51 L 957.422,962.48 786.887,805.691 681.582,708.629 575.875,611.563 485.477,528.258 320.844,376.996 Z M 681.582,660.301 575.875,552.234 485.477,459.504 320.844,290.531 l -38.91,-39.691 -82.7,-84.856 7.02,-6.464 75.68,69.707 38.91,35.75 164.633,151.304 90.398,83.289 105.707,97.063 105.305,96.664 170.535,156.793 140.278,129.285 c -15.31,20.043 -31.82,39.285 -49.11,57.375 L 957.422,943.223 786.887,768.359 Z M 575.875,388.766 485.477,305.461 320.844,154.176 l -38.91,-36.149 -10.602,-9.441 c -2.758,1.973 -5.508,3.934 -8.246,5.906 l 18.848,19.246 38.91,39.688 164.633,168.57 90.398,92.75 105.707,108.063 105.305,107.668 170.535,174.859 144.618,148.148 c 14.93,-20.043 28.28,-40.863 40.46,-62.882 L 957.422,740.066 786.887,582.879 681.582,486.215 Z m 0,778.044 60.113,55.4 c -8.246,0.4 -16.89,0.4 -25.535,0.4 -11.801,0 -23.18,-0.4 -34.578,-1.18 -11.797,-0.39 -23.578,-1.57 -34.973,-2.75 L 485.477,1161.7 320.844,993.133 281.934,953.043 207.285,876.422 4.91406,669.336 C 4.14063,659.516 3.35938,649.301 2.96094,639.473 l 204.32406,187.84 74.649,68.753 38.91,35.754 164.633,151.68 z m -293.941,-41.64 c -28.274,-18.48 -52.25,-36.56 -74.649,-56.2 -32.621,-29.08 -61.699,-61.7 -93.125,-104.134 l 93.125,86.054 74.649,68.77 18.484,17.29 c -6.688,-4.32 -12.578,-8.25 -18.484,-11.78 z m 203.543,69.53 20.445,18.87 c -7.067,-1.56 -13.754,-2.74 -20.445,-4.31 -33.391,-7.09 -65.997,-17.69 -96.657,-29.47 l -67.976,-69.56 -38.91,-40.08 L 207.285,993.91 39.0977,822.199 C 32.8086,804.516 27.3125,786.832 22.2031,768.758 l 185.0819,170.148 74.649,68.364 38.91,35.77 z m -57.473,-191.43 c 168.75,-263.434 293.582,-332.637 293.582,-494.313 0,-161.68 -131.859,-293.531 -293.539,-293.531 -161.668,0 -293.527,131.851 -293.527,293.531 0,161.676 121.894,230.879 293.484,494.313" /><path
         id="path16"
         style="fill:#231f20;fill-opacity:1;fill-rule:nonzero;stroke:none"
         d="M 1952.16,857.258 V 995.395 H 1332.48 V 428.012 h 626.7 V 565.371 H 1505.74 V 652 h 420.66 v 119.406 h -420.66 v 85.852 z m 643.86,-429.246 c 125.66,0 181.85,44.484 181.85,153.746 0,81.168 -31.22,123.312 -103.02,135.019 56.97,21.852 83.51,59.313 83.51,120.192 0,106.918 -61.66,158.426 -188.87,158.426 H 2058.3 V 428.012 Z m -60.09,346.519 h -304.38 v 93.653 h 304.38 c 26.53,0 44.48,-18.735 44.48,-46.829 0,-30.437 -15.6,-46.824 -44.48,-46.824 z m 15.61,-217.746 h -319.99 v 102.238 h 319.99 c 28.87,0 47.6,-19.511 47.6,-49.949 0,-33.562 -17.16,-52.289 -47.6,-52.289 z m 320.76,60.094 c -1.56,-23.414 -2.34,-39.024 -2.34,-45.266 0,-124.093 62.43,-150.754 238.04,-150.754 h 231.01 c 82.73,0 140.48,4.68 175.6,27.442 50.73,32.777 64,74.926 64,146.726 0,132.676 -46.83,181.063 -177.16,184.184 l -284.87,7.023 c -47.61,1.563 -67.9,11.707 -67.9,46.829 0,39.8 28.1,44.484 81.95,44.484 h 199.8 c 38.24,0 56.96,-18.731 56.96,-56.192 v -2.335 h 167.02 c 0.78,10.921 1.57,21.847 1.57,31.214 0,109.262 -56.2,152.186 -184.97,152.186 h -264.57 c -91.31,0 -153.75,-3.904 -195.12,-43.705 -28.87,-28.875 -39.8,-71.024 -39.8,-132.676 0,-130.336 42.15,-165.457 174.04,-169.355 l 272.38,-8.586 c 56.19,-1.563 83.51,-7.805 83.51,-49.172 0,-34.336 -17.95,-46.824 -59.32,-46.824 h -217.74 c -60.1,0 -81.17,7.808 -81.17,54.632 v 10.145 H 2872.3" /><path
         id="path18"
         style="fill:#231f20;fill-opacity:1;fill-rule:nonzero;stroke:none"
         d="m 1357.07,228.137 v 156.527 h -19.33 V 228.137 Z m 37.81,0 h 17.39 v 66.093 c 0,22.18 15.47,29.715 51.12,29.715 21.49,0 35.23,-2.582 41.24,-6.886 6.66,-4.739 7.31,-11.414 7.31,-21.536 v -67.386 h 17.4 v 72.125 c 0,30.789 -17.4,40.051 -61,40.051 -29.86,0 -47.26,-5.383 -56.07,-21.961 v 20.453 h -17.39 z m 188.37,156.527 h -17.4 V 228.137 h 17.4 v 53.39 h 10.95 l 75.61,-53.39 h 26.85 l -87.21,62.222 73.68,48.446 h -27.28 l -61.22,-40.481 h -11.38 z m 126.94,-108.086 h 59.71 v 15.719 h -59.71 z m 86.77,8.613 V 271.41 c 0,-13.777 0.22,-24.976 9.88,-34.664 9.67,-9.941 21.91,-10.586 39.96,-10.586 h 45.32 c 33.94,0 47.04,10.367 47.04,42.02 v 116.484 h -19.34 V 279.379 c 0,-14.215 -0.42,-23.684 -6.01,-29.066 -5.15,-4.739 -16.75,-6.458 -35.44,-6.458 h -33.5 c -23.42,0 -28.57,6.668 -28.57,27.555 v 13.781 z m 192.03,10.332 c 0,22.18 11.38,28.637 37.58,28.637 h 27.29 c 26.84,0 37.59,-4.09 37.59,-26.051 v -2.586 z m 65.3,44.79 h -27.5 c -40.17,0 -55.41,-13.782 -55.41,-48.235 v -17.652 c 0,-34.02 15.46,-47.836 55.41,-47.836 h 33.08 c 33.08,0 50.05,11.449 50.05,32.547 v 2.801 h -18.26 v -1.075 c 0,-12.918 -11.6,-18.734 -35.87,-18.734 h -28.78 c -28.79,0 -38.02,8.613 -38.02,31.434 v 6.027 h 120.71 c 0.22,3.019 0.22,5.812 0.22,8.613 0,39.402 -14.83,52.11 -55.63,52.11 z m 109.75,-1.508 v 25.402 h -16.97 v -25.402 h -23.62 v -14.86 h 23.62 v -57.058 c 0,-12.485 0.22,-21.742 7.95,-29.278 8.16,-8.183 20.19,-11.019 37.37,-11.019 35.23,0 47.9,9.508 47.9,37.93 v 14.21 h -15.25 v -14.21 c 0,-17.223 -4.08,-22.391 -28.57,-22.391 -22.98,0 -32.64,1.937 -32.64,23.684 v 58.132 h 72.81 v 14.86 z m 201.48,-59.645 c -0.22,-4.519 -0.43,-8.394 -0.43,-11.84 0,-30.14 17.39,-41.16 58.2,-41.16 h 53.06 c 47.03,0 64.44,10.801 64.44,46.762 0,19.375 -3.01,31 -14.83,38.105 -9.02,5.383 -22.98,6.243 -42.53,6.243 h -56.06 c -30.07,0 -42.53,3.449 -42.53,26.484 0,21.101 10.53,26.055 41.25,26.055 h 53.27 c 28.99,0 38.66,-3.661 38.66,-26.27 v -2.367 h 18.68 v 4.523 c 0,14.422 -3,24.543 -10.52,31 -11.17,9.258 -30.07,9.91 -58.86,9.91 h -35.43 c -47.26,0 -67.23,-8.835 -67.23,-43.71 0,-32.301 15.89,-43.063 56.48,-43.063 h 65.95 c 24.48,0 34.36,-3.66 34.36,-25.836 0,-26.269 -13.1,-30.359 -51.12,-30.359 h -40.81 c -32.22,0 -45.75,4.949 -45.75,26.265 0,2.157 0.21,5.168 0.43,9.258 z m 248.72,-51.062 h 5.16 c -7.09,-19.379 -17.19,-23.469 -38.24,-23.469 -0.64,0 -2.79,0 -6.44,0.219 v -15.723 c 3.44,0 7.52,-0.211 12.03,-0.211 30.93,0 39.52,12.918 52.62,39.184 l 54.56,110.707 h -19.55 l -47.9,-95.813 -52.62,95.813 h -19.55 z m 143.7,49.125 h 45.32 c 17.39,0 22.33,-4.09 22.33,-16.149 0,-15.715 -3.64,-18.082 -22.55,-18.082 h -49.4 c -21.26,0 -28.14,1.938 -28.14,21.317 v 1.937 h -15.89 c 0.43,-30.148 11.81,-39.875 40.16,-39.875 h 44.47 c 33.5,0 49.4,5.637 49.4,29.106 0,12.273 0,20.886 -7.52,28.421 -7.73,7.965 -20.41,8.399 -40.16,8.399 l -30.08,-0.219 c -29.64,0 -38.44,1.078 -38.44,16.149 0,14.644 8.37,15.718 38.44,15.718 h 17.18 c 27.71,0 39.53,-1.722 39.53,-13.351 v -4.52 h 16.75 v 7.321 c 0,19.164 -16.32,26.699 -50.05,26.699 h -31.35 c -34.8,0 -47.9,-8.18 -47.9,-31.867 0,-26.911 11.38,-31.004 47.9,-31.004 z m 146.7,61.582 v 25.402 h -16.97 v -25.402 h -23.63 v -14.86 h 23.63 v -57.058 c 0,-12.485 0.22,-21.742 7.95,-29.278 8.16,-8.183 20.19,-11.019 37.37,-11.019 35.22,0 47.9,9.508 47.9,37.93 v 14.21 h -15.25 v -14.21 c 0,-17.223 -4.08,-22.391 -28.57,-22.391 -22.98,0 -32.65,1.937 -32.65,23.684 v 58.132 h 72.82 v 14.86 z m 114.91,-43.282 c 0,22.18 11.39,28.637 37.59,28.637 h 27.28 c 26.85,0 37.59,-4.09 37.59,-26.051 v -2.586 z m 65.3,44.79 h -27.49 c -40.17,0 -55.42,-13.782 -55.42,-48.235 v -17.652 c 0,-34.02 15.47,-47.836 55.42,-47.836 h 33.07 c 33.08,0 50.05,11.449 50.05,32.547 v 2.801 h -18.26 v -1.075 c 0,-12.918 -11.59,-18.734 -35.87,-18.734 h -28.78 c -28.78,0 -38.02,8.613 -38.02,31.434 v 6.027 h 120.72 c 0.21,3.019 0.21,5.812 0.21,8.613 0,39.402 -14.82,52.11 -55.63,52.11 z m 102.02,-112.176 v 67.176 c 0,21.097 14.4,28.847 47.9,28.847 34.37,0 41.89,-5.808 41.89,-27.125 v -68.898 h 16.75 v 68.679 c 0,19.813 13.75,26.914 43.82,26.914 18.47,0 30.71,-2.582 36.3,-6.46 6.44,-4.52 7.08,-11.407 7.08,-21.747 v -67.386 h 16.12 v 72.125 c 0,29.929 -17.4,40.261 -60.36,40.261 -25.13,0 -41.03,-6.242 -48.33,-20.453 -7.09,16.578 -22.99,20.243 -51.77,20.243 -26.84,0 -42.52,-2.801 -49.61,-15.504 v 13.996 h -16.97 V 228.137 Z m 257.75,67.386 c 0,22.18 11.38,28.637 37.59,28.637 h 27.28 c 26.85,0 37.59,-4.09 37.59,-26.051 v -2.586 z m 65.3,44.79 h -27.49 c -40.17,0 -55.42,-13.782 -55.42,-48.235 v -17.652 c 0,-34.02 15.46,-47.836 55.42,-47.836 h 33.07 c 33.08,0 50.05,11.449 50.05,32.547 v 2.801 h -18.26 v -1.075 c 0,-12.918 -11.6,-18.734 -35.87,-18.734 h -28.78 c -28.78,0 -38.02,8.613 -38.02,31.434 v 6.027 h 120.71 c 0.22,3.019 0.22,5.812 0.22,8.613 0,39.402 -14.82,52.11 -55.63,52.11" /><path
         id="path20"
         style="fill:#231f20;fill-opacity:1;fill-rule:nonzero;stroke:none"
         d="m 3738.43,929.016 c 0,-13.141 -3.23,-25.258 -9.69,-36.45 -6.45,-11.191 -15.38,-20.078 -26.72,-26.664 -11.36,-6.621 -23.57,-9.945 -36.71,-10.007 -13.11,-0.063 -25.29,3.23 -36.51,9.878 -11.26,6.653 -20.12,15.735 -26.6,27.211 -6.63,11.668 -9.88,24.332 -9.76,37.954 0.1,12.785 3.45,24.777 10.08,35.906 6.61,11.156 15.5,19.883 26.63,26.179 11.12,6.301 23.18,9.467 36.16,9.467 13.14,0 25.29,-3.197 36.48,-9.592 11.22,-6.363 20.14,-15.187 26.73,-26.472 6.62,-11.254 9.91,-23.758 9.91,-37.41 z m -13.81,0 c 0,10.808 -2.56,20.75 -7.67,29.832 -5.15,9.238 -12.35,16.527 -21.62,21.902 -9.08,5.273 -19.09,7.926 -30.02,7.926 -10.77,0 -20.72,-2.653 -29.9,-7.988 -9.17,-5.313 -16.4,-12.665 -21.71,-22 -5.37,-9.43 -7.99,-19.473 -7.86,-30.055 0.12,-10.582 2.84,-20.496 8.12,-29.703 5.31,-9.207 12.53,-16.403 21.71,-21.551 9.02,-5.051 18.9,-7.609 29.64,-7.672 16.14,-0.094 30.08,5.629 41.76,17.137 11.7,11.543 17.55,25.578 17.55,42.172 z m -20.56,14.547 c -0.22,-7.543 -2.33,-12.754 -6.36,-15.665 -3.77,-2.75 -8.8,-4.347 -15.09,-4.828 l 19.15,-33.761 h -18.03 l -17.65,33.761 h -15.7 v -33.761 h -15.35 v 79.035 h 38.37 c 11.31,0 19.28,-1.918 23.82,-5.758 4.83,-4.09 7.1,-10.422 6.84,-19.023 z m -15.31,2.75 c 0.06,3.933 -1.38,6.652 -4.35,8.218 -2.95,1.535 -7.65,2.301 -14.07,2.301 h -19.95 v -22.605 h 20.71 c 7.68,0 12.7,1.281 15.04,3.839 1.69,1.821 2.55,4.571 2.62,8.247" /></g></g></svg>