<?xml version="1.0" encoding="UTF-8"?> <!-- Generator: Adobe Illustrator 25.2.0, SVG Export Plug-In . SVG Version: 6.00 Build 0) --> <svg xmlns="http://www.w3.org/2000/svg" xmlns:xlink="http://www.w3.org/1999/xlink" version="1.2" id="Ebene_1" x="0px" y="0px" viewBox="0 0 230.6 47.4" overflow="visible" xml:space="preserve"> <g> <g> <path fill="#E42313" d="M121.2,30.1c-8.7,0-14.4-2.9-14.4-10.6c0-7.3,6.9-11.9,15.9-11.9c9.5,0,14.3,3.9,14.3,10.8 C137,25.5,130,30.1,121.2,30.1"></path> <polygon fill="#FFFFFF" points="129.9,21.5 124.8,21.5 124.8,26.3 119,26.3 119,21.5 113.9,21.5 113.9,16.3 119,16.3 119,11.4 124.8,11.4 124.8,16.3 129.9,16.3 "></polygon> <path fill="#E42313" d="M12.8,40.2C4.7,40.2,0,38.1,0,33.8c0-1.8,1.8-3.9,3.8-4.7c-1.7-0.6-2.7-1.9-2.7-3.4c0-1.9,1.6-3.5,3.6-4.1 c-2.7-1-4.3-2.7-4.3-5.6c0-4.6,4.5-8.4,13.7-8.4c2.2,0,4,0.2,5.8,0.6h9.7v6.2H27c0.1,0.3,0.1,0.6,0.1,0.9c0,4.8-4.4,7.6-12.9,7.6 H13c-0.5,0.2-0.7,0.5-0.7,0.7c0,0.7,0.6,0.9,3.8,0.9h3.3c6.2,0,10,2,10,6.6C29.4,35.8,23.2,40.2,12.8,40.2 M13.7,13.2 c-2,0-3.3,0.9-3.3,2.2c0,1.3,1.2,2.3,3.5,2.3c2,0,3.3-0.9,3.3-2.2C17.2,14.1,16,13.2,13.7,13.2 M16.4,30.4h-4.1h-0.9 c-0.8,0.5-1,1.2-1,1.8c0,1.2,1.2,2,3.9,2c3.3,0,4.7-1,4.7-2.2C19,31.3,18.4,30.4,16.4,30.4"></path> <path fill="#E42313" d="M49.7,15.3c-4.3-0.8-6.6,0.6-6.6,5.3v9H32.5V8.1h9.8c0,0.7-0.1,2-0.3,3.2H42c1.7-2.3,4.3-3.8,8.2-3.8 L49.7,15.3z"></path> <path fill="#E42313" d="M66.8,29.6c0-0.8,0-1.7,0.2-2.7H67c-1.4,2-4.7,3.2-8.4,3.2c-5.8,0-8.6-2.6-8.6-6.1c0-5.8,7.5-8.2,15.8-8.2 v-0.5c0-1.2-1.2-1.7-4.6-1.7c-2.5,0-5.9,0.6-8.3,1.4L52,8.7c3.1-0.6,7.2-1.1,10.7-1.1c10.8,0,13.8,2.7,13.8,7.9V25 c0,1.3,0,3,0.2,4.6H66.8z M65.8,20.7c-4.7,0-5.8,0.8-5.8,2.2c0,0.8,0.8,1.4,2.2,1.4c2.2,0,3.7-1.3,3.7-2.8V20.7z"></path> <path fill="#E42313" d="M97.8,29.6H87.1L76.5,8.1h11.5l2.3,5.1c0.8,1.7,1.7,4,2.3,5.7h0.1c0.5-1.7,1.2-3.8,2-5.5l2.3-5.4h11.3 L97.8,29.6z"></path> <path d="M145.7,30.1c-2,0-4.1-0.2-6-0.3l0.2-6.2c1.7,0.3,3.9,0.6,5.9,0.6c1.5,0,2.3-0.4,2.3-1c0-2.3-9.3-1.3-9.3-8.2 c0-4,4.3-7.5,13.4-7.5c1.5,0,3.3,0.1,4.8,0.3l-0.2,6c-1.4-0.3-3.1-0.4-4.8-0.4c-1.5,0-2.2,0.4-2.2,1c0,1.7,9.6,1.7,9.6,8.2 C159.5,27.4,154,30.1,145.7,30.1"></path> <path d="M173.5,30.1c-7.1,0-9.3-1.6-9.3-7.1v-8.8h-3.7v-6h3.6v-6L174.7,0v8.2h5.5v6h-5.4v7.2c0,1.6,0.7,2.2,2.5,2.2 c0.9,0,2.1-0.1,3-0.3v6.2C178.1,29.9,175.7,30.1,173.5,30.1"></path> <path d="M199.3,29.6c0-0.8,0-1.7,0.2-2.7h-0.1c-1.4,2-4.7,3.2-8.4,3.2c-5.8,0-8.6-2.6-8.6-6.1c0-5.8,7.5-8.2,15.8-8.2v-0.5 c0-1.2-1.2-1.7-4.6-1.7c-2.5,0-5.9,0.6-8.3,1.4l-0.9-6.4c3.1-0.6,7.2-1.1,10.7-1.1c10.8,0,13.8,2.7,13.8,7.9V25c0,1.3,0,3,0.2,4.6 H199.3z M198.2,20.7c-4.7,0-5.8,0.8-5.8,2.2c0,0.8,0.8,1.4,2.2,1.4c2.2,0,3.7-1.3,3.7-2.8V20.7z"></path> <path d="M230.1,15.3c-4.3-0.8-6.6,0.6-6.6,5.3v9h-10.6V8.1h9.8c0,0.7-0.1,2-0.3,3.2h0.1c1.7-2.3,4.3-3.8,8.2-3.8L230.1,15.3z"></path> </g> <g> <path d="M159.6,44.6c-1.2,0-1.6-0.5-1.6-1.8v-3.1h-1.1v-1h1.1v-1.8l1.2-0.3v2.2h1.5v1h-1.5v2.8c0,0.9,0.2,1.1,0.8,1.1 c0.3,0,0.5,0,0.7-0.1l0.1,1C160.4,44.5,159.9,44.6,159.6,44.6z"></path> <path d="M166.7,41.7h-3.7c0,1.3,0.5,1.9,1.7,1.9c0.6,0,1.1-0.1,1.7-0.3l0.2,1c-0.6,0.2-1.3,0.4-2,0.4c-1.8,0-2.8-0.9-2.8-3 c0-1.7,1-3,2.7-3c1.6,0,2.3,1.1,2.3,2.4C166.8,41.2,166.8,41.5,166.7,41.7z M164.4,39.5c-0.7,0-1.2,0.5-1.3,1.3h2.4 C165.6,40,165.1,39.5,164.4,39.5z"></path> <path d="M170.5,44.6c-1.5,0-2.6-0.7-2.6-2.8c0-1.8,0.9-3.2,2.9-3.2c0.5,0,1,0.1,1.3,0.2l-0.2,1.1c-0.3-0.1-0.8-0.2-1.2-0.2 c-1,0-1.5,0.8-1.5,2c0,1.1,0.4,1.9,1.5,1.9c0.5,0,0.9-0.1,1.2-0.3l0.2,1C171.7,44.5,171.1,44.6,170.5,44.6z"></path> <path d="M177.3,44.5v-3.7c0-0.7-0.2-1.1-0.9-1.1c-0.9,0-1.5,0.9-1.5,2.1v2.8h-1.2V36h1.2v2.6c0,0.4,0,0.8-0.1,1.2l0,0 c0.3-0.7,1-1.2,2-1.2c1.3,0,1.7,0.8,1.7,1.8v4H177.3z"></path> <path d="M184.2,44.5v-3.7c0-0.7-0.2-1.1-0.9-1.1c-0.9,0-1.5,0.9-1.5,2.1v2.8h-1.2v-5.8h1.2c0,0.3,0,0.8-0.1,1.1h0 c0.3-0.7,1-1.3,2-1.3c1.3,0,1.7,0.8,1.7,1.8v4H184.2z"></path> <path d="M189.6,44.6c-1.6,0-2.6-0.9-2.6-2.9c0-1.7,1.1-3.1,2.9-3.1c1.5,0,2.6,0.9,2.6,2.9C192.5,43.3,191.3,44.6,189.6,44.6z M189.8,39.6c-0.8,0-1.5,0.6-1.5,1.9c0,1.3,0.5,2,1.5,2c0.8,0,1.5-0.6,1.5-2C191.2,40.3,190.7,39.6,189.8,39.6z"></path> <path d="M194.1,44.5V36h1.2v8.5H194.1z"></path> <path d="M199.5,44.6c-1.6,0-2.6-0.9-2.6-2.9c0-1.7,1.1-3.1,2.9-3.1c1.5,0,2.6,0.9,2.6,2.9C202.4,43.3,201.2,44.6,199.5,44.6z M199.6,39.6c-0.8,0-1.5,0.6-1.5,1.9c0,1.3,0.5,2,1.5,2c0.8,0,1.5-0.6,1.5-2C201.1,40.3,200.6,39.6,199.6,39.6z"></path> <path d="M206,47.4c-1.5,0-2.4-0.6-2.4-1.7c0-0.6,0.4-1.2,0.9-1.5c-0.3-0.2-0.6-0.5-0.6-0.9c0-0.4,0.3-0.8,0.7-1 c-0.5-0.3-0.9-0.8-0.9-1.6c0-1.2,0.9-2.2,2.5-2.2c0.3,0,0.6,0,0.9,0.1h2v1h-0.9c0.2,0.2,0.4,0.5,0.4,0.9c0,1.2-0.8,2.1-2.4,2.1 c-0.2,0-0.4,0-0.5-0.1c-0.2,0.1-0.3,0.3-0.3,0.4c0,0.3,0.3,0.4,1,0.4l1,0c1.3,0,1.9,0.6,1.9,1.7C209.1,46.4,207.9,47.4,206,47.4z M206.8,44.5l-1.1,0c-0.1,0-0.2,0-0.3,0c-0.4,0.3-0.6,0.6-0.6,1c0,0.6,0.6,1,1.4,1c1.1,0,1.7-0.5,1.7-1.1 C207.9,44.8,207.6,44.5,206.8,44.5z M206.2,39.5c-0.8,0-1.2,0.5-1.2,1.2c0,0.7,0.4,1.1,1.2,1.1c0.8,0,1.2-0.4,1.2-1.1 C207.4,40,206.9,39.5,206.2,39.5z"></path> <path d="M211.3,37.7c-0.4,0-0.8-0.3-0.8-0.8c0-0.4,0.4-0.8,0.8-0.8c0.4,0,0.8,0.3,0.8,0.8C212.1,37.3,211.7,37.7,211.3,37.7z M210.7,44.5v-5.8h1.2v5.8H210.7z"></path> <path d="M218.4,41.7h-3.7c0,1.3,0.5,1.9,1.7,1.9c0.6,0,1.1-0.1,1.7-0.3l0.2,1c-0.6,0.2-1.3,0.4-2,0.4c-1.8,0-2.8-0.9-2.8-3 c0-1.7,1-3,2.7-3c1.6,0,2.3,1.1,2.3,2.4C218.5,41.2,218.5,41.5,218.4,41.7z M216.1,39.5c-0.7,0-1.2,0.5-1.3,1.3h2.4 C217.3,40,216.8,39.5,216.1,39.5z"></path> <path d="M221.1,44.6c-0.4,0-0.9-0.1-1.3-0.2l0.1-1.1c0.4,0.1,0.8,0.2,1.3,0.2c0.6,0,1.1-0.3,1.1-0.8c0-1.2-2.5-0.5-2.5-2.5 c0-1,0.8-1.8,2.4-1.8c0.3,0,0.8,0,1.1,0.1l-0.1,1c-0.3-0.1-0.7-0.2-1.1-0.2c-0.7,0-1,0.3-1,0.7c0,1.1,2.6,0.5,2.6,2.4 C223.6,43.8,222.7,44.6,221.1,44.6z"></path> </g> </g> <g> </g> <g> </g> <g> </g> <g> </g> <g> </g> <g> </g> </svg> 