<?xml version="1.0" encoding="UTF-8" standalone="no"?>
<!DOCTYPE svg PUBLIC "-//W3C//DTD SVG 1.1//EN" "http://www.w3.org/Graphics/SVG/1.1/DTD/svg11.dtd">
<!-- Created with Vectornator (http://vectornator.io/) -->
<svg height="100%" stroke-miterlimit="10" style="fill-rule:nonzero;clip-rule:evenodd;stroke-linecap:round;stroke-linejoin:round;" version="1.1" viewBox="0 0 600 180" width="100%" xml:space="preserve" xmlns="http://www.w3.org/2000/svg" xmlns:xlink="http://www.w3.org/1999/xlink">
<defs/>
<g id="Untitled">
<path d="M0 1.8L35.6 1.8L35.6 1.8L35.6 139.7L35.6 139.7L0 139.7L0 139.7L0 1.8L0 1.8Z" fill="#008397" fill-rule="evenodd" opacity="1" stroke="none"/>
<path d="M117.3 141.2C83.3 141.2 62.2 133 62.2 91.9L62.2 49.4C62.2 8.40001 83.3 0.100006 117.3 0.100006L181.1 0.100006C215.1 0.100006 236.2 8.3 236.2 49.4L236.2 91.9C236.2 132.9 215.1 141.2 181.1 141.2L117.3 141.2ZM123.2 27.7C98.2 27.7 93.1 41.5 93.1 62.1L93.1 79.3C93.1 102.1 97.4 113.7 120.8 113.7L177.6 113.7C201 113.7 205.3 102.1 205.3 79.3L205.3 62.2C205.3 41.5 200.2 27.8 175.2 27.8L123.2 27.7Z" fill="#008397" fill-rule="evenodd" opacity="1" stroke="none"/>
<path d="M307 141.2C269.7 141.2 258.4 132.8 258.4 105.1L258.4 97.5L294.1 97.5C294.9 112.6 302.3 113.8 313.3 113.8L362 113.8C368.2 113.8 381.1 113.8 381.1 99.5C381.1 84.6 374.5 84 323.1 84C264.1 84 258.5 76.8 258.5 43.4C258.5 16.4 261.9 0 308.7 0L364.2 0C408.9 0 412.3 15.8 412.3 39.8L412.3 42L376.6 42C376.2 31 372.4 27.2 355.2 27.2L311.1 27.2C300.2 27.2 294 32 294 40.5C294 54.8 302.1 55.4 333 55.4C336.2 55.4 347.4 55.4 347.4 55.4C407.7 55.4 417.6 61.4 417.6 98.6C417.6 134.6 408.2 141 355 141L307 141L307 141.2Z" fill="#008397" fill-rule="evenodd" opacity="1" stroke="none"/>
<path d="M489.2 141.2C451.9 141.2 440.6 132.8 440.6 105.1L440.6 97.5L476.3 97.5C477.1 112.6 484.5 113.8 495.5 113.8L544.2 113.8C550.4 113.8 563.3 113.8 563.3 99.5C563.3 84.6 556.7 84 505.3 84C446.3 84 440.7 76.8 440.7 43.4C440.7 16.4 444.1 0 490.9 0L546.5 0C591.2 0 594.6 15.8 594.6 39.8L594.6 42L558.9 42C558.5 31 554.7 27.2 537.5 27.2L493.5 27.2C482.6 27.2 476.4 32 476.4 40.5C476.4 54.8 484.5 55.4 515.4 55.4C518.6 55.4 529.8 55.4 529.8 55.4C590.1 55.4 600 61.4 600 98.6C600 134.6 590.6 141 537.4 141L489.2 141L489.2 141.2Z" fill="#008397" fill-rule="evenodd" opacity="1" stroke="none"/>
<path d="M132.5 106.3C129.4 106.3 126.9 103.8 126.9 100.7C126.9 97.6 129.4 95.1 132.5 95.1C135.6 95.1 138.1 97.6 138.1 100.7C138 103.8 135.5 106.3 132.5 106.3Z" fill="#008397" fill-rule="evenodd" opacity="1" stroke="none"/>
<path d="M132.5 106.3C129.4 106.3 126.9 103.8 126.9 100.7C126.9 97.6 129.4 95.1 132.5 95.1C135.6 95.1 138.1 97.6 138.1 100.7C138 103.8 135.5 106.3 132.5 106.3Z" fill="#008397" fill-rule="evenodd" opacity="1" stroke="none"/>
<path d="M132.5 91.3C129.4 91.3 126.9 88.8 126.9 85.7C126.9 82.6 129.4 80.1 132.5 80.1C135.6 80.1 138.1 82.6 138.1 85.7C138 88.8 135.5 91.3 132.5 91.3Z" fill="#008397" fill-rule="evenodd" opacity="1" stroke="none"/>
<path d="M132.5 76.3C129.4 76.3 126.9 73.8 126.9 70.7C126.9 67.6 129.4 65.1 132.5 65.1C135.6 65.1 138.1 67.6 138.1 70.7C138 73.8 135.5 76.3 132.5 76.3Z" fill="#008397" fill-rule="evenodd" opacity="1" stroke="none"/>
<path d="M132.5 46.4C129.4 46.4 126.9 43.9 126.9 40.8C126.9 37.7 129.4 35.2 132.5 35.2C135.6 35.2 138.1 37.7 138.1 40.8C138 43.9 135.5 46.4 132.5 46.4Z" fill="#008397" fill-rule="evenodd" opacity="1" stroke="none"/>
<path d="M141.8 85.7C141.8 82.607 144.307 80.1 147.4 80.1C150.493 80.1 153 82.607 153 85.7C153 88.793 150.493 91.3 147.4 91.3C144.307 91.3 141.8 88.793 141.8 85.7Z" fill="#008397" fill-rule="evenodd" opacity="1" stroke="none"/>
<path d="M141.8 70.8C141.8 67.707 144.307 65.2 147.4 65.2C150.493 65.2 153 67.707 153 70.8C153 73.893 150.493 76.4 147.4 76.4C144.307 76.4 141.8 73.893 141.8 70.8Z" fill="#008397" fill-rule="evenodd" opacity="1" stroke="none"/>
<path d="M141.8 40.8C141.8 37.707 144.307 35.2 147.4 35.2C150.493 35.2 153 37.707 153 40.8C153 43.893 150.493 46.4 147.4 46.4C144.307 46.4 141.8 43.893 141.8 40.8Z" fill="#008397" fill-rule="evenodd" opacity="1" stroke="none"/>
<path d="M141.8 55.8C141.8 52.707 144.307 50.2 147.4 50.2C150.493 50.2 153 52.707 153 55.8C153 58.893 150.493 61.4 147.4 61.4C144.307 61.4 141.8 58.893 141.8 55.8Z" fill="#008397" fill-rule="evenodd" opacity="1" stroke="none"/>
<path d="M162.4 106.3C159.3 106.3 156.8 103.8 156.8 100.7C156.8 97.6 159.3 95.1 162.4 95.1C165.5 95.1 168 97.6 168 100.7C168 103.8 165.5 106.3 162.4 106.3Z" fill="#008397" fill-rule="evenodd" opacity="1" stroke="none"/>
<path d="M162.4 91.3C159.3 91.3 156.8 88.8 156.8 85.7C156.8 82.6 159.3 80.1 162.4 80.1C165.5 80.1 168 82.6 168 85.7C168 88.8 165.5 91.3 162.4 91.3Z" fill="#008397" fill-rule="evenodd" opacity="1" stroke="none"/>
<path d="M162.4 76.3C159.3 76.3 156.8 73.8 156.8 70.7C156.8 67.6 159.3 65.1 162.4 65.1C165.5 65.1 168 67.6 168 70.7C168 73.8 165.5 76.3 162.4 76.3Z" fill="#008397" fill-rule="evenodd" opacity="1" stroke="none"/>
<path d="M162.4 61.4C159.3 61.4 156.8 58.9 156.8 55.8C156.8 52.7 159.3 50.2 162.4 50.2C165.5 50.2 168 52.7 168 55.8C168 58.9 165.5 61.4 162.4 61.4Z" fill="#008397" fill-rule="evenodd" opacity="1" stroke="none"/>
<path d="M177.4 106.3C174.3 106.3 171.8 103.8 171.8 100.7C171.8 97.6 174.3 95.1 177.4 95.1C180.5 95.1 183 97.6 183 100.7C182.9 103.8 180.4 106.3 177.4 106.3Z" fill="#008397" fill-rule="evenodd" opacity="1" stroke="none"/>
<path d="M177.4 91.3C174.3 91.3 171.8 88.8 171.8 85.7C171.8 82.6 174.3 80.1 177.4 80.1C180.5 80.1 183 82.6 183 85.7C182.9 88.8 180.4 91.3 177.4 91.3Z" fill="#008397" fill-rule="evenodd" opacity="1" stroke="none"/>
<path d="M177.4 46.4C174.3 46.4 171.8 43.9 171.8 40.8C171.8 37.7 174.3 35.2 177.4 35.2C180.5 35.2 183 37.7 183 40.8C182.9 43.9 180.4 46.4 177.4 46.4Z" fill="#008397" fill-rule="evenodd" opacity="1" stroke="none"/>
<path d="M177.4 61.4C174.3 61.4 171.8 58.9 171.8 55.8C171.8 52.7 174.3 50.2 177.4 50.2C180.5 50.2 183 52.7 183 55.8C182.9 58.9 180.4 61.4 177.4 61.4Z" fill="#008397" fill-rule="evenodd" opacity="1" stroke="none"/>
<path d="M186.7 85.7C186.7 82.607 189.207 80.1 192.3 80.1C195.393 80.1 197.9 82.607 197.9 85.7C197.9 88.793 195.393 91.3 192.3 91.3C189.207 91.3 186.7 88.793 186.7 85.7Z" fill="#008397" fill-rule="evenodd" opacity="1" stroke="none"/>
<path d="M186.7 70.8C186.7 67.707 189.207 65.2 192.3 65.2C195.393 65.2 197.9 67.707 197.9 70.8C197.9 73.893 195.393 76.4 192.3 76.4C189.207 76.4 186.7 73.893 186.7 70.8Z" fill="#008397" fill-rule="evenodd" opacity="1" stroke="none"/>
<path d="M186.7 55.8C186.7 52.707 189.207 50.2 192.3 50.2C195.393 50.2 197.9 52.707 197.9 55.8C197.9 58.893 195.393 61.4 192.3 61.4C189.207 61.4 186.7 58.893 186.7 55.8Z" fill="#008397" fill-rule="evenodd" opacity="1" stroke="none"/>
<path d="M13.1 160.7L13.1 178.6L9.2 178.6L9.2 160.7L0.1 160.7L0.200001 157.5L22.1 157.5L22.2 160.7L13.1 160.7Z" fill="#676766" fill-rule="evenodd" opacity="1" stroke="none"/>
<path d="M46.2 178.6L46.2 169.3L31.2 169.3L31.2 178.6L27.4 178.6L27.4 157.5L31.2 157.5L31.2 166.1L46.2 166.1L46.2 157.5L50.1 157.5L50.1 178.6L46.2 178.6Z" fill="#676766" fill-rule="evenodd" opacity="1" stroke="none"/>
<path d="M78.3 175.4L78.2 178.6L58.5 178.6L58.5 157.5L77.5 157.5L77.6 160.6L62.3 160.6L62.3 166.3L75.4 166.3L75.4 169L62.3 169L62.3 175.4L78.3 175.4Z" fill="#676766" fill-rule="evenodd" opacity="1" stroke="none"/>
<path d="M104.3 179C100.8 179 97.9 178.2 95.4 177.1L95.9 173.9C98.5 175.2 101.2 176 104.4 176C108.6 176 110.7 174.5 110.7 172.6C110.7 168.1 95.6 171.3 95.6 163.6C95.6 160.4 98.3 157.2 105.3 157.2C108.2 157.2 111.2 157.7 113.5 158.5L113 161.6C110.4 160.8 108 160.3 105.4 160.3C100.8 160.3 99.3 162 99.3 163.3C99.3 167.7 114.4 164.3 114.4 172.3C114.3 176 110.8 179 104.3 179" fill="#676766" fill-rule="evenodd" opacity="1" stroke="none"/>
<path d="M140.3 175.4L140.2 178.6L120.6 178.6L120.6 157.5L139.6 157.5L139.6 160.6L124.4 160.6L124.4 166.3L137.4 166.3L137.4 169L124.4 169L124.4 175.4L140.3 175.4Z" fill="#676766" fill-rule="evenodd" opacity="1" stroke="none"/>
<path d="M167.2 178.6L151.9 163.8L150.3 162.2L150.2 162.2L150.3 164.5L150.3 178.6L146.8 178.6L146.8 157.5L150.1 157.5L164.7 171.6L166.3 173.3L166.3 173.2L166.3 171L166.2 157.5L169.7 157.5L169.7 178.6L167.2 178.6Z" fill="#676766" fill-rule="evenodd" opacity="1" stroke="none"/>
<path d="M185.4 179C181.9 179 179 178.2 176.5 177.1L177 173.9C179.6 175.2 182.3 176 185.6 176C189.8 176 191.9 174.5 191.9 172.6C191.9 168.1 176.8 171.3 176.8 163.6C176.8 160.4 179.5 157.2 186.5 157.2C189.4 157.2 192.4 157.7 194.7 158.5L194.2 161.6C191.6 160.8 189.2 160.3 186.6 160.3C182 160.3 180.5 162 180.5 163.3C180.5 167.7 195.6 164.3 195.6 172.3C195.4 176 191.9 179 185.4 179" fill="#676766" fill-rule="evenodd" opacity="1" stroke="none"/>
<path d="M212.7 179C203.6 179 200 174.8 200 168C200 161.3 203.5 157.1 212.7 157.1C221.8 157.1 225.3 161.3 225.3 168C225.4 174.7 221.9 179 212.7 179M212.7 160.3C206.5 160.3 204.1 162.7 204.1 168C204.1 173.3 206.5 175.8 212.7 175.8C218.9 175.8 221.3 173.3 221.3 168C221.3 162.6 219 160.3 212.7 160.3Z" fill="#676766" fill-rule="evenodd" opacity="1" stroke="none"/>
<path d="M250.7 175.3L250.6 178.6L232.2 178.6L232.2 157.5L236 157.5L236 175.3L250.7 175.3Z" fill="#676766" fill-rule="evenodd" opacity="1" stroke="none"/>
<path d="M278.5 168.9C278.5 175.9 274.3 179 266.9 179C259.5 179 255.2 175.9 255.2 168.9L255.2 157.5L259 157.5L259 168.9C259 173.5 261.6 175.7 266.9 175.7C272.1 175.7 274.7 173.4 274.7 168.9L274.7 157.5L278.5 157.5L278.5 168.9Z" fill="#676766" fill-rule="evenodd" opacity="1" stroke="none"/>
<path d="M296 160.7L296 178.6L292.1 178.6L292.1 160.7L283 160.7L283.1 157.5L305.1 157.5L305.1 160.7L296 160.7Z" fill="#676766" fill-rule="evenodd" opacity="1" stroke="none"/>
<path d="M310.8 157.5L314.7 157.5L314.7 157.5L314.7 178.6L314.7 178.6L310.8 178.6L310.8 178.6L310.8 157.5L310.8 157.5Z" fill="#676766" fill-rule="evenodd" opacity="1" stroke="none"/>
<path d="M334.6 179C325.5 179 321.9 174.8 321.9 168C321.9 161.3 325.4 157.1 334.6 157.1C343.7 157.1 347.2 161.3 347.2 168C347.2 174.7 343.8 179 334.6 179M334.6 160.3C328.4 160.3 326 162.7 326 168C326 173.3 328.4 175.8 334.6 175.8C340.8 175.8 343.2 173.3 343.2 168C343.2 162.6 340.9 160.3 334.6 160.3Z" fill="#676766" fill-rule="evenodd" opacity="1" stroke="none"/>
<path d="M374.5 178.6L359.2 163.8L357.6 162.2L357.5 162.2L357.6 164.5L357.6 178.6L354.1 178.6L354.1 157.5L357.4 157.5L372 171.6L373.6 173.3L373.6 173.2L373.6 171L373.5 157.5L377 157.5L377 178.6L374.5 178.6Z" fill="#676766" fill-rule="evenodd" opacity="1" stroke="none"/>
<path d="M416.3 161.4C414.6 160.8 412.2 160.3 409.5 160.3C402.8 160.3 400.2 162.7 400.2 167.9C400.2 173.3 402.9 175.7 409.7 175.7C412.2 175.7 414.5 175.1 416.4 174.4L416.9 177.3C414.9 178.2 412 179 409.3 179C400.4 179 396.3 174.9 396.3 167.9C396.3 161.3 400.3 157 409.6 157C412.2 157 415.1 157.5 416.9 158.2L416.3 161.4Z" fill="#676766" fill-rule="evenodd" opacity="1" stroke="none"/>
<path d="M433.8 179C424.7 179 421.1 174.8 421.1 168C421.1 161.3 424.6 157.1 433.8 157.1C442.9 157.1 446.4 161.3 446.4 168C446.4 174.7 442.9 179 433.8 179M433.8 160.3C427.6 160.3 425.2 162.7 425.2 168C425.2 173.3 427.6 175.8 433.8 175.8C440 175.8 442.4 173.3 442.4 168C442.4 162.6 440.1 160.3 433.8 160.3Z" fill="#676766" fill-rule="evenodd" opacity="1" stroke="none"/>
<path d="M457.6 157.5L467.9 174.6L478.3 157.5L482.5 157.5L482.5 178.6L479 178.6L479 164.4L479.1 162.1L479 162.1L477.9 164.1L469.2 178.6L466.5 178.6L457.9 164.2L456.8 162.2L456.7 162.2L456.7 164.5L456.7 178.6L453.3 178.6L453.3 157.5L457.6 157.5Z" fill="#676766" fill-rule="evenodd" opacity="1" stroke="none"/>
<path d="M501.4 171.4L494.8 171.4L494.8 178.5L491 178.5L491 157.4L501.5 157.4C508.6 157.4 511.5 160.2 511.5 164.5C511.4 168.5 508.4 171.4 501.4 171.4M501.4 160.4L494.8 160.4L494.8 168.5L501.4 168.5C505.4 168.5 507.5 167.4 507.5 164.5C507.5 161.6 505.5 160.4 501.4 160.4Z" fill="#676766" fill-rule="evenodd" opacity="1" stroke="none"/>
<path d="M533.8 173.7L519.5 173.7L517 178.5L512.9 178.5L524.7 157.4L528.9 157.4L540.7 178.5L536.3 178.5L533.8 173.7ZM525.7 162L521.1 170.8L532.4 170.8L527.8 162L526.8 159.9L526.7 159.9L525.7 162Z" fill="#676766" fill-rule="evenodd" opacity="1" stroke="none"/>
<path d="M566.2 178.6L550.9 163.8L549.3 162.2L549.3 162.2L549.3 164.5L549.3 178.6L545.8 178.6L545.8 157.5L549.2 157.5L563.7 171.6L565.3 173.3L565.4 173.2L565.3 171L565.3 157.5L568.8 157.5L568.8 178.6L566.2 178.6Z" fill="#676766" fill-rule="evenodd" opacity="1" stroke="none"/>
<path d="M578.5 157.5L587 168.2L595.5 157.5L599.8 157.5L588.9 171.2L588.9 178.6L585 178.6L585 171.2L574 157.5L578.5 157.5Z" fill="#676766" fill-rule="evenodd" opacity="1" stroke="none"/>
</g>
</svg>
