<?xml version="1.0" encoding="UTF-8" standalone="no"?>
<!DOCTYPE svg PUBLIC "-//W3C//DTD SVG 1.1//EN" "http://www.w3.org/Graphics/SVG/1.1/DTD/svg11.dtd">
<!-- Created with Vectornator (http://vectornator.io/) -->
<svg height="100%" stroke-miterlimit="10" style="fill-rule:nonzero;clip-rule:evenodd;stroke-linecap:round;stroke-linejoin:round;" version="1.1" viewBox="0 0 298.42 25.58" width="100%" xml:space="preserve" xmlns="http://www.w3.org/2000/svg" xmlns:xlink="http://www.w3.org/1999/xlink">
<defs/>
<clipPath id="ArtboardFrame">
<rect height="25.58" width="298.42" x="0" y="0"/>
</clipPath>
<g clip-path="url(#ArtboardFrame)" id="g10">
<path d="M127.923 14.2817L133.351 14.2817L133.351 20.8219C131.868 21.7016 129.845 22.1424 127.923 22.1424C122.697 22.1424 118.817 18.0771 118.817 12.7905C118.817 7.50618 122.697 3.43921 127.923 3.43921C130.348 3.43921 132.58 4.28676 134.157 5.67209L136.25 3.53919C134.092 1.54175 131.159 0.493128 127.923 0.493128C121.077 0.493128 115.682 5.81108 115.682 12.7905C115.682 19.7716 121.077 25.0901 127.923 25.0901C131.059 25.0901 134.195 24.0735 136.421 22.3806L136.421 11.2998L127.923 11.2998L127.923 14.2817ZM258.764 24.8199L272.591 24.8199L272.591 21.838L261.834 21.838L261.834 14.2817L270.927 14.2817L270.927 11.2998L261.834 11.2998L261.834 3.7447L272.591 3.7447L272.591 0.763327L258.764 0.763327L258.764 24.8199ZM192.124 21.8428L186.457 21.8428L186.457 14.2817L192.124 14.2817C195.36 14.2817 196.911 15.6714 196.911 17.908C196.911 20.2462 195.36 21.8428 192.124 21.8428ZM186.457 3.7447L191.315 3.7447C193.843 3.7447 195.36 5.33704 195.36 7.36979C195.36 9.50511 193.843 11.2998 191.315 11.2998L186.457 11.2998L186.457 3.7447ZM195.934 12.197C197.484 11.1476 198.429 9.57888 198.429 7.13899C198.429 3.75102 195.71 0.763328 191.091 0.763328L183.389 0.763328L183.389 24.8199L191.752 24.8199C196.675 24.8199 200.016 22.4137 200.016 18.0427C200.016 14.79 198.293 13.1123 195.934 12.197ZM284.087 11.5717L284.087 3.60979L287.933 3.60979C291.069 3.60979 292.652 5.10049 292.652 7.60783C292.652 10.081 291.069 11.5717 287.933 11.5717L284.087 11.5717ZM290.157 14.1126C293.665 13.4359 295.824 10.9622 295.824 7.54037C295.824 3.43921 292.822 0.763327 288.136 0.763327L281.019 0.763327L281.019 24.8199L284.087 24.8199L284.087 14.3171L286.718 14.3171L294.711 24.8199L298.42 24.8199L290.157 14.1126ZM247.687 15.8072C247.687 19.9749 245.057 22.1424 241.211 22.1424C237.369 22.1424 234.738 19.9749 234.738 15.8072L234.738 0.763327L231.67 0.763327L231.67 15.6714C231.67 21.5667 235.648 25.0901 241.211 25.0901C246.811 25.0901 250.756 21.5667 250.756 15.6714L250.756 0.763327L247.687 0.763327L247.687 15.8072ZM211.77 15.6714L215.817 7.06522L219.863 15.6714L211.77 15.6714ZM204.15 24.8199L207.454 24.8199L210.421 18.5173L221.212 18.5173L224.179 24.8199L227.483 24.8199L215.817 0.493129L204.15 24.8199ZM105.113 24.8199L108.181 24.8199L108.181 0.763327L105.113 0.763327L105.113 24.8199ZM93.0321 17.8741L75.9689 0.493129L75.9689 24.8199L79.0381 24.8199L79.0381 7.70837L96.1014 25.0901L96.1014 0.763329L93.0321 0.763329L93.0321 17.8741ZM53.5985 24.8199L67.4249 24.8199L67.4249 21.838L56.6676 21.838L56.6676 14.2817L65.7609 14.2817L65.7609 11.2998L56.6676 11.2998L56.6676 3.7447L67.4249 3.7447L67.4249 0.763327L53.5985 0.763327L53.5985 24.8199ZM43.0296 12.7905C43.0296 18.0771 39.1514 22.1424 33.9248 22.1424C28.6985 22.1424 24.8203 18.0771 24.8203 12.7905C24.8203 7.50618 28.6985 3.43921 33.9248 3.43921C39.1514 3.43921 43.0296 7.50618 43.0296 12.7905M33.9248 0.493129C27.0795 0.493129 21.6835 5.81108 21.6835 12.7905C21.6835 19.7716 27.0795 25.0901 33.9248 25.0901C40.7706 25.0901 46.1663 19.7716 46.1663 12.7905C46.1663 5.81108 40.7706 0.493129 33.9248 0.493129ZM17.7711 0.763328L13.9944 0.763328L3.06858 12.5028L3.06858 0.763328L-1.24345e-14 0.763328L-1.24345e-14 24.8199L3.06858 24.8199L3.06858 13.0782L14.6019 24.8199L18.6818 24.8199L6.71095 12.7905L17.7711 0.763328ZM164.451 17.9447C164.451 20.6459 162.139 22.8457 159.296 22.8504C156.451 22.8504 154.137 20.6507 154.137 17.9447C154.137 15.2746 156.443 12.7905 159.193 12.7953C159.385 12.79 160.25 12.79 160.25 12.79C160.25 12.79 160.25 10.2685 160.25 10.0483C159.702 10.0377 158.869 10.039 157.965 9.64007C156.566 9.10062 155.577 7.73332 155.571 6.24523C155.579 4.30093 157.252 2.72067 159.299 2.72067C161.349 2.72201 163.018 4.3093 163.018 6.25842L163.018 6.31589L165.873 6.31589L165.873 6.25842C165.873 2.81025 162.924 0.00316062 159.299 0L159.298 0C155.767 0 152.818 2.72903 152.719 6.08244L152.721 6.43328C152.778 8.1046 153.54 9.68486 154.825 10.8178C154.91 10.8928 155.123 11.0512 155.169 11.0791C155.309 11.1644 155.44 11.2419 155.44 11.2419C155.44 11.2419 154.958 11.5201 154.877 11.5701C152.614 12.9901 151.262 15.3722 151.262 17.9442C151.262 22.155 154.868 25.58 159.301 25.58C163.728 25.5791 167.328 22.1536 167.328 17.9442L167.324 13.9183L170.148 13.9183L170.148 11.2419L164.453 11.2419L164.449 17.9442L164.451 17.9447Z" fill="#243d70" fill-rule="nonzero" opacity="1" stroke="none"/>
</g>
</svg>
