<?xml version="1.0" encoding="UTF-8" standalone="no"?>
<!DOCTYPE svg PUBLIC "-//W3C//DTD SVG 1.1//EN" "http://www.w3.org/Graphics/SVG/1.1/DTD/svg11.dtd">
<!-- Created with Vectornator (http://vectornator.io/) -->
<svg height="100%" stroke-miterlimit="10" style="fill-rule:nonzero;clip-rule:evenodd;stroke-linecap:round;stroke-linejoin:round;" version="1.1" viewBox="0 0 206.33 57.6733" width="100%" xml:space="preserve" xmlns="http://www.w3.org/2000/svg" xmlns:xlink="http://www.w3.org/1999/xlink">
<defs/>
<g id="Untitled">
<path d="M77.4445 37.0785L88.4845 37.0785C88.8795 37.081 89.1307 37.4098 89.0507 37.7648L88.5432 40.481C88.467 40.8998 88.0632 41.1748 87.7257 41.171L69.6607 41.171C69.3582 41.1773 69.012 40.9235 69.092 40.4835L73.3757 17.5285C73.4495 17.091 73.852 16.8335 74.1995 16.8423L80.4457 16.8423C80.8407 16.836 81.1857 17.2023 81.0682 17.6273L77.4445 37.0785" fill="#fffafa" fill-rule="nonzero" opacity="1" stroke="none"/>
<path d="M102.683 30.6123L101.461 37.0723L113.034 37.0723C113.433 37.0773 113.653 37.4385 113.588 37.7635L113.084 40.4873C113.029 40.8535 112.646 41.2148 112.272 41.171L93.6682 41.171C93.3882 41.181 93.0282 40.9485 93.1145 40.4823L97.357 17.606C97.4257 17.2585 97.772 16.8373 98.2632 16.841L116.622 16.841C117.013 16.846 117.243 17.2173 117.179 17.5348L116.674 20.1548C116.644 20.436 116.336 20.8485 115.854 20.8448L104.467 20.8448L103.389 26.726L113.248 26.726C113.511 26.7073 113.878 26.9235 113.804 27.406L113.329 29.9198C113.289 30.2135 113.008 30.621 112.499 30.6123L102.683 30.6123" fill="#fffafa" fill-rule="nonzero" opacity="1" stroke="none"/>
<path d="M135.037 35.1148L126.131 35.1148L122.853 40.5948C122.669 40.931 122.248 41.1985 121.753 41.171L117.836 41.171C117.291 41.2173 117.197 40.7235 117.356 40.4823C117.358 40.4785 131.319 17.5773 131.319 17.5773C131.701 16.9923 131.849 16.841 132.668 16.841L136.814 16.841C137.248 16.8348 137.629 17.1573 137.704 17.5185C137.704 17.5185 143.702 40.486 143.703 40.496C143.766 40.7798 143.663 41.1785 143.137 41.171L137.233 41.171C136.708 41.1685 136.382 40.771 136.334 40.4985L135.037 35.1148ZM134.231 31.9423L132.393 24.3385L127.947 31.9423L134.231 31.9423" fill="#fffafa" fill-rule="nonzero" opacity="1" stroke="none"/>
<path d="M152.181 17.9573C152.268 17.206 152.606 17.021 153.053 16.9685C154.366 16.816 158.454 16.7535 161.092 16.7535C163.958 16.7535 173.634 16.7398 172.408 24.2735C171.597 29.2585 168.104 30.0223 165.532 30.5985L170.989 40.556C171.063 40.7298 171.104 41.1485 170.526 41.171L164.433 41.171C163.999 41.1898 163.548 40.9673 163.332 40.5673L159.079 31.781C158.969 31.4923 158.751 31.4323 158.572 31.4435C158.567 31.4435 157.234 31.441 157.234 31.441L155.562 40.4698C155.496 40.8298 155.174 41.1773 154.736 41.171L148.578 41.171C148.162 41.1835 147.952 40.816 148.004 40.4735L152.181 17.9573ZM157.739 28.7548C159.409 28.8235 164.519 28.9273 165.343 24.4898C166.129 20.2598 162.449 20.0535 160.493 20.0535C160.266 20.0535 159.902 20.0535 159.351 20.0873L157.739 28.7548" fill="#fffafa" fill-rule="nonzero" opacity="1" stroke="none"/>
<path d="M71.3195 48.301C69.8457 48.301 68.4257 49.5398 68.0607 51.5123C67.6682 53.6335 68.6432 55.216 70.4745 55.216C71.1407 55.216 71.7407 55.0198 72.3657 54.6885C72.607 54.5623 72.707 54.5048 72.8357 54.5048C72.9895 54.5048 73.0957 54.6198 73.067 54.7798C72.992 55.181 71.7307 56.041 70.067 56.041C67.2745 56.041 66.2657 54.0123 66.682 51.7648C67.0432 49.8148 68.6045 47.6023 71.5645 47.6023C73.4595 47.6023 74.3495 48.6098 74.2382 49.2073C74.1795 49.5285 73.8595 49.7335 73.552 49.7335C73.3857 49.7335 73.1757 49.6898 73.0432 49.436C72.877 49.0923 72.497 48.301 71.3195 48.301" fill="#fffafa" fill-rule="nonzero" opacity="1" stroke="none"/>
<path d="M83.627 56.041C81.282 56.041 79.8332 54.321 80.2957 51.821C80.6732 49.7798 82.3595 47.5898 85.2032 47.5898C87.8157 47.5898 88.7782 49.586 88.512 51.581C88.177 54.081 86.072 56.041 83.627 56.041ZM85.0245 48.2785C84.6145 48.2785 84.1857 48.381 83.7932 48.5648C82.4995 49.1848 81.8845 50.4348 81.6407 51.7535C81.557 52.201 81.5232 52.5898 81.5457 52.9573C81.6095 54.4823 82.6032 55.2735 83.7557 55.2735C84.4857 55.2735 85.3807 54.941 86.072 54.1723C86.847 53.3123 87.0695 52.246 87.1732 51.6135C87.597 48.9098 85.9845 48.2785 85.0245 48.2785" fill="#fffafa" fill-rule="nonzero" opacity="1" stroke="none"/>
<path d="M96.497 48.0073C96.5407 47.811 96.5907 47.7985 96.757 47.776C97.0657 47.731 98.0782 47.7048 98.7445 47.7048C99.4482 47.7048 100.504 47.7273 101.109 48.266C101.221 48.3585 101.837 48.9073 101.651 49.9273C101.419 51.1973 100.461 51.831 98.9795 52.1523L100.868 55.6623C100.976 55.7998 100.882 55.8835 100.719 55.8685L99.7532 55.8685C99.5657 55.8798 99.5045 55.836 99.4545 55.6748L97.8832 52.6235C97.797 52.4623 97.6345 52.2585 97.2882 52.2585C97.1382 52.2585 96.9357 52.2585 96.9357 52.2585L96.3157 55.6285C96.2795 55.8235 96.2195 55.8685 96.027 55.8685L95.2845 55.8685C95.1045 55.8685 95.0432 55.8585 95.077 55.6748L96.497 48.0073ZM97.0445 51.691C97.7857 51.7023 97.8757 51.6985 98.0695 51.6848C99.3357 51.5923 100.098 51.0298 100.289 49.9985C100.597 48.336 99.0345 48.3623 98.4832 48.3623C98.112 48.3623 97.922 48.336 97.6595 48.371L97.0445 51.691" fill="#fffafa" fill-rule="nonzero" opacity="1" stroke="none"/>
<path d="M135.929 48.0073C135.974 47.811 136.022 47.7985 136.189 47.776C136.499 47.731 137.511 47.7048 138.177 47.7048C138.881 47.7048 139.938 47.7273 140.542 48.266C140.653 48.3585 141.269 48.9073 141.082 49.9273C140.851 51.1973 139.892 51.831 138.412 52.1523L140.301 55.6623C140.408 55.7998 140.314 55.8835 140.152 55.8685L139.186 55.8685C138.999 55.8798 138.937 55.836 138.888 55.6748L137.314 52.6235C137.229 52.4623 137.066 52.2585 136.722 52.2585C136.572 52.2585 136.369 52.2585 136.369 52.2585L135.747 55.6285C135.712 55.8235 135.652 55.8685 135.459 55.8685L134.717 55.8685C134.537 55.8685 134.476 55.8585 134.509 55.6748L135.929 48.0073ZM136.477 51.691C137.218 51.7023 137.308 51.6985 137.502 51.6848C138.767 51.5923 139.532 51.0298 139.722 49.9985C140.029 48.336 138.468 48.3623 137.916 48.3623C137.544 48.3623 137.354 48.336 137.092 48.371L136.477 51.691" fill="#fffafa" fill-rule="nonzero" opacity="1" stroke="none"/>
<path d="M109.833 47.9273C109.842 47.8873 109.858 47.8523 109.891 47.8335C110.007 47.7673 111.268 47.7123 112.153 47.7123C112.793 47.7123 113.939 47.7273 114.619 48.3473C114.891 48.6098 115.246 49.1148 115.083 49.9985C115.023 50.3198 114.844 51.0085 114.057 51.5923C113.283 52.1773 112.237 52.4298 110.982 52.4298C110.687 52.4298 110.509 52.4173 110.271 52.3948L109.666 55.6635C109.633 55.8473 109.564 55.8685 109.398 55.8685L108.616 55.8685C108.424 55.8685 108.379 55.8348 108.411 55.6635L109.833 47.9273ZM110.393 51.7298C110.582 51.7535 110.731 51.7748 111.001 51.7748C111.871 51.7748 113.459 51.6385 113.759 50.0085C114.066 48.3585 112.329 48.3548 111.791 48.3548C111.432 48.3548 111.233 48.3698 111.008 48.4035L110.393 51.7298" fill="#fffafa" fill-rule="nonzero" opacity="1" stroke="none"/>
<path d="M123.453 56.041C121.109 56.041 119.659 54.321 120.122 51.821C120.499 49.7798 122.186 47.5898 125.029 47.5898C127.642 47.5898 128.606 49.586 128.339 51.581C128.004 54.081 125.898 56.041 123.453 56.041ZM124.852 48.2785C124.441 48.2785 124.012 48.381 123.619 48.5648C122.327 49.1848 121.711 50.4348 121.467 51.7535C121.383 52.201 121.351 52.5898 121.372 52.9573C121.437 54.4823 122.429 55.2735 123.582 55.2735C124.312 55.2735 125.207 54.941 125.898 54.1723C126.673 53.3123 126.897 52.246 126.999 51.6135C127.424 48.9098 125.811 48.2785 124.852 48.2785" fill="#fffafa" fill-rule="nonzero" opacity="1" stroke="none"/>
<path d="M151.978 53.0823L148.878 53.0823L147.279 55.726C147.202 55.8523 147.176 55.8685 147.008 55.8685L146.348 55.8685C146.258 55.8685 146.194 55.8248 146.243 55.7323C146.274 55.676 151.049 47.946 151.049 47.946C151.139 47.796 151.184 47.7735 151.326 47.7735L151.876 47.7735C151.962 47.7848 151.987 47.796 152.026 47.9235C152.026 47.9235 153.951 55.666 153.968 55.7323C153.992 55.8198 153.972 55.8685 153.869 55.8685L152.764 55.8685C152.664 55.8798 152.614 55.8423 152.593 55.7373L151.978 53.0823ZM151.811 52.4073L151.133 49.2873L149.298 52.4073L151.811 52.4073" fill="#fffafa" fill-rule="nonzero" opacity="1" stroke="none"/>
<path d="M163.866 48.5073L162.532 55.7085C162.507 55.841 162.458 55.876 162.343 55.8685L161.424 55.8685C161.304 55.876 161.257 55.8298 161.279 55.7123L162.609 48.5073L160.368 48.5073C160.176 48.5073 160.146 48.461 160.178 48.2898C160.263 47.831 160.274 47.7735 160.503 47.7735L166.256 47.7735C166.486 47.7735 166.478 47.8198 166.387 48.301C166.358 48.461 166.311 48.5073 166.118 48.5073L163.866 48.5073" fill="#fffafa" fill-rule="nonzero" opacity="1" stroke="none"/>
<path d="M173.351 55.7123C173.317 55.8185 173.298 55.876 173.173 55.8685L172.216 55.8685C172.107 55.8685 172.061 55.8248 172.088 55.701L173.523 47.9298C173.552 47.791 173.608 47.7623 173.797 47.7735L174.599 47.7735C174.778 47.7735 174.817 47.8248 174.789 47.9635L173.351 55.7123" fill="#fffafa" fill-rule="nonzero" opacity="1" stroke="none"/>
<path d="M185.086 56.041C182.741 56.041 181.293 54.321 181.754 51.821C182.132 49.7798 183.818 47.5898 186.662 47.5898C189.276 47.5898 190.238 49.586 189.971 51.581C189.638 54.081 187.532 56.041 185.086 56.041ZM186.484 48.2785C186.073 48.2785 185.644 48.381 185.252 48.5648C183.958 49.1848 183.343 50.4348 183.099 51.7535C183.017 52.201 182.983 52.5898 183.006 52.9573C183.069 54.4823 184.062 55.2735 185.214 55.2735C185.944 55.2735 186.839 54.941 187.532 54.1723C188.306 53.3123 188.529 52.246 188.633 51.6135C189.057 48.9098 187.443 48.2785 186.484 48.2785" fill="#fffafa" fill-rule="nonzero" opacity="1" stroke="none"/>
<path d="M202.586 53.9198L203.701 47.9123C203.722 47.8148 203.738 47.7735 203.844 47.7735L204.576 47.7735C204.709 47.7735 204.709 47.831 204.686 47.9185L203.232 55.7373C203.208 55.8685 203.169 55.876 203.059 55.8685L202.469 55.8685C202.382 55.8685 202.341 55.846 202.296 55.771L198.321 49.356L197.133 55.736C197.116 55.8448 197.103 55.8685 197.002 55.871C196.997 55.871 196.272 55.8685 196.257 55.8685C196.127 55.8673 196.114 55.8335 196.144 55.701L197.589 47.9123C197.608 47.8073 197.627 47.7623 197.804 47.7735L198.652 47.7735C198.774 47.7798 198.789 47.796 198.842 47.8948L202.586 53.9198" fill="#fffafa" fill-rule="nonzero" opacity="1" stroke="none"/>
<path d="M33.987 1.63226C18.9945 1.63226 4.69822 13.786 2.05572 28.7773C-0.588027 43.7698 9.42197 55.9223 24.4132 55.9223C32.002 55.9223 39.4107 52.8085 45.222 47.7885L20.0432 47.7885C19.5557 47.7973 18.9932 47.3873 19.1245 46.676L26.0595 9.51476C26.1782 8.80601 26.8282 8.38851 27.392 8.40226L37.502 8.40226C38.142 8.39351 38.702 8.98601 38.512 9.67351L32.6432 41.1623L51.1782 41.1623C53.7395 37.4498 55.5582 33.2398 56.3445 28.7773C58.9895 13.786 48.9782 1.63226 33.987 1.63226" fill="#ff0021" fill-rule="nonzero" opacity="1" stroke="none"/>
<path d="M173.653 39.041C173.653 37.6898 174.749 36.6923 176.046 36.6923C177.329 36.6923 178.427 37.6898 178.427 39.041C178.427 40.406 177.329 41.4035 176.046 41.4035C174.749 41.4035 173.653 40.406 173.653 39.041ZM176.046 41.011C177.112 41.011 177.953 40.1748 177.953 39.041C177.953 37.926 177.112 37.0848 176.046 37.0848C174.968 37.0848 174.127 37.926 174.127 39.041C174.127 40.1748 174.968 41.011 176.046 41.011ZM175.548 40.406L175.137 40.406L175.137 37.6898L176.171 37.6898C176.812 37.6898 177.131 37.926 177.131 38.4623C177.131 38.9473 176.826 39.1598 176.426 39.2098L177.198 40.406L176.738 40.406L176.022 39.2285L175.548 39.2285L175.548 40.406ZM176.041 38.8798C176.389 38.8798 176.701 38.8548 176.701 38.4373C176.701 38.101 176.394 38.0385 176.108 38.0385L175.548 38.0385L175.548 38.8798L176.041 38.8798" fill="#fffafa" fill-rule="nonzero" opacity="1" stroke="none"/>
</g>
</svg>
