<?xml version="1.0" encoding="UTF-8" standalone="no"?>
<!-- Created with Inkscape (http://www.inkscape.org/) -->

<svg
   xmlns:dc="http://purl.org/dc/elements/1.1/"
   xmlns:cc="http://creativecommons.org/ns#"
   xmlns:rdf="http://www.w3.org/1999/02/22-rdf-syntax-ns#"
   xmlns:svg="http://www.w3.org/2000/svg"
   xmlns="http://www.w3.org/2000/svg"
   version="1.1"
   width="892.91339"
   height="218.62204"
   id="svg6408">
  <defs
     id="defs6410" />
  <metadata
     id="metadata6413">
    <rdf:RDF>
      <cc:Work
         rdf:about="">
        <dc:format>image/svg+xml</dc:format>
        <dc:type
           rdf:resource="http://purl.org/dc/dcmitype/StillImage" />
        <dc:title></dc:title>
      </cc:Work>
    </rdf:RDF>
  </metadata>
  <g
     transform="translate(27.722617,-349.97965)"
     id="layer1">
    <g
       transform="matrix(3.4677771,0,0,3.4677771,-1632.2084,-1545.3497)"
       id="g6467">
      <g
         transform="matrix(0,1.25,1.25,0,497.74351,547.55097)"
         id="g6041">
        <path
           d="m 0,0 27.227,-27.23 7.964,7.96 -0.874,0.877 c -3.83,-3.828 -6.81,-6.804 -7.09,-7.087 C 26.396,-24.645 2.581,-0.834 1.746,0 c 0.835,0.83 24.65,24.645 25.481,25.477 0.28,-0.29 3.276,-3.278 7.118,-7.122 l 0.874,0.88 -7.992,7.989 L 0,0"
           id="path6043"
           style="fill:#d4622a;fill-opacity:1;fill-rule:nonzero;stroke:none" />
      </g>
      <g
         transform="matrix(0,1.25,1.25,0,503.90251,581.62447)"
         id="g6045">
        <path
           d="m 0,0 -8.318,-8.333 -8.343,8.375 -4.985,-4.969 21.614,-21.615 21.614,21.615 -4.997,4.99 L 8.278,-8.248 0,0 z"
           id="path6047"
           style="fill:#d4622a;fill-opacity:1;fill-rule:nonzero;stroke:none" />
      </g>
      <g
         transform="matrix(0,1.25,1.25,0,505.43201,580.03385)"
         id="g6049">
        <path
           d="M 0,0 -7.111,7.094 -14.119,0.086 -7.011,-7.004 0,0 z"
           id="path6051"
           style="fill:#d4622a;fill-opacity:1;fill-rule:nonzero;stroke:none" />
      </g>
      <g
         transform="matrix(0,1.25,1.25,0,515.88613,590.48672)"
         id="g6053">
        <path
           d="M 0,0 -7.107,7.097 -14.118,0.087 -7.009,-7.014 0,0 z"
           id="path6055"
           style="fill:#d4622a;fill-opacity:1;fill-rule:nonzero;stroke:none" />
      </g>
      <g
         transform="matrix(0,1.25,1.25,0,505.66401,600.78822)"
         id="g6057">
        <path
           d="M 0,0 -6.956,6.917 -13.96,-0.09 -7.01,-7.006 0,0 z"
           id="path6059"
           style="fill:#d4622a;fill-opacity:1;fill-rule:nonzero;stroke:none" />
      </g>
      <g
         transform="matrix(0,1.25,1.25,0,543.99038,565.77548)"
         id="g6061">
        <path
           d="m 0,0 18.602,0 0,7.579 5.031,0 0,-13.719 L 0,-6.14 0,0 z"
           id="path6063"
           style="fill:#c6bbb0;fill-opacity:1;fill-rule:nonzero;stroke:none" />
      </g>
      <path
         d="m 567.86226,595.3166 0,-29.5425 -7.6875,0 0,29.5425 7.6875,0 z"
         id="path6065"
         style="fill:#c6bbb0;fill-opacity:1;fill-rule:nonzero;stroke:none" />
      <g
         transform="matrix(0,1.25,1.25,0,584.77163,565.77548)"
         id="g6067">
        <path
           d="m 0,0 14.563,3.966 0,0.088 -14.563,0 0,5.755 23.633,0 0,-6.75 -14.594,-4.104 0,-0.066 14.594,0 0,-5.765 L 0,-6.876 0,0 z"
           id="path6069"
           style="fill:#c6bbb0;fill-opacity:1;fill-rule:nonzero;stroke:none" />
      </g>
      <g
         transform="matrix(0,1.25,1.25,0,615.30876,571.7941)"
         id="g6071">
        <path
           d="m 0,0 10.032,-1.685 0,3.432 L 0,0.059 0,0 z m -4.815,3.905 23.633,5.761 0,-6.56 -4.139,-0.627 0,-4.902 4.139,-0.628 0,-6.454 -23.633,5.662 0,7.748 z"
           id="path6073"
           style="fill:#c6bbb0;fill-opacity:1;fill-rule:nonzero;stroke:none" />
      </g>
      <g
         transform="matrix(0,1.25,1.25,0,644.36276,565.77548)"
         id="g6075">
        <path
           d="m 0,0 14.001,2.479 0,0.066 L 0,5.026 l 0,8.794 23.633,0 0,-5.763 -17.614,0 0,-0.066 17.614,-3.262 0,-4.429 -17.614,-3.268 0,-0.064 17.614,0 0,-5.76 L 0,-8.792 0,0 z"
           id="path6077"
           style="fill:#c6bbb0;fill-opacity:1;fill-rule:nonzero;stroke:none" />
      </g>
      <g
         transform="matrix(0,1.25,1.25,0,679.63376,571.7941)"
         id="g6079">
        <path
           d="m 0,0 10.032,-1.687 0,3.448 L 0,0.067 0,0 z m -4.815,3.912 23.633,5.76 0,-6.559 -4.139,-0.625 0,-4.904 4.139,-0.627 0,-6.455 -23.633,5.662 0,7.748 z"
           id="path6081"
           style="fill:#c6bbb0;fill-opacity:1;fill-rule:nonzero;stroke:none" />
      </g>
      <g
         transform="matrix(0,1.25,1.25,0,707.18864,578.2541)"
         id="g6083">
        <path
           d="m 0,0 c 0,0.891 -0.258,1.553 -0.778,1.974 -0.517,0.421 -1.194,0.641 -2.031,0.641 -0.993,0 -1.697,-0.212 -2.108,-0.627 -0.425,-0.406 -0.63,-1.08 -0.63,-2.015 l 0,-1.201 5.547,0 L 0,0 z m -9.983,2.266 c 0,1.17 0.15,2.165 0.461,2.992 0.31,0.827 0.742,1.5 1.308,2.024 0.562,0.513 1.228,0.892 2.003,1.122 0.77,0.232 1.609,0.351 2.513,0.351 1.587,0 2.87,-0.322 3.834,-0.965 0.97,-0.64 1.567,-1.661 1.787,-3.07 l 0.069,0 c 0.131,1.475 0.649,2.488 1.556,3.036 0.902,0.55 2.155,0.828 3.744,0.828 l 2.019,0 0.964,0 c 0.329,0 0.644,0.009 0.938,0.035 0.305,0.017 0.574,0.051 0.816,0.098 0.243,0.041 0.427,0.096 0.563,0.163 0.131,0.082 0.26,0.178 0.381,0.265 0.122,0.086 0.235,0.235 0.348,0.425 l 0.329,0 0,-6.532 C 13.338,2.879 12.977,2.762 12.558,2.69 12.137,2.615 11.719,2.552 11.3,2.523 10.882,2.491 10.475,2.465 10.094,2.456 9.706,2.443 9.391,2.443 9.15,2.443 l -1.593,0 C 6.897,2.443 6.347,2.403 5.899,2.335 5.459,2.267 5.115,2.152 4.859,1.988 4.605,1.827 4.428,1.61 4.331,1.354 4.228,1.095 4.181,0.776 4.181,0.408 l 0,-1.636 9.469,0 0,-6.142 -23.633,0 0,9.636"
           id="path6085"
           style="fill:#c6bbb0;fill-opacity:1;fill-rule:nonzero;stroke:none" />
      </g>
    </g>
  </g>
</svg>
