<?xml version="1.0" encoding="UTF-8" standalone="no"?>
<!DOCTYPE svg PUBLIC "-//W3C//DTD SVG 1.1//EN" "http://www.w3.org/Graphics/SVG/1.1/DTD/svg11.dtd">
<!-- Created with Vectornator (http://vectornator.io/) -->
<svg height="100%" stroke-miterlimit="10" style="fill-rule:nonzero;clip-rule:evenodd;stroke-linecap:round;stroke-linejoin:round;" version="1.1" viewBox="0 0 284 109.333" width="100%" xml:space="preserve" xmlns="http://www.w3.org/2000/svg" xmlns:xlink="http://www.w3.org/1999/xlink">
<defs/>
<g id="g8">
<g opacity="1">
<path d="M115.922 16.3281L143.329 16.3448L115.915 47.3833L115.922 16.3281ZM112.195 16.3281L84.7869 16.3448L112.202 47.3833L112.195 16.3281ZM23.4333 28.1109C26.1292 28.1109 28.3145 30.2964 28.3145 32.9921C28.3145 35.688 26.1292 37.8735 23.4333 37.8735C20.738 37.8735 18.5521 35.688 18.5521 32.9921C18.5521 30.2964 20.738 28.1109 23.4333 28.1109ZM23.4333 39.0645C26.1292 39.0645 28.3145 41.25 28.3145 43.9464C28.3145 46.6416 26.1292 48.8271 23.4333 48.8271C20.738 48.8271 18.5521 46.6416 18.5521 43.9464C18.5521 41.25 20.738 39.0645 23.4333 39.0645ZM23.4333 60.9713C26.1292 60.9713 28.3145 63.1573 28.3145 65.8531C28.3145 68.5484 26.1292 70.7344 23.4333 70.7344C20.738 70.7344 18.5521 68.5484 18.5521 65.8531C18.5521 63.1573 20.738 60.9713 23.4333 60.9713ZM23.4333 71.9249C26.1292 71.9249 28.3145 74.1104 28.3145 76.8068C28.3145 79.5021 26.1292 81.6875 23.4333 81.6875C20.738 81.6875 18.5521 79.5021 18.5521 76.8068C18.5521 74.1104 20.738 71.9249 23.4333 71.9249ZM68.5839 28.1109C71.2792 28.1109 73.4645 30.2964 73.4645 32.9921C73.4645 35.688 71.2792 37.8735 68.5839 37.8735C65.888 37.8735 63.7021 35.688 63.7021 32.9921C63.7021 30.2964 65.888 28.1109 68.5839 28.1109ZM68.5839 39.0645C71.2792 39.0645 73.4645 41.25 73.4645 43.9464C73.4645 46.6416 71.2792 48.8271 68.5839 48.8271C65.888 48.8271 63.7021 46.6416 63.7021 43.9464C63.7021 41.25 65.888 39.0645 68.5839 39.0645ZM68.5839 60.9713C71.2792 60.9713 73.4645 63.1573 73.4645 65.8531C73.4645 68.5484 71.2792 70.7344 68.5839 70.7344C65.888 70.7344 63.7021 68.5484 63.7021 65.8531C63.7021 63.1573 65.888 60.9713 68.5839 60.9713ZM68.5839 71.9249C71.2792 71.9249 73.4645 74.1104 73.4645 76.8068C73.4645 79.5021 71.2792 81.6875 68.5839 81.6875C65.888 81.6875 63.7021 79.5021 63.7021 76.8068C63.7021 74.1104 65.888 71.9249 68.5839 71.9249ZM23.4333 17.1573C26.1292 17.1573 28.3145 19.3432 28.3145 22.0385C28.3145 24.7344 26.1292 26.9203 23.4333 26.9203C20.738 26.9203 18.5521 24.7344 18.5521 22.0385C18.5521 19.3432 20.738 17.1573 23.4333 17.1573ZM23.4333 50.0183C26.1292 50.0183 28.3145 52.2036 28.3145 54.8995C28.3145 57.5953 26.1292 59.7807 23.4333 59.7807C20.738 59.7807 18.5521 57.5953 18.5521 54.8995C18.5521 52.2036 20.738 50.0183 23.4333 50.0183ZM23.4333 82.8792C26.1292 82.8792 28.3145 85.0645 28.3145 87.7599C28.3145 90.4557 26.1292 92.6412 23.4333 92.6412C20.738 92.6412 18.5521 90.4557 18.5521 87.7599C18.5521 85.0645 20.738 82.8792 23.4333 82.8792ZM34.3869 17.1573C37.0828 17.1573 39.2683 19.3432 39.2683 22.0385C39.2683 24.7344 37.0828 26.9203 34.3869 26.9203C31.6912 26.9203 29.5057 24.7344 29.5057 22.0385C29.5057 19.3432 31.6912 17.1573 34.3869 17.1573ZM34.3869 50.0183C37.0828 50.0183 39.2683 52.2036 39.2683 54.8995C39.2683 57.5953 37.0828 59.7807 34.3869 59.7807C31.6912 59.7807 29.5057 57.5953 29.5057 54.8995C29.5057 52.2036 31.6912 50.0183 34.3869 50.0183ZM34.3869 82.8792C37.0828 82.8792 39.2683 85.0645 39.2683 87.7599C39.2683 90.4557 37.0828 92.6412 34.3869 92.6412C31.6912 92.6412 29.5057 90.4557 29.5057 87.7599C29.5057 85.0645 31.6912 82.8792 34.3869 82.8792ZM45.3407 17.1573C48.0364 17.1573 50.2219 19.3432 50.2219 22.0385C50.2219 24.7344 48.0364 26.9203 45.3407 26.9203C42.6448 26.9203 40.4588 24.7344 40.4588 22.0385C40.4588 19.3432 42.6448 17.1573 45.3407 17.1573ZM45.3407 50.0183C48.0364 50.0183 50.2219 52.2036 50.2219 54.8995C50.2219 57.5953 48.0364 59.7807 45.3407 59.7807C42.6448 59.7807 40.4588 57.5953 40.4588 54.8995C40.4588 52.2036 42.6448 50.0183 45.3407 50.0183ZM45.3407 82.8792C48.0364 82.8792 50.2219 85.0645 50.2219 87.7599C50.2219 90.4557 48.0364 92.6412 45.3407 92.6412C42.6448 92.6412 40.4588 90.4557 40.4588 87.7599C40.4588 85.0645 42.6448 82.8792 45.3407 82.8792ZM56.2943 17.1573C58.9896 17.1573 61.1755 19.3432 61.1755 22.0385C61.1755 24.7344 58.9896 26.9203 56.2943 26.9203C53.5984 26.9203 51.4131 24.7344 51.4131 22.0385C51.4131 19.3432 53.5984 17.1573 56.2943 17.1573ZM56.2943 50.0183C58.9896 50.0183 61.1755 52.2036 61.1755 54.8995C61.1755 57.5953 58.9896 59.7807 56.2943 59.7807C53.5984 59.7807 51.4131 57.5953 51.4131 54.8995C51.4131 52.2036 53.5984 50.0183 56.2943 50.0183ZM56.2943 82.8792C58.9896 82.8792 61.1755 85.0645 61.1755 87.7599C61.1755 90.4557 58.9896 92.6412 56.2943 92.6412C53.5984 92.6412 51.4131 90.4557 51.4131 87.7599C51.4131 85.0645 53.5984 82.8792 56.2943 82.8792" fill="#ffffff" fill-rule="evenodd" opacity="1" stroke="none"/>
<path d="M239.219 38.9375L239.219 90.875L244.375 90.875L244.375 74.5625C244.375 74.4105 244.504 74.2818 244.656 74.2812C246.36 74.2775 248.077 74.252 249.781 74.25C250.465 74.2489 251.128 74.2359 251.812 74.25C252.398 74.2615 253.01 74.3052 253.594 74.3438C254.091 74.3771 254.572 74.4251 255.062 74.5C255.484 74.5625 255.905 74.6297 256.312 74.75C257.006 74.9547 257.655 75.2521 258.188 75.75C258.764 76.2901 259.126 76.9772 259.375 77.7188C259.524 78.1651 259.632 78.6318 259.719 79.0938C259.821 79.6453 259.879 80.2228 259.938 80.7812C260.007 81.4474 260.053 82.1131 260.094 82.7812C260.142 83.573 260.187 84.364 260.219 85.1562C260.299 87.0702 260.353 88.9615 260.438 90.875L264.906 90.875C264.905 89.6313 264.894 88.4005 264.875 87.1562C264.859 86.0016 264.858 84.8416 264.812 83.6875C264.772 82.6995 264.706 81.7041 264.625 80.7188C264.556 79.8838 264.469 79.0474 264.344 78.2188C264.15 76.9444 263.849 75.6589 263.344 74.4688C262.954 73.5496 262.453 72.7135 261.719 72.0312C260.984 71.3499 260.088 70.8823 259.156 70.5312C258.607 70.325 258.069 70.1703 257.5 70.0312C256.843 69.8703 256.168 69.7364 255.5 69.625C255.359 69.6015 255.238 69.4552 255.25 69.3125C255.259 69.2089 255.343 69.1323 255.438 69.0938C255.453 69.0812 255.455 69.0755 255.469 69.0625C255.527 69.0082 255.6 68.9328 255.656 68.875C255.846 68.6777 256.037 68.487 256.219 68.2812C256.817 67.5985 257.398 66.8942 257.969 66.1875C258.751 65.2218 259.499 64.2412 260.25 63.25C261.102 62.1265 261.945 60.9693 262.75 59.8125C263.606 58.5813 264.415 57.3489 265.188 56.0625L260.031 56.0625C259.437 57.0245 258.845 58.0064 258.25 58.9688C257.663 59.9184 257.068 60.8589 256.438 61.7812C255.82 62.6843 255.17 63.5656 254.469 64.4062C253.141 65.9984 251.619 67.4479 249.781 68.4375C248.125 69.3291 246.349 69.7823 244.469 69.7812C244.317 69.7812 244.188 69.6516 244.188 69.5L244.188 38.9375L239.219 38.9375ZM183.531 54.625C178.159 54.437 173.567 56.1864 169.75 59.9375C165.93 63.626 164 68.1229 164 73.3125C164 78.3136 165.815 82.6551 169.375 86.2812C172.934 89.9067 177.262 91.7811 182.375 91.9688C187.754 92.1421 192.353 90.3333 196.188 86.5625L196.188 77.9688C195.501 79.8666 194.368 81.6177 192.781 83.2188C189.933 86.0942 186.516 87.4693 182.438 87.2812C178.683 87.0942 175.435 85.6566 172.781 82.8438C170.127 80.0302 168.903 76.689 168.969 72.9375C169.034 69.1244 170.404 65.938 173.188 63.25C175.971 60.562 179.269 59.25 183.219 59.25C186.972 59.25 190.189 60.562 192.844 63.25C195.497 65.938 196.935 69.1234 197 72.875L197 73.0312L197.125 91.1562L201.906 91.1562L201.906 73.5L201.906 73.25C202.101 68.3115 200.374 64.0016 196.75 60.375C193.126 56.6874 188.71 54.8125 183.531 54.625ZM119.312 54.75C115.299 55.0625 112.085 56.4994 109.625 59.0625C106.971 61.751 105.656 65.3745 105.656 69.8125L105.656 91.1562L110.781 91.1562L110.781 69.25C110.781 66.4369 111.569 64.1255 113.188 62.1875C114.806 60.2495 116.94 59.25 119.594 59.25C122.313 59.25 124.62 60.1244 126.562 61.8125C128.569 63.4994 129.562 65.6239 129.562 68.1875L129.562 91.1562L134.719 91.1562L134.719 68.1875C134.719 65.6239 135.714 63.4995 137.656 61.8125C139.663 60.1244 141.969 59.25 144.688 59.25C147.342 59.25 149.57 60.2495 151.188 62.1875C152.807 64.1255 153.625 66.4995 153.625 69.25L153.625 91.1562L158.75 91.1562L158.75 69.8125C158.75 65.3745 157.372 61.751 154.719 59.0625C152.195 56.4994 148.981 55.0625 144.969 54.75C139.595 54.312 135.328 56.5619 132.156 61.375C128.984 56.5619 124.685 54.312 119.312 54.75ZM232.719 55.2812C226.617 55.0963 221.071 56.2635 217.938 62.125L217.938 55.8125L213.344 55.8125L213.344 91.1562L218.531 91.1562L218.531 71.1562C218.531 68.8427 218.954 66.8313 219.812 65.4688C222.615 61.025 226.848 59.6495 232.719 60.0312L232.719 55.2812ZM80.25 69L80.25 74.5L97.875 74.5L97.875 69L80.25 69Z" fill="#ffffff" fill-rule="nonzero" opacity="1" stroke="none"/>
</g>
</g>
</svg>
