<?xml version="1.0" encoding="UTF-8" standalone="no"?>
<!DOCTYPE svg PUBLIC "-//W3C//DTD SVG 1.1//EN" "http://www.w3.org/Graphics/SVG/1.1/DTD/svg11.dtd">
<!-- Created with Vectornator (http://vectornator.io/) -->
<svg height="100%" stroke-miterlimit="10" style="fill-rule:nonzero;clip-rule:evenodd;stroke-linecap:round;stroke-linejoin:round;" version="1.1" viewBox="0 0 135 35" width="100%" xml:space="preserve" xmlns="http://www.w3.org/2000/svg" xmlns:xlink="http://www.w3.org/1999/xlink">
<defs/>
<clipPath id="ArtboardFrame">
<rect height="35" width="135" x="0" y="0"/>
</clipPath>
<g clip-path="url(#ArtboardFrame)" id="Layer-1">
<path d="M34.77 24.3971L39.031 24.3971C39.267 24.3971 39.469 24.2281 39.511 23.9961L42.935 5.13111L49.624 5.13111L48.134 13.3381L43.139 13.3381C42.983 13.3381 42.849 13.4491 42.821 13.6031L42.011 18.1031C41.977 18.2941 42.123 18.4701 42.317 18.4701L47.203 18.4701L46.216 23.9061C46.17 24.1621 46.366 24.3971 46.626 24.3971L50.887 24.3971C51.123 24.3971 51.325 24.2281 51.367 23.9961L55.425 1.63811C55.579 0.785107 54.924 0.000106812 54.057 0.000106812L40.347 0.000106812C39.393 0.000106812 38.575 0.683105 38.405 1.62211L34.36 23.9061C34.314 24.1621 34.51 24.3971 34.77 24.3971" fill="#0054a6" fill-rule="nonzero" opacity="1" stroke="none"/>
<path d="M95.7188 24.3971L100.092 24.3971C100.301 24.3971 100.481 24.2471 100.518 24.0411L103.949 5.13111L110.638 5.13111L109.149 13.3381L104.154 13.3381C103.997 13.3381 103.864 13.4491 103.836 13.6031L103.026 18.1031C102.992 18.2941 103.139 18.4701 103.332 18.4701L108.218 18.4701L107.219 23.9711C107.179 24.1931 107.35 24.3971 107.575 24.3971L111.947 24.3971C112.157 24.3971 112.337 24.2471 112.374 24.0411L116.451 1.57311C116.6 0.754107 115.971 0.000106812 115.138 0.000106812L101.317 0.000106812C100.389 0.000106812 99.5938 0.664106 99.4278 1.57711L95.3628 23.9711C95.3228 24.1931 95.4938 24.3971 95.7188 24.3971" fill="#0054a6" fill-rule="nonzero" opacity="1" stroke="none"/>
<path d="M55.5786 24.3971L59.7786 24.3971C60.0146 24.3971 60.2166 24.2281 60.2586 23.9961L63.6826 5.13111L69.4766 5.13111L68.6306 9.78911L63.3136 12.8911C62.9976 13.0751 62.8686 13.4661 63.0116 13.8031L67.3806 24.0401C67.4726 24.2561 67.6856 24.3971 67.9206 24.3971L72.9956 24.3971C73.2106 24.3971 73.3566 24.1771 73.2716 23.9791L69.4936 15.1011L72.5346 13.2641C72.9866 12.9911 73.2996 12.5381 73.3926 12.0191L75.2776 1.63811C75.4316 0.785107 74.7766 0.000106812 73.9096 0.000106812L60.8856 0.000106812C60.0526 0.000106812 59.3386 0.596106 59.1896 1.41511L55.1186 23.8461C55.0666 24.1331 55.2876 24.3971 55.5786 24.3971" fill="#0054a6" fill-rule="nonzero" opacity="1" stroke="none"/>
<path d="M75.4958 24.3971L79.6308 24.3971C79.8668 24.3971 80.0688 24.2281 80.1118 23.9961L84.3678 0.545107C84.4188 0.261106 84.2008 0.000106812 83.9128 0.000106812L79.7068 0.000106812C79.4708 0.000106812 79.2678 0.169106 79.2268 0.401106L74.9828 23.7831C74.9248 24.1031 75.1708 24.3971 75.4958 24.3971" fill="#0054a6" fill-rule="nonzero" opacity="1" stroke="none"/>
<path d="M83.0019 13.3708L87.6469 24.0438C87.7409 24.2578 87.9519 24.3968 88.1859 24.3968L93.2689 24.3968C93.4859 24.3968 93.6309 24.1748 93.5449 23.9768L88.7649 13.0078L97.2979 0.9748C97.5879 0.5658 97.2959 0.000800133 96.7939 0.000800133L92.1999 0.000800133C92.0239 0.000800133 91.8579 0.0858002 91.7559 0.2298L83.0999 12.4268C82.9039 12.7028 82.8669 13.0608 83.0019 13.3708" fill="#0054a6" fill-rule="nonzero" opacity="1" stroke="none"/>
<path d="M116.532 24.3971L133.428 24.3891C133.862 24.3891 134.125 23.9131 133.894 23.5461L131.442 19.6661C131.285 19.4181 131.012 19.2671 130.718 19.2671L122.132 19.2661L125.539 0.491106C125.585 0.235106 125.389 0.000106812 125.13 0.000106812L120.869 0.000106812C120.633 0.000106812 120.431 0.169106 120.389 0.401106L116.123 23.9061C116.076 24.1621 116.272 24.3971 116.532 24.3971" fill="#0054a6" fill-rule="nonzero" opacity="1" stroke="none"/>
<path d="M133.331 27.964L29.9 27.964L34.885 0.491001C34.932 0.235001 34.735 0 34.476 0L29.908 0C29.582 0 29.281 0.174 29.117 0.455L16.303 22.492L11.516 0.587C11.441 0.244001 11.138 0 10.788 0L1.39997 0C0.92296 0 0.632967 0.526001 0.887972 0.929001L4.89096 5.69L0.00696004 32.605C-0.040037 32.861 0.156969 33.095 0.416964 33.095L4.67696 33.095C4.91297 33.095 5.11597 32.927 5.15796 32.694L8.94696 11.814L13.69 32.484C13.89 33.357 15.054 33.536 15.508 32.764L27.591 12.213L23.89 32.605C23.844 32.861 24.04 33.095 24.299 33.095L127.214 33.095C127.504 33.095 127.788 33.009 128.029 32.848L133.668 29.073C134.166 28.74 133.93 27.964 133.331 27.964" fill="#0054a6" fill-rule="nonzero" opacity="1" stroke="none"/>
</g>
</svg>
