<?xml version="1.0" encoding="UTF-8" standalone="no"?>
<!DOCTYPE svg PUBLIC "-//W3C//DTD SVG 1.1//EN" "http://www.w3.org/Graphics/SVG/1.1/DTD/svg11.dtd">
<!-- Created with Vectornator (http://vectornator.io/) -->
<svg height="100%" stroke-miterlimit="10" style="fill-rule:nonzero;clip-rule:evenodd;stroke-linecap:round;stroke-linejoin:round;" version="1.1" viewBox="0 0 253.5 222" width="100%" xml:space="preserve" xmlns="http://www.w3.org/2000/svg" xmlns:xlink="http://www.w3.org/1999/xlink">
<defs/>
<g id="Untitled">
<g opacity="1">
<path d="M32.1844 219.454C35.0878 218.166 37.2378 216.234 38.6458 213.658C40.0538 211.082 40.7632 207.852 40.7632 203.999C40.7632 200.135 40.0538 196.915 38.6458 194.329C37.2378 191.753 35.0878 189.821 32.1844 188.544C29.292 187.256 25.6138 186.623 21.1609 186.623C16.7079 186.623 13.0516 187.256 10.1918 188.544C7.33231 189.821 5.19287 191.753 3.78492 194.329C2.37697 196.916 1.66752 200.135 1.66752 203.999C1.66752 207.852 2.37697 211.083 3.78492 213.658C5.1929 216.234 7.33203 218.166 10.1918 219.454C13.0513 220.731 16.7185 221.375 21.2154 221.375C25.6356 221.375 29.292 220.731 32.1844 219.454M14.372 213.462C12.7022 212.72 11.5017 211.574 10.7811 210.013C10.0498 208.452 9.68961 206.466 9.68961 204.053C9.68961 201.598 10.0389 199.6 10.7483 198.061C11.4578 196.523 12.6365 195.366 14.3172 194.58C15.9871 193.805 18.2684 193.412 21.1605 193.412C24.1293 193.412 26.4431 193.783 28.0913 194.525C29.7503 195.267 30.929 196.424 31.6275 197.985C32.3369 199.546 32.6862 201.543 32.6862 203.999C32.6862 206.487 32.3369 208.485 31.6275 210.013C30.929 211.53 29.7284 212.676 28.0365 213.44C26.3448 214.193 24.0527 214.575 21.1605 214.575C18.3011 214.575 16.0417 214.204 14.3717 213.462M80.0219 187.235L80.0219 220.753L87.6512 220.753L87.6512 210.395L99.1224 210.395C103.543 210.395 106.85 209.5 109.033 207.699C111.227 205.898 112.329 202.951 112.329 198.869C112.329 195.944 111.827 193.63 110.845 191.938C109.862 190.247 108.411 189.046 106.501 188.315C104.591 187.594 102.135 187.234 99.1225 187.234L80.0219 187.235ZM87.6512 203.999L87.6512 193.576L98.6747 193.576C100.279 193.576 101.523 193.772 102.407 194.165C103.302 194.558 103.924 195.126 104.274 195.868C104.623 196.61 104.809 197.549 104.809 198.705C104.809 200.605 104.317 201.958 103.357 202.766C102.386 203.584 100.836 203.999 98.6746 203.999L87.6512 203.999ZM150.53 220.753L179.365 220.753L179.365 214.128L158.147 214.128L158.147 206.892L177.247 206.892L177.247 200.714L158.147 200.714L158.147 193.86L179.255 193.86L179.255 187.235L150.529 187.235L150.53 220.753ZM252.71 220.753L252.71 213.91L232.442 213.91L232.442 187.235L224.812 187.235L224.812 220.753L252.71 220.753Z" fill="#ffffff" fill-rule="nonzero" opacity="1" stroke="none"/>
<path d="M125.759 143.845C88.7483 143.845 58.6362 113.733 58.6362 76.7226C58.6362 74.8126 58.7343 72.9243 58.898 71.0582L115.009 74.5617L90.7245 91.3481C90.3971 91.5772 90.1788 91.9593 90.1788 92.3849C90.1788 93.0835 90.7464 93.6619 91.4449 93.6619L190.722 93.6619C183.191 122.497 156.919 143.847 125.759 143.847M125.759 9.59863C162.781 9.59863 192.882 39.7106 192.882 76.7213C192.882 78.6204 192.784 80.4978 192.631 82.3531L192.598 82.3531L136.487 78.7839L160.837 62.0959C161.176 61.8667 161.383 61.4847 161.383 61.059C161.383 60.3495 160.815 59.782 160.117 59.782L60.8062 59.782C68.3262 30.9469 94.598 9.59715 125.758 9.59715M221.989 84.2192L203.62 83.0514L201.405 82.9094C201.569 80.8684 201.678 78.8054 201.678 76.721C201.678 34.8654 167.623 0.810941 125.757 0.810941C89.7182 0.810941 59.4944 26.0562 51.7687 59.7804L34.9932 59.7804C34.0437 59.7804 33.2033 60.2279 32.6685 60.9264L28.379 66.853C28.1825 67.1039 28.0624 67.4206 28.0624 67.7589C28.0624 68.5666 28.7173 69.2215 29.5359 69.2215L47.8286 70.3566L50.1206 70.5094C49.9569 72.5613 49.8479 74.6243 49.8479 76.7198C49.8479 118.575 83.9024 152.641 125.758 152.641C161.796 152.641 192.031 127.385 199.746 93.6605L216.532 93.6605C217.482 93.6605 218.322 93.213 218.857 92.5145L223.146 86.5879C223.343 86.337 223.452 86.0204 223.452 85.682C223.452 84.8743 222.797 84.2194 221.99 84.2194" fill="#ffffff" fill-rule="nonzero" opacity="1" stroke="none"/>
</g>
</g>
</svg>
