<?xml version="1.0" encoding="UTF-8" standalone="no"?>
<!DOCTYPE svg PUBLIC "-//W3C//DTD SVG 1.1//EN" "http://www.w3.org/Graphics/SVG/1.1/DTD/svg11.dtd">
<!-- Created with Vectornator (http://vectornator.io/) -->
<svg height="100%" stroke-miterlimit="10" style="fill-rule:nonzero;clip-rule:evenodd;stroke-linecap:round;stroke-linejoin:round;" version="1.1" viewBox="0 0 342.2 55.38" width="100%" xml:space="preserve" xmlns="http://www.w3.org/2000/svg" xmlns:xlink="http://www.w3.org/1999/xlink">
<defs/>
<g id="Layer-1">
<g opacity="1">
<clipPath id="ClipPath">
<path d="M0 0L342.196 0L342.196 55.38L0 55.38"/>
</clipPath>
<g clip-path="url(#ClipPath)">
<path d="M1.2298 10.1069C11.885-0.547108 29.1262-0.547108 39.7789 10.1069" fill="none" opacity="1" stroke="#005581" stroke-linecap="butt" stroke-linejoin="miter" stroke-width="3.4776"/>
<path d="M1.2298 26.7145C11.885 16.0578 29.1262 16.0578 39.7789 26.7145" fill="none" opacity="1" stroke="#005581" stroke-linecap="butt" stroke-linejoin="miter" stroke-width="3.4776"/>
<path d="M1.2298 43.3194C11.885 32.6615 29.1262 32.6615 39.7789 43.3194" fill="none" opacity="1" stroke="#005581" stroke-linecap="butt" stroke-linejoin="miter" stroke-width="3.4776"/>
<path d="M83.4365 55.369L83.4365 48.3487L91.5696 48.3487L91.5696 49.3005L84.8607 49.3005L84.8607 51.6L88.6875 51.6L88.6875 52.539L84.8607 52.539L84.8607 55.369" fill="#005581" fill-rule="nonzero" opacity="1" stroke="none"/>
<path d="M95.4123 48.3487L95.4123 54.3892L101.641 54.3892L101.641 48.3487L103.065 48.3487L103.065 53.709C103.065 54.3535 102.926 54.7909 102.65 55.0218C102.373 55.2536 101.848 55.369 101.074 55.369L95.9957 55.369C95.221 55.369 94.6924 55.2536 94.4108 55.0218C94.1291 54.7909 93.9874 54.3535 93.9874 53.709L93.9874 48.3487" fill="#005581" fill-rule="nonzero" opacity="1" stroke="none"/>
<path d="M108.647 49.6002C108.691 49.8719 108.713 50.2167 108.713 50.6345L108.713 55.369L107.504 55.369L107.504 48.3487L108.664 48.3487L112.821 52.9203L116.698 48.3487L118.022 48.3487L118.022 55.369L116.698 55.369L116.698 50.6345L116.764 49.6002C116.575 49.9262 116.405 50.181 116.25 50.3618L112.986 54.2669L112.623 54.2669L109.227 50.4706C109.094 50.3263 108.901 50.0358 108.647 49.6002" fill="#005581" fill-rule="nonzero" opacity="1" stroke="none"/>
<path d="M122.462 55.369L122.462 48.3487L130.694 48.3487L130.694 49.287L123.886 49.287L123.886 51.2466L128.044 51.2466L128.044 52.1713L123.886 52.1713L123.886 54.4027L130.76 54.4027L130.76 55.369" fill="#005581" fill-rule="nonzero" opacity="1" stroke="none"/>
<path d="M140.352 55.369L140.352 48.3487L148.584 48.3487L148.584 49.287L141.776 49.287L141.776 51.2466L145.933 51.2466L145.933 52.1713L141.776 52.1713L141.776 54.4027L148.65 54.4027L148.65 55.369" fill="#005581" fill-rule="nonzero" opacity="1" stroke="none"/>
<path d="M150.82 55.369L154.961 51.7502L150.753 48.3487L152.807 48.3487L155.805 51.0013L158.622 48.3487L160.394 48.3487L156.634 51.6406L161.222 55.369L159.168 55.369L155.772 52.3759L152.625 55.369" fill="#005581" fill-rule="nonzero" opacity="1" stroke="none"/>
<path d="M167.169 49.3005L167.169 55.369L165.744 55.369L165.744 49.3005L161.835 49.3005L161.835 48.3487L171.094 48.3487L171.094 49.3005" fill="#005581" fill-rule="nonzero" opacity="1" stroke="none"/>
<path d="M179.823 49.2598L174.921 49.2598L174.921 51.7231L179.823 51.7231C180.166 51.7231 180.406 51.6729 180.545 51.5727C180.682 51.4734 180.751 51.2823 180.751 51.0013L180.751 49.9806C180.751 49.7089 180.682 49.5204 180.545 49.416C180.406 49.3124 180.166 49.2598 179.823 49.2598ZM173.497 55.369L173.497 48.3487L180.374 48.3487C181.002 48.3487 181.459 48.4549 181.745 48.668C182.032 48.881 182.176 49.2284 182.176 49.7089L182.176 51.2739C182.176 51.7544 182.032 52.1017 181.745 52.3148C181.459 52.528 181.002 52.6341 180.374 52.6341L179.117 52.6341L183.027 55.369L180.906 55.369L177.432 52.6341L174.921 52.6341L174.921 55.369" fill="#005581" fill-rule="nonzero" opacity="1" stroke="none"/>
<path d="M187.543 52.7428L192.148 52.7428L189.845 49.151L187.543 52.7428ZM184.445 55.369L189.116 48.3487L190.64 48.3487L195.394 55.369L193.821 55.369L192.728 53.641L186.946 53.641L185.852 55.369" fill="#005581" fill-rule="nonzero" opacity="1" stroke="none"/>
<path d="M205.398 49.287L199.469 49.287L199.469 54.3892L205.398 54.3892L205.398 52.6341L206.823 52.8795L206.823 53.709C206.823 54.362 206.684 54.8019 206.409 55.0286C206.133 55.2561 205.608 55.369 204.835 55.369L200.048 55.369C199.275 55.369 198.748 55.2536 198.466 55.0218C198.185 54.7909 198.044 54.3535 198.044 53.709L198.044 50.0078C198.044 49.3643 198.185 48.9269 198.466 48.6951C198.748 48.4642 199.275 48.3487 200.048 48.3487L204.835 48.3487C205.608 48.3487 206.133 48.4599 206.409 48.6833C206.684 48.9074 206.823 49.3438 206.823 49.9942L206.823 50.6616L205.398 50.8789" fill="#005581" fill-rule="nonzero" opacity="1" stroke="none"/>
<path d="M213.895 49.3005L213.895 55.369L212.471 55.369L212.471 49.3005L208.562 49.3005L208.562 48.3487L217.821 48.3487L217.821 49.3005" fill="#005581" fill-rule="nonzero" opacity="1" stroke="none"/>
<path d="M220.223 55.369L221.647 55.369L221.647 48.3487L220.223 48.3487L220.223 55.369Z" fill="#005581" fill-rule="nonzero" opacity="1" stroke="none"/>
<path d="M227.395 54.3892L234.467 54.3892L234.467 49.287L227.395 49.287L227.395 54.3892ZM225.97 50.0078C225.97 49.3643 226.111 48.9269 226.393 48.6951C226.675 48.4642 227.203 48.3487 227.978 48.3487L233.901 48.3487C234.675 48.3487 235.201 48.4642 235.478 48.6951C235.754 48.9269 235.892 49.3643 235.892 50.0078L235.892 53.709C235.892 54.3535 235.754 54.7909 235.478 55.0218C235.201 55.2536 234.675 55.369 233.901 55.369L227.978 55.369C227.203 55.369 226.675 55.2536 226.393 55.0218C226.111 54.7909 225.97 54.3535 225.97 53.709" fill="#005581" fill-rule="nonzero" opacity="1" stroke="none"/>
<path d="M240.215 55.369L240.215 48.3487L241.11 48.3487L247.505 53.0425C247.815 53.2692 248.14 53.5639 248.483 53.9264C248.393 53.4916 248.348 52.9151 248.348 52.1984L248.348 48.3487L249.673 48.3487L249.673 55.369L248.879 55.369L242.303 50.4842C242.059 50.3032 241.922 50.1988 241.889 50.1717C241.711 50.0265 241.563 49.8677 241.441 49.6953C241.507 50.1123 241.54 50.6252 241.54 51.2331L241.54 55.369" fill="#005581" fill-rule="nonzero" opacity="1" stroke="none"/>
<path d="M267.58 49.287L261.534 49.287L261.534 51.2602L266.917 51.2602C267.69 51.2602 268.214 51.3783 268.491 51.6135C268.767 51.8496 268.905 52.2851 268.905 52.9203L268.905 53.709C268.905 54.3535 268.767 54.7909 268.491 55.0218C268.214 55.2536 267.69 55.369 266.917 55.369L261.931 55.369C261.158 55.369 260.63 55.2536 260.35 55.0218C260.068 54.7909 259.927 54.3535 259.927 53.709L259.927 53.5188L261.252 53.2598L261.252 54.3892L267.613 54.3892L267.613 52.2809L262.247 52.2809C261.484 52.2809 260.962 52.1645 260.681 51.9336C260.399 51.7018 260.258 51.2645 260.258 50.6209L260.258 50.0078C260.258 49.3549 260.399 48.915 260.681 48.6883C260.962 48.4617 261.484 48.3487 262.247 48.3487L266.802 48.3487C267.53 48.3487 268.047 48.4557 268.35 48.6705C268.653 48.8844 268.806 49.2852 268.806 49.8719L268.806 50.0214L267.58 50.3076" fill="#005581" fill-rule="nonzero" opacity="1" stroke="none"/>
<path d="M275.878 55.369L275.878 52.308L271.538 48.3487L273.311 48.3487L276.657 51.4775L279.854 48.3487L281.594 48.3487L277.303 52.2809L277.303 55.369" fill="#005581" fill-rule="nonzero" opacity="1" stroke="none"/>
<path d="M291.631 49.287L285.585 49.287L285.585 51.2602L290.968 51.2602C291.741 51.2602 292.265 51.3783 292.542 51.6135C292.818 51.8496 292.956 52.2851 292.956 52.9203L292.956 53.709C292.956 54.3535 292.818 54.7909 292.542 55.0218C292.265 55.2536 291.741 55.369 290.968 55.369L285.982 55.369C285.209 55.369 284.682 55.2536 284.401 55.0218C284.119 54.7909 283.978 54.3535 283.978 53.709L283.978 53.5188L285.303 53.2598L285.303 54.3892L291.665 54.3892L291.665 52.2809L286.298 52.2809C285.535 52.2809 285.013 52.1645 284.732 51.9336C284.45 51.7018 284.309 51.2645 284.309 50.6209L284.309 50.0078C284.309 49.3549 284.45 48.915 284.732 48.6883C285.013 48.4617 285.535 48.3487 286.298 48.3487L290.853 48.3487C291.581 48.3487 292.098 48.4557 292.401 48.6705C292.704 48.8844 292.857 49.2852 292.857 49.8719L292.857 50.0214L291.631 50.3076" fill="#005581" fill-rule="nonzero" opacity="1" stroke="none"/>
<path d="M300.592 49.3005L300.592 55.369L299.167 55.369L299.167 49.3005L295.258 49.3005L295.258 48.3487L304.518 48.3487L304.518 49.3005" fill="#005581" fill-rule="nonzero" opacity="1" stroke="none"/>
<path d="M306.918 55.369L306.918 48.3487L315.151 48.3487L315.151 49.287L308.343 49.287L308.343 51.2466L312.501 51.2466L312.501 52.1713L308.343 52.1713L308.343 54.4027L315.217 54.4027L315.217 55.369" fill="#005581" fill-rule="nonzero" opacity="1" stroke="none"/>
<path d="M319.757 49.6002C319.8 49.8719 319.823 50.2167 319.823 50.6345L319.823 55.369L318.613 55.369L318.613 48.3487L319.773 48.3487L323.931 52.9203L327.806 48.3487L329.131 48.3487L329.131 55.369L327.806 55.369L327.806 50.6345L327.872 49.6002C327.685 49.9262 327.514 50.181 327.359 50.3618L324.096 54.2669L323.732 54.2669L320.336 50.4706C320.203 50.3263 320.01 50.0358 319.757 49.6002" fill="#005581" fill-rule="nonzero" opacity="1" stroke="none"/>
<path d="M340.86 49.287L334.813 49.287L334.813 51.2602L340.196 51.2602C340.969 51.2602 341.493 51.3783 341.77 51.6135C342.046 51.8496 342.184 52.2851 342.184 52.9203L342.184 53.709C342.184 54.3535 342.046 54.7909 341.77 55.0218C341.493 55.2536 340.969 55.369 340.196 55.369L335.21 55.369C334.437 55.369 333.91 55.2536 333.629 55.0218C333.347 54.7909 333.206 54.3535 333.206 53.709L333.206 53.5188L334.531 53.2598L334.531 54.3892L340.893 54.3892L340.893 52.2809L335.526 52.2809C334.763 52.2809 334.241 52.1645 333.96 51.9336C333.678 51.7018 333.538 51.2645 333.538 50.6209L333.538 50.0078C333.538 49.3549 333.678 48.915 333.96 48.6883C334.241 48.4617 334.763 48.3487 335.526 48.3487L340.081 48.3487C340.809 48.3487 341.326 48.4557 341.629 48.6705C341.932 48.8844 342.085 49.2852 342.085 49.8719L342.085 50.0214L340.86 50.3076" fill="#005581" fill-rule="nonzero" opacity="1" stroke="none"/>
<path d="M114.473 7.04794L92.8771 7.04794L92.8771 18.167L114.473 18.167C115.965 18.167 117.006 18.0044 117.592 17.6796C118.392 17.1931 118.792 16.2472 118.792 14.8398L118.792 10.3753C118.792 8.96913 118.392 8.02282 117.592 7.53541C117.006 7.21055 115.965 7.04794 114.473 7.04794ZM83.439 41.285L83.439 0.00848465L118.792 0.00848465C124.977 0.00848465 128.07 2.67608 128.07 8.00793L128.07 17.2072C128.07 22.5403 124.977 25.2065 118.792 25.2065L92.8771 25.2065L92.8771 41.285" fill="#005581" fill-rule="nonzero" opacity="1" stroke="none"/>
<path d="M144.467 0.00848465L144.467 33.5259L171.821 33.5259L171.821 0.00848465L181.419 0.00848465L181.419 31.5255C181.419 35.3651 180.7 37.9523 179.26 39.2846C177.82 40.6185 175.128 41.285 171.181 41.285L145.106 41.285C141.16 41.285 138.469 40.6185 137.028 39.2846C135.589 37.9523 134.868 35.3651 134.868 31.5255L134.868 0.00848465" fill="#005581" fill-rule="nonzero" opacity="1" stroke="none"/>
<path d="M221.572 7.04794L199.977 7.04794L199.977 18.6467L221.572 18.6467C223.064 18.6467 224.104 18.4854 224.691 18.1631C225.491 17.6808 225.891 16.741 225.891 15.3446L225.891 10.3502C225.891 8.95509 225.491 8.01556 224.691 7.53156C224.104 7.20939 223.064 7.04794 221.572 7.04794ZM190.538 41.285L190.538 0.00848465L225.891 0.00848465C232.076 0.00848465 235.169 2.67608 235.169 8.00793L235.169 17.6868C235.169 23.02 232.076 25.6861 225.891 25.6861L220.451 25.6861L239.488 41.285L225.731 41.285L209.094 25.6861L199.977 25.6861L199.977 41.285" fill="#005581" fill-rule="nonzero" opacity="1" stroke="none"/>
<path d="M242.688 41.285L242.688 0.00848465L284.92 0.00848465L284.92 7.04794L252.285 7.04794L252.285 16.2472L271.322 16.2472L271.322 23.2862L252.285 23.2862L252.285 33.5259L285.319 33.5259L285.319 41.285" fill="#005581" fill-rule="nonzero" opacity="1" stroke="none"/>
<path d="M288.757 41.285L308.354 20.0868L288.437 0.00848465L301.155 0.00848465L314.352 14.0073L326.91 0.00848465L337.948 0.00848465L319.951 18.9668L342.187 41.285L329.15 41.285L314.033 25.2863L300.115 41.285" fill="#005581" fill-rule="nonzero" opacity="1" stroke="none"/>
<path d="M71.3001 54.9454L26.0777 54.9454C23.5188 54.9454 21.4362 52.8643 21.4362 50.305L21.4362 5.07675C21.4362 2.51762 23.5188 0.436441 26.0777 0.436441L71.3001 0.436441C73.8587 0.436441 75.9397 2.51762 75.9397 5.07675L75.9397 50.305C75.9397 52.8643 73.8587 54.9454 71.3001 54.9454" fill="#005581" fill-rule="nonzero" opacity="1" stroke="none"/>
<path d="M71.2993 0.871172L26.0769 0.871172C23.7578 0.871172 21.8709 2.75794 21.8709 5.0773L21.8709 50.305C21.8709 52.624 23.7578 54.5106 26.0769 54.5106L71.2993 54.5106C73.6184 54.5106 75.5054 52.624 75.5054 50.305L75.5054 5.0773C75.5054 2.75794 73.6184 0.871172 71.2993 0.871172ZM71.2993 0.00183122C74.1028 0.00183122 76.3748 2.27395 76.3748 5.0773L76.3748 50.305C76.3748 53.1087 74.1028 55.38 71.2993 55.38L26.0769 55.38C23.2734 55.38 21.0015 53.1087 21.0015 50.305L21.0015 5.0773C21.0015 2.27395 23.2734 0.00183122 26.0769 0.00183122L71.2993 0.00183122" fill="#005581" fill-rule="nonzero" opacity="1" stroke="none"/>
<g opacity="1">
<clipPath id="ClipPath_2">
<path d="M76.3748 50.305C76.3748 53.1087 74.1028 55.38 71.2993 55.38L26.0769 55.38C23.2734 55.38 21.0015 53.1087 21.0015 50.305L21.0015 5.0773C21.0015 2.27395 23.2734 0.00183122 26.0769 0.00183122L71.2993 0.00183122C74.1028 0.00183122 76.3748 2.27395 76.3748 5.0773"/>
</clipPath>
<g clip-path="url(#ClipPath_2)">
<path d="M1.229 10.1069C11.8842-0.547108 29.1253-0.547108 39.778 10.1069" fill="none" opacity="1" stroke="#ffffff" stroke-linecap="butt" stroke-linejoin="miter" stroke-width="3.4776"/>
<path d="M78.3271 10.1069C67.6718 20.7619 50.4299 20.7619 39.778 10.1069" fill="none" opacity="1" stroke="#ffffff" stroke-linecap="butt" stroke-linejoin="miter" stroke-width="3.4776"/>
<path d="M1.229 26.7145C11.8842 16.0578 29.1253 16.0578 39.778 26.7145" fill="none" opacity="1" stroke="#ffffff" stroke-linecap="butt" stroke-linejoin="miter" stroke-width="3.4776"/>
<path d="M78.3271 26.7145C67.6718 37.3681 50.4299 37.3681 39.778 26.7145" fill="none" opacity="1" stroke="#ffffff" stroke-linecap="butt" stroke-linejoin="miter" stroke-width="3.4776"/>
<path d="M1.229 43.3194C11.8842 32.6615 29.1253 32.6615 39.778 43.3194" fill="none" opacity="1" stroke="#ffffff" stroke-linecap="butt" stroke-linejoin="miter" stroke-width="3.4776"/>
<path d="M78.3271 43.3194C67.6718 53.9706 50.4299 53.9706 39.778 43.3194" fill="none" opacity="1" stroke="#ffffff" stroke-linecap="butt" stroke-linejoin="miter" stroke-width="3.4776"/>
</g>
</g>
</g>
</g>
</g>
</svg>
