<?xml version="1.0" encoding="UTF-8" standalone="no"?>
<!DOCTYPE svg PUBLIC "-//W3C//DTD SVG 1.1//EN" "http://www.w3.org/Graphics/SVG/1.1/DTD/svg11.dtd">
<!-- Created with Vectornator (http://vectornator.io/) -->
<svg height="100%" stroke-miterlimit="10" style="fill-rule:nonzero;clip-rule:evenodd;stroke-linecap:round;stroke-linejoin:round;" version="1.1" viewBox="0 0 117 20" width="100%" xml:space="preserve" xmlns="http://www.w3.org/2000/svg" xmlns:vectornator="http://vectornator.io" xmlns:xlink="http://www.w3.org/1999/xlink">
<defs/>
<clipPath id="ArtboardFrame">
<rect height="20" width="117" x="0" y="0"/>
</clipPath>
<g clip-path="url(#ArtboardFrame)" id="Layer-1" vectornator:layerName="Layer 1">
<g opacity="1">
<clipPath id="ClipPath">
<path d="M-2.76038 28.723L119.7 28.723L119.7-8.12787L-2.76038-8.12787L-2.76038 28.723Z"/>
</clipPath>
<g clip-path="url(#ClipPath)">
<path d="M7.63495 5.30516L10.28 5.30516C12.0441 5.30516 13.1401 5.82918 13.1401 7.35521C13.1401 8.97625 11.9491 9.45226 10.4 9.45226L7.63495 9.45226L7.63495 5.30516ZM0.0177639 19.0335L7.26294 19.0335L7.26294 12.7893L9.456 12.7893C11.9351 12.7893 12.2451 13.0754 12.5781 15.1964L13.1741 19.0335L20.4193 19.0335L19.4902 13.2654C19.2042 11.5263 17.8212 10.9303 16.1532 10.8823L16.1532 10.6443C18.2982 10.2633 19.8713 8.83325 19.8713 6.56819C19.8713 2.7551 16.9642 1.82608 12.2681 1.82608L0.0177639 1.82608L0.0177639 19.0335Z" fill="#0068a6" fill-rule="evenodd" opacity="1" stroke="none"/>
<path d="M22.6047 19.0335L39.1931 19.0335L39.1931 15.4114L29.6119 15.4114L29.6119 12.2413L38.5021 12.2413L38.5021 8.61824L29.6119 8.61824L29.6119 5.44816L39.0981 5.44816L39.0981 1.82607L22.6047 1.82607L22.6047 19.0335Z" fill="#0068a6" fill-rule="nonzero" opacity="1" stroke="none"/>
<path d="M41.5287 19.0338L48.7749 19.0338L48.7749 1.82638L41.5287 1.82638L41.5287 19.0338Z" fill="#0068a6" fill-rule="nonzero" opacity="1" stroke="none"/>
<path d="M51.4743 19.0335L57.7665 19.0335L57.7665 6.7832L57.8145 6.7832L63.9636 19.0335L74.2359 19.0335L74.2359 1.82607L67.9437 1.82607L67.9437 13.3604L67.8727 13.3604L62.0806 1.82607L51.4743 1.82607L51.4743 19.0335Z" fill="#0068a6" fill-rule="nonzero" opacity="1" stroke="none"/>
<path d="M77.0709 19.0335L93.6593 19.0335L93.6593 15.4114L84.078 15.4114L84.078 12.2413L92.9682 12.2413L92.9682 8.61824L84.078 8.61824L84.078 5.44816L93.5633 5.44816L93.5633 1.82607L77.0709 1.82607L77.0709 19.0335Z" fill="#0068a6" fill-rule="nonzero" opacity="1" stroke="none"/>
<path d="M103.198 5.30516L105.843 5.30516C107.608 5.30516 108.704 5.82918 108.704 7.35521C108.704 8.97625 107.512 9.45226 105.962 9.45226L103.198 9.45226L103.198 5.30516ZM95.9522 19.0335L103.198 19.0335L103.198 12.7893L105.39 12.7893C107.87 12.7893 108.18 13.0754 108.513 15.1964L109.109 19.0335L116.355 19.0335L115.425 13.2654C115.139 11.5263 113.757 10.9303 112.089 10.8823L112.089 10.6443C114.233 10.2633 115.806 8.83325 115.806 6.56819C115.806 2.7551 112.899 1.82608 108.204 1.82608L95.9522 1.82608L95.9522 19.0335Z" fill="#0068a6" fill-rule="evenodd" opacity="1" stroke="none"/>
</g>
</g>
</g>
</svg>
