<?xml version="1.0" encoding="UTF-8" standalone="no"?>
<!-- Created with Inkscape (http://www.inkscape.org/) -->

<svg
   xmlns:dc="http://purl.org/dc/elements/1.1/"
   xmlns:cc="http://creativecommons.org/ns#"
   xmlns:rdf="http://www.w3.org/1999/02/22-rdf-syntax-ns#"
   xmlns:svg="http://www.w3.org/2000/svg"
   xmlns="http://www.w3.org/2000/svg"
   xmlns:sodipodi="http://sodipodi.sourceforge.net/DTD/sodipodi-0.dtd"
   xmlns:inkscape="http://www.inkscape.org/namespaces/inkscape"
   id="svg2"
   version="1.1"
   inkscape:version="0.47 r22583"
   width="231.25"
   height="35"
   xml:space="preserve"
   sodipodi:docname="Ohne Titel.pdf"><metadata
     id="metadata8"><rdf:RDF><cc:Work
         rdf:about=""><dc:format>image/svg+xml</dc:format><dc:type
           rdf:resource="http://purl.org/dc/dcmitype/StillImage" /><dc:title></dc:title></cc:Work></rdf:RDF></metadata><defs
     id="defs6"><inkscape:perspective
       sodipodi:type="inkscape:persp3d"
       inkscape:vp_x="0 : 0.5 : 1"
       inkscape:vp_y="0 : 1000 : 0"
       inkscape:vp_z="1 : 0.5 : 1"
       inkscape:persp3d-origin="0.5 : 0.33333333 : 1"
       id="perspective10" /><clipPath
       clipPathUnits="userSpaceOnUse"
       id="clipPath20"><path
         d="m 0,0 184.041,0 0,27.085 L 0,27.085 0,0 z"
         id="path22" /></clipPath><clipPath
       clipPathUnits="userSpaceOnUse"
       id="clipPath30"><path
         d="m 147.986,11.13 c -0.557,-0.736 -1.404,-1.127 -2.444,-1.127 -1,0 -1.812,0.413 -2.347,1.19 -0.455,0.661 -0.703,1.582 -0.703,2.592 0,0.772 0.113,1.875 0.66,2.745 0.531,0.85 1.348,1.281 2.42,1.281 1.094,0 1.926,-0.428 2.476,-1.272 0.577,-0.882 0.698,-2 0.698,-2.784 0,-1.06 -0.262,-1.967 -0.76,-2.625 z m 0.67,-4.182 c 0,-1.899 -0.217,-3.753 -2.78,-3.753 -0.869,0 -1.478,0.109 -1.916,0.343 -0.429,0.214 -0.699,0.567 -0.849,1.106 -0.106,0 -4.852,0 -5.024,0 0.338,-1.777 1.225,-3.006 2.709,-3.754 1.205,-0.608 2.76,-0.89 4.899,-0.89 3.18,0 5.414,0.916 6.64,2.723 1.034,1.522 1.153,3.381 1.153,4.65 0,0 0,13.639 0,13.785 -0.141,0 -4.662,0 -4.803,0 0,-0.121 0,-1.975 0,-1.975 0,0 -1.123,2.431 -4.357,2.431 -2.092,0 -3.848,-0.78 -5.082,-2.26 -1.141,-1.368 -1.772,-3.281 -1.772,-5.386 0,-2.28 0.574,-4.196 1.66,-5.538 1.192,-1.48 2.942,-2.23 5.194,-2.23 1.666,0 3.382,0.851 4.302,2.277 l 0.026,0.034 0,-1.563"
         id="path32" /></clipPath><clipPath
       clipPathUnits="userSpaceOnUse"
       id="clipPath36"><path
         d="m 0,0 184.041,0 0,27.085 L 0,27.085 0,0 z"
         id="path38" /></clipPath><clipPath
       clipPathUnits="userSpaceOnUse"
       id="clipPath46"><path
         d="M 0,0 185,0 185,28 0,28 0,0 z"
         id="path48" /></clipPath></defs><sodipodi:namedview
     pagecolor="#ffffff"
     bordercolor="#666666"
     borderopacity="1"
     objecttolerance="10"
     gridtolerance="10"
     guidetolerance="10"
     inkscape:pageopacity="0"
     inkscape:pageshadow="2"
     inkscape:window-width="640"
     inkscape:window-height="484"
     id="namedview4"
     showgrid="false"
     inkscape:zoom="2.3308108"
     inkscape:cx="115.625"
     inkscape:cy="17.5"
     inkscape:window-x="0"
     inkscape:window-y="0"
     inkscape:window-maximized="0"
     inkscape:current-layer="g12" /><g
     id="g12"
     inkscape:groupmode="layer"
     inkscape:label="Ohne Titel"
     transform="matrix(1.25,0,0,-1.25,0,35)"><g
       id="g14" /><g
       id="g16"><g
         id="g18"
         clip-path="url(#clipPath20)"><path
           d="m 147.986,11.13 c -0.557,-0.736 -1.404,-1.127 -2.444,-1.127 -1,0 -1.812,0.413 -2.347,1.19 -0.455,0.661 -0.703,1.582 -0.703,2.592 0,0.772 0.113,1.875 0.66,2.745 0.531,0.85 1.348,1.281 2.42,1.281 1.094,0 1.926,-0.428 2.476,-1.272 0.577,-0.882 0.698,-2 0.698,-2.784 0,-1.06 -0.262,-1.967 -0.76,-2.625 z m 0.67,-4.182 c 0,-1.899 -0.217,-3.753 -2.78,-3.753 -0.869,0 -1.478,0.109 -1.916,0.343 -0.429,0.214 -0.699,0.567 -0.849,1.106 -0.106,0 -4.852,0 -5.024,0 0.338,-1.777 1.225,-3.006 2.709,-3.754 1.205,-0.608 2.76,-0.89 4.899,-0.89 3.18,0 5.414,0.916 6.64,2.723 1.034,1.522 1.153,3.381 1.153,4.65 0,0 0,13.639 0,13.785 -0.141,0 -4.662,0 -4.803,0 0,-0.121 0,-1.975 0,-1.975 0,0 -1.123,2.431 -4.357,2.431 -2.092,0 -3.848,-0.78 -5.082,-2.26 -1.141,-1.368 -1.772,-3.281 -1.772,-5.386 0,-2.28 0.574,-4.196 1.66,-5.538 1.192,-1.48 2.942,-2.23 5.194,-2.23 1.666,0 3.382,0.851 4.302,2.277 l 0.026,0.034 0,-1.563"
           style="fill:#ee293d;fill-opacity:1;fill-rule:nonzero;stroke:none"
           id="path24" /></g></g><g
       id="g26"><g
         id="g28"
         clip-path="url(#clipPath30)"><g
           id="g34"
           clip-path="url(#clipPath36)"><path
             d="m 145.572,17.811 c -1.072,0 -1.889,-0.431 -2.42,-1.281 -0.547,-0.87 -0.66,-1.973 -0.66,-2.745 0,-1.01 0.248,-1.931 0.703,-2.592 0.535,-0.777 1.347,-1.19 2.347,-1.19 1.04,0 1.887,0.391 2.444,1.127 0.498,0.658 0.76,1.565 0.76,2.625 0,0.784 -0.121,1.902 -0.698,2.784 -0.55,0.844 -1.382,1.272 -2.476,1.272"
             style="fill:#ee293d;fill-opacity:1;fill-rule:nonzero;stroke:none"
             id="path40" /></g></g></g><g
       id="g42"><g
         id="g44"
         clip-path="url(#clipPath46)"><path
           d="m 13.027,20.291 c 0,-1.711 -0.962,-2.654 -2.711,-2.654 l -4.837,0 0,5.093 4.594,0 c 0,0 2.954,0.141 2.954,-2.439 z m 2.076,-4.715 c 0,0 1.534,0.48 2.566,2.245 0.547,0.926 0.837,2.043 0.837,3.23 0,4.449 -3.886,6.034 -7.521,6.034 0,0 -10.839,0 -10.985,0 C 0,26.939 0,5.532 0,5.532 l 5.503,0 0,7.903 4.358,0 c 1.225,0 2.069,-0.472 2.579,-1.438 0.446,-0.848 0.577,-1.975 0.653,-3.067 l 0.031,-0.366 c 0.062,-0.786 0.189,-2.405 0.576,-3.032 0.082,0 5.109,0 5.396,0 -0.613,0.86 -0.746,3.263 -0.812,4.451 l -0.021,0.362 c -0.113,1.267 -0.373,2.323 -0.775,3.143 -0.975,1.938 -2.342,2.053 -2.385,2.088"
           style="fill:#ee293d;fill-opacity:1;fill-rule:nonzero;stroke:none"
           id="path50" /><path
           d="m 76.769,19.001 0.024,0.036 c 0.872,1.494 3.103,2.577 5.064,2.577 2.267,0 3.865,-0.727 4.748,-2.164 0.769,-1.252 0.859,-2.81 0.859,-3.87 0,0 0,-9.902 0,-10.048 -0.142,0 -5.017,0 -5.017,0 0,0 0,8.348 0,8.506 0,1.305 0.099,3.47 -2.657,3.47 -2.115,0 -2.869,-1.858 -2.869,-3.449 0,0 0,-8.381 0,-8.527 -0.14,0 -4.873,0 -5.015,0 0,0.146 0,15.481 0,15.626 0.142,0 4.722,0 4.863,0 0,-0.124 0,-2.157 0,-2.157"
           style="fill:#ee293d;fill-opacity:1;fill-rule:nonzero;stroke:none"
           id="path52" /><path
           d="m 98.195,8.879 c -1.141,0 -1.983,0.431 -2.506,1.278 -0.471,0.762 -0.697,1.859 -0.697,3.356 0,3.169 1.668,4.298 3.232,4.298 2.318,0 3.143,-2.22 3.143,-4.298 0,-2.241 -0.832,-4.634 -3.172,-4.634 z M 94.931,7.356 c 0,0 1.5,-2.281 4.479,-2.281 2.257,0 4.095,0.917 5.32,2.653 1.066,1.508 1.654,3.629 1.654,5.966 0,2.122 -0.582,4.072 -1.638,5.493 -1.182,1.587 -2.891,2.427 -4.94,2.427 -3.283,0 -4.633,-2.188 -4.633,-2.188 l 0,7.659 -5.015,0 0,-21.553 4.773,0 0,1.824"
           style="fill:#ee293d;fill-opacity:1;fill-rule:nonzero;stroke:none"
           id="path54" /><path
           d="m 136.802,21.354 c 0,-0.116 0,-4.371 0,-4.554 -1.392,0.372 -3.482,0.576 -4.855,-0.87 -0.649,-0.683 -1.008,-1.629 -1.008,-2.66 0,0 0,-7.592 0,-7.738 -0.143,0 -4.875,0 -5.016,0 0,0.146 0,15.481 0,15.626 0.141,0 4.723,0 4.864,0 0,-0.132 0,-2.766 0,-2.766 1.191,3.035 4.261,3.233 6.015,2.962"
           style="fill:#ee293d;fill-opacity:1;fill-rule:nonzero;stroke:none"
           id="path56" /><path
           d="m 184.041,21.354 c 0,-0.116 0,-4.371 0,-4.554 -1.395,0.372 -3.483,0.576 -4.856,-0.87 -0.65,-0.683 -1.01,-1.629 -1.01,-2.66 0,0 0,-7.592 0,-7.738 -0.14,0 -4.875,0 -5.015,0 0,0.146 0,15.481 0,15.626 0.14,0 4.722,0 4.865,0 0,-0.132 0,-2.766 0,-2.766 1.191,3.035 4.26,3.233 6.016,2.962"
           style="fill:#ee293d;fill-opacity:1;fill-rule:nonzero;stroke:none"
           id="path58" /><path
           d="m 58.654,14.896 0.014,0.086 c 0.321,2.027 1.63,3.285 3.414,3.285 1.695,0 3.046,-1.415 3.143,-3.293 l 0.005,-0.078 -6.576,0 z m 0.01,-2.737 11.578,0 c 0,0 0.295,4.562 -2.312,7.172 -1.462,1.46 -3.45,2.283 -5.848,2.283 -2.263,0 -4.375,-0.822 -5.945,-2.316 -1.603,-1.526 -2.486,-3.623 -2.486,-5.907 0,-2.54 0.817,-4.658 2.365,-6.124 1.513,-1.434 3.652,-2.192 6.189,-2.192 1.803,0 3.455,0.415 4.773,1.195 1.448,0.858 2.424,2.105 2.907,3.702 -0.192,0 -4.645,0 -4.727,0 -0.519,-0.956 -1.622,-1.548 -2.892,-1.548 -3.664,0 -3.602,3.735 -3.602,3.735"
           style="fill:#ee293d;fill-opacity:1;fill-rule:nonzero;stroke:none"
           id="path60" /><path
           d="m 112.669,14.896 0.012,0.086 c 0.322,2.027 1.631,3.285 3.416,3.285 1.695,0 3.045,-1.415 3.143,-3.293 l 0.004,-0.078 -6.575,0 z m 0.01,-2.737 11.58,0 c 0,0 0.293,4.562 -2.316,7.172 -1.461,1.46 -3.449,2.283 -5.846,2.283 -2.264,0 -4.375,-0.822 -5.945,-2.316 -1.604,-1.526 -2.486,-3.623 -2.486,-5.907 0,-2.54 0.818,-4.658 2.365,-6.124 1.511,-1.434 3.652,-2.192 6.187,-2.192 1.807,0 3.457,0.415 4.776,1.195 1.447,0.858 2.423,2.105 2.906,3.702 -0.192,0 -4.647,0 -4.729,0 -0.519,-0.956 -1.621,-1.548 -2.89,-1.548 -3.664,0 -3.602,3.735 -3.602,3.735"
           style="fill:#ee293d;fill-opacity:1;fill-rule:nonzero;stroke:none"
           id="path62" /><path
           d="m 159.843,14.896 0.012,0.086 c 0.324,2.027 1.631,3.285 3.416,3.285 1.695,0 3.045,-1.415 3.141,-3.293 l 0.005,-0.078 -6.574,0 z m 0.008,-2.737 11.58,0 c 0,0 0.295,4.562 -2.314,7.172 -1.461,1.46 -3.448,2.283 -5.846,2.283 -2.262,0 -4.375,-0.822 -5.945,-2.316 -1.604,-1.526 -2.489,-3.623 -2.489,-5.907 0,-2.54 0.821,-4.658 2.368,-6.124 1.511,-1.434 3.652,-2.192 6.189,-2.192 1.803,0 3.455,0.415 4.772,1.195 1.449,0.858 2.425,2.105 2.908,3.702 -0.192,0 -4.647,0 -4.729,0 -0.517,-0.956 -1.621,-1.548 -2.89,-1.548 -3.666,0 -3.604,3.735 -3.604,3.735"
           style="fill:#ee293d;fill-opacity:1;fill-rule:nonzero;stroke:none"
           id="path64" /><path
           d="m 47.234,16.88 c -0.165,1.635 -2.366,1.538 -2.366,1.538 -0.567,0 -2.292,0 -2.292,-1.258 0,-1.264 2.252,-1.674 4.431,-2.07 0.516,-0.095 1.003,-0.182 1.46,-0.283 l 0.001,0 c 3.84,-0.768 3.949,-3.835 3.949,-4.182 0,-1.903 -0.811,-3.362 -2.413,-4.334 -1.292,-0.783 -3.095,-1.216 -5.076,-1.216 -1.988,0 -3.699,0.364 -4.951,1.047 -1.512,0.828 -2.393,2.122 -2.624,3.85 0.163,0 4.697,0 4.802,0 0,0 0.36,-1.702 2.744,-1.702 1.206,0 2.503,0.548 2.503,1.747 0,1.171 -1.403,1.483 -2.332,1.688 0,0 -1.266,0.29 -1.773,0.397 -1.413,0.298 -2.873,0.604 -3.951,1.278 -1.219,0.76 -1.787,1.865 -1.787,3.475 0,1.68 0.808,2.95 2.398,3.776 1.649,0.855 3.67,0.983 4.729,0.983 1.969,0 3.567,-0.324 4.746,-0.968 1.448,-0.787 2.257,-2.059 2.41,-3.777 -0.155,0 -4.487,0 -4.611,0"
           style="fill:#ee293d;fill-opacity:1;fill-rule:nonzero;stroke:none"
           id="path66" /><path
           d="m 28.112,8.879 c -1.119,0 -1.969,0.496 -2.529,1.474 -0.434,0.76 -0.673,1.818 -0.673,2.978 0,1.162 0.239,2.224 0.673,2.992 0.56,0.988 1.411,1.488 2.529,1.488 2.385,0 3.234,-2.314 3.234,-4.48 0,-2.154 -0.849,-4.452 -3.234,-4.452 z m 5.944,10.356 c -1.506,1.535 -3.617,2.379 -5.944,2.379 -4.761,0 -8.218,-3.483 -8.218,-8.283 0,-4.784 3.457,-8.256 8.218,-8.256 4.781,0 8.25,3.472 8.25,8.256 0,2.292 -0.818,4.389 -2.306,5.904"
           style="fill:#ee293d;fill-opacity:1;fill-rule:nonzero;stroke:none"
           id="path68" /></g></g></g></svg>