<?xml version="1.0" encoding="UTF-8" standalone="no"?>
<svg
   xmlns:dc="http://purl.org/dc/elements/1.1/"
   xmlns:cc="http://creativecommons.org/ns#"
   xmlns:rdf="http://www.w3.org/1999/02/22-rdf-syntax-ns#"
   xmlns:svg="http://www.w3.org/2000/svg"
   xmlns="http://www.w3.org/2000/svg"
   viewBox="0 0 450.53333 98.333336"
   height="98.333336"
   width="450.53333"
   xml:space="preserve"
   id="svg2"
   version="1.1"><metadata
     id="metadata8"><rdf:RDF><cc:Work
         rdf:about=""><dc:format>image/svg+xml</dc:format><dc:type
           rdf:resource="http://purl.org/dc/dcmitype/StillImage" /></cc:Work></rdf:RDF></metadata><defs
     id="defs6" /><g
     transform="matrix(1.3333333,0,0,-1.3333333,0,98.333333)"
     id="g10"><g
       transform="scale(0.1)"
       id="g12"><path
         id="path14"
         style="fill:#ffffff;fill-opacity:1;fill-rule:nonzero;stroke:none"
         d="m 1291.2,530.711 -1.66,-255.137 c -3.24,-14.84 26.54,-30.449 3.88,-40.957 -33.02,-0.375 -63.71,-6.414 -90.89,-19.25 -6.85,1.059 -15.97,2.094 -16.06,10.067 2.09,15.964 13.36,27.484 18.88,42.347 l -0.68,259.668 c 2.14,12.555 -24.21,25.922 -2.67,35.278 l 94.53,-0.063 c 7.98,-1.051 8.1,-11.301 4.73,-15.891 l -10.06,-16.062" /><path
         id="path16"
         style="fill:none;stroke:#ffffff;stroke-width:10;stroke-linecap:butt;stroke-linejoin:miter;stroke-miterlimit:4;stroke-dasharray:none;stroke-opacity:1"
         d="m 1291.2,530.711 -1.66,-255.137 c -3.24,-14.84 26.54,-30.449 3.88,-40.957 -33.02,-0.375 -63.71,-6.414 -90.89,-19.25 -6.85,1.059 -15.97,2.094 -16.06,10.067 2.09,15.964 13.36,27.484 18.88,42.347 l -0.68,259.668 c 2.14,12.555 -24.21,25.922 -2.67,35.278 l 94.53,-0.063 c 7.98,-1.051 8.1,-11.301 4.73,-15.891 z" /><path
         id="path18"
         style="fill:#ffffff;fill-opacity:1;fill-rule:nonzero;stroke:none"
         d="m 2577.03,230.988 c -16.98,-9.304 -39.82,-3.871 -57.98,-9.769 -19.36,-0.223 -35.02,-24.313 -53.42,-9.723 -10.46,19.246 12.17,32.031 14.25,49.137 l -3.02,266.476 c -1.27,10.239 -16.16,18.039 -8.31,29.516 l 5.65,3.48 96.83,-2.312 c 14.95,-12.359 -7.71,-21.73 -6.44,-34.242 l 1.81,-258.516 c -2.13,-13.691 16.17,-20.316 10.63,-34.047" /><path
         id="path20"
         style="fill:none;stroke:#ffffff;stroke-width:10;stroke-linecap:butt;stroke-linejoin:miter;stroke-miterlimit:4;stroke-dasharray:none;stroke-opacity:1"
         d="m 2577.03,230.988 c -16.98,-9.304 -39.82,-3.871 -57.98,-9.769 -19.36,-0.223 -35.02,-24.313 -53.42,-9.723 -10.46,19.246 12.17,32.031 14.25,49.137 l -3.02,266.476 c -1.27,10.239 -16.16,18.039 -8.31,29.516 l 5.65,3.48 96.83,-2.312 c 14.95,-12.359 -7.71,-21.73 -6.44,-34.242 l 1.81,-258.516 c -2.13,-13.691 16.17,-20.316 10.63,-34.047 z" /><path
         id="path22"
         style="fill:#ffffff;fill-opacity:1;fill-rule:nonzero;stroke:none"
         d="m 175.781,466.781 c -18.246,2.067 -43.414,12.032 -48.203,32.481 0.988,13.679 4.258,26.242 14.414,34.332 11.285,9.242 34.039,11.777 39.922,-5.246 5.957,-22.711 -5.226,-41.059 -6.133,-61.567 z m 16.039,-7.793 c 16.977,9.305 42.145,-0.656 56.789,13.176 5.293,35.367 9.45,70.723 30.762,99.438 5.606,8.035 4.34,19.41 -1.449,27.312 -12.668,12.387 -29.633,1.941 -45.578,1.766 C 175.391,601.168 103.391,623.129 64.1602,568.016 45.082,542.738 37.4727,510.766 44.6797,477.82 51.9258,441.457 88.5898,422.512 117.266,404.617 82.0039,400.797 46.832,389.008 26.6797,358.027 8.77344,330.492 5.82031,289.453 18.6992,258.852 36.2852,214.633 84.4141,188.988 129.988,187.23 c 56.992,-3.914 111.285,28.594 136.903,80.137 16.625,40.047 20.574,93.625 -2.645,132.082 -15.141,29.442 -48.32,42.731 -72.426,59.539" /><path
         id="path24"
         style="fill:none;stroke:#ffffff;stroke-width:10;stroke-linecap:butt;stroke-linejoin:miter;stroke-miterlimit:4;stroke-dasharray:none;stroke-opacity:1"
         d="m 175.781,466.781 c -18.246,2.067 -43.414,12.032 -48.203,32.481 0.988,13.679 4.258,26.242 14.414,34.332 11.285,9.242 34.039,11.777 39.922,-5.246 5.957,-22.711 -5.226,-41.059 -6.133,-61.567 z m 16.039,-7.793 c 16.977,9.305 42.145,-0.656 56.789,13.176 5.293,35.367 9.45,70.723 30.762,99.438 5.606,8.035 4.34,19.41 -1.449,27.312 -12.668,12.387 -29.633,1.941 -45.578,1.766 C 175.391,601.168 103.391,623.129 64.1602,568.016 45.082,542.738 37.4727,510.766 44.6797,477.82 51.9258,441.457 88.5898,422.512 117.266,404.617 82.0039,400.797 46.832,389.008 26.6797,358.027 8.77344,330.492 5.82031,289.453 18.6992,258.852 36.2852,214.633 84.4141,188.988 129.988,187.23 c 56.992,-3.914 111.285,28.594 136.903,80.137 16.625,40.047 20.574,93.625 -2.645,132.082 -15.141,29.442 -48.32,42.731 -72.426,59.539 z" /><path
         id="path26"
         style="fill:#ffffff;fill-opacity:1;fill-rule:nonzero;stroke:none"
         d="m 1555.02,366.293 c -6.3,-46.773 -18.26,-97.02 -63.56,-120.313 8.92,17.188 15.49,41.176 9.56,61.614 -7.03,17.004 -18.6,32.812 -35.8,42.867 l 1.44,174.273 c 7.91,5.782 18.28,-5.488 26.29,-8.812 44.84,-37.074 65.95,-90.363 62.07,-149.629 z m 43.83,151.973 c -50.93,71.172 -135.32,81.601 -220.67,74.937 l -6.79,-3.496 c -5.55,-12.59 10.47,-19.242 9.46,-30.641 l -1,-212.988 -21.38,-23.019 c -17.9,-27.543 -18.61,-65.133 -5.75,-94.602 17.46,-33.965 53,-54.062 88.37,-59.355 70.7,-8.305 131.74,32.242 166.39,90.722 43.55,75.668 43.43,187.281 -8.63,258.442" /><path
         id="path28"
         style="fill:none;stroke:#ffffff;stroke-width:10;stroke-linecap:butt;stroke-linejoin:miter;stroke-miterlimit:4;stroke-dasharray:none;stroke-opacity:1"
         d="m 1555.02,366.293 c -6.3,-46.773 -18.26,-97.02 -63.56,-120.313 8.92,17.188 15.49,41.176 9.56,61.614 -7.03,17.004 -18.6,32.812 -35.8,42.867 l 1.44,174.273 c 7.91,5.782 18.28,-5.488 26.29,-8.812 44.84,-37.074 65.95,-90.363 62.07,-149.629 z m 43.83,151.973 c -50.93,71.172 -135.32,81.601 -220.67,74.937 l -6.79,-3.496 c -5.55,-12.59 10.47,-19.242 9.46,-30.641 l -1,-212.988 -21.38,-23.019 c -17.9,-27.543 -18.61,-65.133 -5.75,-94.602 17.46,-33.965 53,-54.062 88.37,-59.355 70.7,-8.305 131.74,32.242 166.39,90.722 43.55,75.668 43.43,187.281 -8.63,258.442 z" /><path
         id="path30"
         style="fill:#ffffff;fill-opacity:1;fill-rule:nonzero;stroke:none"
         d="m 1033.77,333.031 c -3.28,-12.566 -14.55,-22.945 -27.02,-27.64 -13.609,-4.711 -29.594,-1.481 -42.199,5.211 -14.918,10.082 -21.949,27.086 -18.738,45.347 10.769,54.789 61.617,89.531 88.407,137.672 l 3.5,-6.793 z m 88.89,195.77 c -0.15,12.519 22.54,20.75 8.73,33.125 l -241.452,0.672 c -12.52,-1.285 -23.829,-8.246 -30.532,-19.711 -4.426,-11.442 -6.519,-27.407 -1.832,-38.742 14.039,-32.872 51.446,-17.641 75.387,-19.649 -38.227,-43.711 -74.148,-89.676 -73.488,-147.754 1.582,-38.703 23.656,-77.179 60.304,-94.984 29.805,-16.742 76.465,-13.934 105.913,1.207 7.88,8.062 9.14,-3.313 12.61,-7.828 l 87.7,-0.145 c 16.98,9.305 -3.67,22.738 -4.94,34.113 l 1.6,259.696" /><path
         id="path32"
         style="fill:none;stroke:#ffffff;stroke-width:10;stroke-linecap:butt;stroke-linejoin:miter;stroke-miterlimit:4;stroke-dasharray:none;stroke-opacity:1"
         d="m 1033.77,333.031 c -3.28,-12.566 -14.55,-22.945 -27.02,-27.64 -13.609,-4.711 -29.594,-1.481 -42.199,5.211 -14.918,10.082 -21.949,27.086 -18.738,45.347 10.769,54.789 61.617,89.531 88.407,137.672 l 3.5,-6.793 z m 88.89,195.77 c -0.15,12.519 22.54,20.75 8.73,33.125 l -241.452,0.672 c -12.52,-1.285 -23.829,-8.246 -30.532,-19.711 -4.426,-11.442 -6.519,-27.407 -1.832,-38.742 14.039,-32.872 51.446,-17.641 75.387,-19.649 -38.227,-43.711 -74.148,-89.676 -73.488,-147.754 1.582,-38.703 23.656,-77.179 60.304,-94.984 29.805,-16.742 76.465,-13.934 105.913,1.207 7.88,8.062 9.14,-3.313 12.61,-7.828 l 87.7,-0.145 c 16.98,9.305 -3.67,22.738 -4.94,34.113 z" /><path
         id="path34"
         style="fill:#ffffff;fill-opacity:1;fill-rule:nonzero;stroke:none"
         d="m 2791.79,374.656 c -21.34,-26.437 -43.83,-52.89 -60.56,-82.687 l -3.53,9.066 2.78,157.203 c 4.38,14.86 17.93,25.262 32.71,27.703 19.31,4.778 34.21,-4.164 46.87,-15.41 22.01,-32.777 -2.65,-67.226 -18.27,-95.875 z m 131.39,-137.457 c -10.56,28.356 -40.45,51.934 -71.18,51.582 -13.71,2.125 -26.14,-5.988 -36.46,-0.414 54.06,54.149 111.34,125.406 79.64,208.192 -9.33,19.257 -26.64,38.418 -44.98,49.601 -33.3,24.672 -87.9,17.223 -121.88,0.891 l -4.66,9.058 -89.97,0.114 -5.63,-5.758 c -4.43,-10.297 7.01,-15.867 10.54,-24.938 l 3.08,-271.023 c -1.03,-10.266 -22.51,-23.039 -4.2,-31.941 l 59.23,-0.465 c 25.03,2.562 11.73,-29.485 19.85,-43.051 10.65,-35.18 47.44,-65.52 82.83,-73.094 38.83,-8.6717 79.72,0.914 104.46,28.527 24.76,26.469 33.4,67.575 19.33,102.719" /><path
         id="path36"
         style="fill:none;stroke:#ffffff;stroke-width:10;stroke-linecap:butt;stroke-linejoin:miter;stroke-miterlimit:4;stroke-dasharray:none;stroke-opacity:1"
         d="m 2791.79,374.656 c -21.34,-26.437 -43.83,-52.89 -60.56,-82.687 l -3.53,9.066 2.78,157.203 c 4.38,14.86 17.93,25.262 32.71,27.703 19.31,4.778 34.21,-4.164 46.87,-15.41 22.01,-32.777 -2.65,-67.226 -18.27,-95.875 z m 131.39,-137.457 c -10.56,28.356 -40.45,51.934 -71.18,51.582 -13.71,2.125 -26.14,-5.988 -36.46,-0.414 54.06,54.149 111.34,125.406 79.64,208.192 -9.33,19.257 -26.64,38.418 -44.98,49.601 -33.3,24.672 -87.9,17.223 -121.88,0.891 l -4.66,9.058 -89.97,0.114 -5.63,-5.758 c -4.43,-10.297 7.01,-15.867 10.54,-24.938 l 3.08,-271.023 c -1.03,-10.266 -22.51,-23.039 -4.2,-31.941 l 59.23,-0.465 c 25.03,2.562 11.73,-29.485 19.85,-43.051 10.65,-35.18 47.44,-65.52 82.83,-73.094 38.83,-8.6717 79.72,0.914 104.46,28.527 24.76,26.469 33.4,67.575 19.33,102.719 z" /><path
         id="path38"
         style="fill:#ffffff;fill-opacity:1;fill-rule:nonzero;stroke:none"
         d="m 3061.85,262.695 c -4.94,32.977 -0.78,68.325 -1.18,103.629 12.44,6.973 32.97,4.93 37.69,-9.82 -3.02,-35.344 -26.63,-61.805 -36.51,-93.809 z m 184.69,-17.261 c -19.68,28.25 -55.1,38.097 -88.06,32.027 12.23,26.336 29.05,50.445 27.55,82.312 -1.52,33.016 -26.88,58.922 -55.47,69.985 l -0.06,5.691 c 24.68,33.313 51.56,72.34 80.83,102.285 5.64,5.762 4.38,15.993 -3.61,18.184 l -89.99,0.117 -10.2,-4.676 c -3.07,-30.785 -27.81,-57.257 -48.05,-80.269 -3.64,19.324 -2.63,30.723 -0.57,50.109 -0.13,11.387 16.87,18.41 9.91,29.723 -31.98,7.609 -67.23,2.648 -101.41,3.402 l -5.65,-3.48 c -7.85,-11.481 9.32,-19.258 9.46,-30.641 l 2.97,-260.781 c 1.28,-12.516 -21.39,-23.024 -5.3,-35.367 29.68,-5.36 55.77,4.05 85.45,-2.45 1.39,-21.617 2.74,-40.968 10.92,-59.097 20.96,-40.762 65.63,-61.891 111.14,-57.965 31.86,1.5 55.52,24.555 72.34,47.531 14.49,27.492 17.46,67.387 -2.2,93.36" /><path
         id="path40"
         style="fill:none;stroke:#ffffff;stroke-width:10;stroke-linecap:butt;stroke-linejoin:miter;stroke-miterlimit:4;stroke-dasharray:none;stroke-opacity:1"
         d="m 3061.85,262.695 c -4.94,32.977 -0.78,68.325 -1.18,103.629 12.44,6.973 32.97,4.93 37.69,-9.82 -3.02,-35.344 -26.63,-61.805 -36.51,-93.809 z m 184.69,-17.261 c -19.68,28.25 -55.1,38.097 -88.06,32.027 12.23,26.336 29.05,50.445 27.55,82.312 -1.52,33.016 -26.88,58.922 -55.47,69.985 l -0.06,5.691 c 24.68,33.313 51.56,72.34 80.83,102.285 5.64,5.762 4.38,15.993 -3.61,18.184 l -89.99,0.117 -10.2,-4.676 c -3.07,-30.785 -27.81,-57.257 -48.05,-80.269 -3.64,19.324 -2.63,30.723 -0.57,50.109 -0.13,11.387 16.87,18.41 9.91,29.723 -31.98,7.609 -67.23,2.648 -101.41,3.402 l -5.65,-3.48 c -7.85,-11.481 9.32,-19.258 9.46,-30.641 l 2.97,-260.781 c 1.28,-12.516 -21.39,-23.024 -5.3,-35.367 29.68,-5.36 55.77,4.05 85.45,-2.45 1.39,-21.617 2.74,-40.968 10.92,-59.097 20.96,-40.762 65.63,-61.891 111.14,-57.965 31.86,1.5 55.52,24.555 72.34,47.531 14.49,27.492 17.46,67.387 -2.2,93.36 z" /><path
         id="path42"
         style="fill:#ffffff;fill-opacity:1;fill-rule:nonzero;stroke:none"
         d="m 598.258,272.27 -0.067,5.695 53.973,60.98 2.289,-1.113 c -14.449,-30.918 -9.418,-73.004 12.504,-97.809 -25.117,5.411 -46.922,19.969 -68.699,32.247 z m -61.379,89.281 c -31.965,6.472 -44.879,40.492 -48.606,67.785 -1.707,50.09 -5.8,109.266 38.25,141.656 19.27,8.196 47.75,7.375 62.766,-10.676 31.301,-48.617 27.637,-127.246 0.852,-175.386 -12.317,-18.36 -31.575,-27.692 -53.262,-23.379 z M 435.801,236.258 c -11.375,-1.266 -26.113,-7.133 -36.457,0.722 -6.883,4.481 -11.528,12.399 -8.199,20.411 21.453,16.187 52.265,10.843 74.027,-0.297 -0.992,-12.543 -19.199,-13.891 -29.371,-20.836 z m 360.832,117.996 c -26.445,22.476 -64.16,33.437 -98.18,20.523 -11.363,-2.406 -20.324,-15.035 -31.715,-15.168 36.918,58.504 46.223,141.754 11.332,205.133 -31.316,49.758 -84.058,81.051 -145.476,73.516 -53.457,-6.301 -103.098,-47.867 -123.039,-97.07 -27.77,-61.817 -14.313,-143.668 27.265,-194.442 l -2.234,-3.441 -36.457,0.722 c -37.563,-1.562 -70.356,-22.437 -85.91,-56.789 -14.496,-27.496 -9.477,-68.445 9.031,-93.277 26.57,-32.731 68.766,-37.949 109.695,-31.785 38.645,7.269 69.094,33.808 101.899,53.547 68.761,-37.934 152.344,-76.848 236.281,-46.285 32.855,15.179 54.105,49.589 60.559,82.687 8.671,38.824 -4.286,76.262 -33.051,102.129" /><path
         id="path44"
         style="fill:none;stroke:#ffffff;stroke-width:10;stroke-linecap:butt;stroke-linejoin:miter;stroke-miterlimit:4;stroke-dasharray:none;stroke-opacity:1"
         d="m 598.258,272.27 -0.067,5.695 53.973,60.98 2.289,-1.113 c -14.449,-30.918 -9.418,-73.004 12.504,-97.809 -25.117,5.411 -46.922,19.969 -68.699,32.247 z m -61.379,89.281 c -31.965,6.472 -44.879,40.492 -48.606,67.785 -1.707,50.09 -5.8,109.266 38.25,141.656 19.27,8.196 47.75,7.375 62.766,-10.676 31.301,-48.617 27.637,-127.246 0.852,-175.386 -12.317,-18.36 -31.575,-27.692 -53.262,-23.379 z M 435.801,236.258 c -11.375,-1.266 -26.113,-7.133 -36.457,0.722 -6.883,4.481 -11.528,12.399 -8.199,20.411 21.453,16.187 52.265,10.843 74.027,-0.297 -0.992,-12.543 -19.199,-13.891 -29.371,-20.836 z m 360.832,117.996 c -26.445,22.476 -64.16,33.437 -98.18,20.523 -11.363,-2.406 -20.324,-15.035 -31.715,-15.168 36.918,58.504 46.223,141.754 11.332,205.133 -31.316,49.758 -84.058,81.051 -145.476,73.516 -53.457,-6.301 -103.098,-47.867 -123.039,-97.07 -27.77,-61.817 -14.313,-143.668 27.265,-194.442 l -2.234,-3.441 -36.457,0.722 c -37.563,-1.562 -70.356,-22.437 -85.91,-56.789 -14.496,-27.496 -9.477,-68.445 9.031,-93.277 26.57,-32.731 68.766,-37.949 109.695,-31.785 38.645,7.269 69.094,33.808 101.899,53.547 68.761,-37.934 152.344,-76.848 236.281,-46.285 32.855,15.179 54.105,49.589 60.559,82.687 8.671,38.824 -4.286,76.262 -33.051,102.129 z" /><path
         id="path46"
         style="fill:#231f20;fill-opacity:1;fill-rule:nonzero;stroke:none"
         d="m 2014.16,251.926 c -26.19,-0.301 -49.06,7.41 -68.56,19.719 l 1.11,3.429 c 36.4,3.832 69.36,8.766 103.65,-1.101 46.7,-0.606 83.9,33.988 129.6,20.836 -48.65,-29.024 -108.92,-36.543 -165.8,-42.883 z m -8.32,130.875 c 21.46,16.195 47.52,27.879 76.05,22.504 l 3.48,-4.512 c -8.75,-31.988 -34.63,-59.617 -64.08,-74.762 -18.28,5.489 -37.74,14.379 -57.08,11.883 8.93,16.043 25.85,31.043 41.63,44.887 z m 214.03,107.219 c 11.45,-4.426 16.12,-14.625 21.92,-23.668 4.8,-21.586 3.91,-43.235 -6.14,-61.575 -10.12,-11.504 -24.84,-18.504 -41.94,-17.558 -27.37,3.105 -48.12,25.648 -69.93,40.207 13.13,47.98 85.33,7.801 96.09,62.594 z m 162.75,-189.489 c -2.01,-23.941 -17.69,-46.894 -38.03,-60.797 -13.59,-6.988 -29.52,-8.308 -45.5,-5.07 -25.19,12.238 -44.84,37.074 -53.08,60.895 15.79,13.847 21.26,33.269 29.04,50.441 11.82,61.641 86.36,15.793 115.53,55.988 2.24,3.442 5.56,12.59 -1.28,12.508 -13.44,-20.652 -39.72,-12.976 -59.1,-10.922 -58.19,9.59 -71.19,-49.781 -100.42,-83.14 -7.83,-12.618 -17.12,2.086 -25.1,3.129 27.59,-22.465 49.66,-59.801 78.39,-83.387 16.05,-8.934 36.61,-13.254 54.76,-6.211 16.99,7.027 35.07,19.762 42.84,38.07 3.56,-12.488 -7.69,-25.144 -16.69,-35.496 -93.64,-77.379 -121.74,89.727 -213.74,68.184 -47.72,-10.793 -103.19,-41.039 -152.49,-11.985 -35.41,9.852 -63.6,-15.531 -94.34,-15.879 21.41,19.606 38.25,41.438 63.16,54.25 30.72,2.625 58.24,-14.144 85.7,-25.222 53.63,-8.504 97.55,35.277 150.15,16.515 -1.21,6.817 -9.14,3.309 -13.73,5.536 -47.94,9.707 -82.85,-26 -127.36,-17.391 13.52,13.816 28.13,29.926 37.06,45.976 5.55,12.59 6.54,26.266 14.4,35.469 30.94,-16.73 61.95,-39.156 100.54,-27.332 18.16,4.762 37.38,17.512 45.16,35.82 13.38,25.211 9.52,63.891 -6.69,86.485 -13.89,19.203 -36.73,25.773 -59.54,27.801 -7.94,-2.371 -20.51,0.898 -23.84,-7.11 13.73,-5.539 29.67,-4.218 42.29,-12.051 -2.17,-10.269 -11.2,-17.207 -21.42,-19.597 -33.06,1.898 -70.55,-6.504 -91.84,-36.352 -40.01,12.071 -78.59,0.242 -112.56,-17.226 l -0.03,2.277 c 42.35,81.344 129.42,137 222.95,125.539 34.27,-9.863 64.11,-30.023 102.78,-25.027 13.71,-3.266 17.34,-22.582 32.11,-18.996 -0.14,11.386 -5.92,19.289 -13.98,27.175 -16.06,10.067 -35.4,8.707 -54.76,8.485 -44.72,26.824 -99.53,38.73 -156.38,30.113 -53.45,-6.301 -98.62,-40.984 -138.1,-74.461 7.7,24.008 25.67,46.988 44.8,66.57 25.78,36.735 73.74,24.75 112.43,28.61 44.27,13.027 61.83,71.316 106.13,82.07 12.48,3.559 26.33,-13.367 33.02,0.371 -5.76,5.633 -13.77,8.961 -22.89,9.992 -44.53,9.747 -73.67,-32.73 -97.28,-59.191 -37.25,-28.894 -87.86,14.945 -123.95,-17.348 -77.07,-32.773 -80.6,-122.785 -128.99,-174.586 -0.07,6.832 2.13,13.688 4.33,20.551 18.73,54.879 53.51,101.973 82.54,152.414 15.54,35.485 18.51,75.375 43.21,106.41 47.47,32.43 61.9,-34.605 92.85,-52.476 8,-2.184 24,-7.695 27.31,2.59 -6.91,6.758 -16,4.371 -22.9,9.988 -19.65,25.977 -40.58,64.461 -78.16,64.035 -56.8,-13.176 -61.77,-77.012 -85.23,-117.14 -29.11,-44.75 -68.53,-83.922 -88.48,-131.985 -5.55,-12.59 -7.66,-27.418 -17.81,-36.644 -25.31,22.488 -54.02,43.804 -78.24,69.718 -18.49,23.707 -13.13,53.379 -13.43,79.579 6.67,14.878 22.46,27.585 36.02,36.851 19.28,8.195 43.28,1.629 61.58,-6.137 2.28,0.032 6.82,1.219 5.64,4.621 -13.77,8.954 -28.69,19.036 -45.78,19.981 -30.85,8.766 -53.37,-14.274 -70.21,-36.106 -25.73,-40.152 -14.83,-96.972 12.91,-133.101 18.57,-30.539 55.25,-50.625 64.72,-83.543 0.17,-13.672 -0.82,-27.348 -12.12,-35.445 -42.11,-2.758 -75.98,-28.2 -100.65,-62.649 -17.09,0.945 -14.59,-19.527 -28.17,-26.515 -56.36,-51.891 -72.62,-123.829 -109.5,-185.7427 l -4.56,-0.0546 c -0.09,7.9723 8.93,16.0473 -0.24,21.6403 -22.86,6.563 -31.71,-16.3161 -44.08,-30.1169 -13.35,-27.4922 -30.15,-52.7383 -48.08,-77.9961 1.17,-3.40234 3.48,-5.66016 8.04,-6.75 47.69,13.0781 105.89,2.34766 141.89,42.6172 3.34,6.8711 -0.17,13.668 -5.91,18.1601 29.44,15.1368 61.25,22.3321 88.39,39.7267 52.09,26.793 68.57,79.363 104.55,119.637 -4.97,36.386 39.65,19.812 55.36,39.351 l 38.97,-21.191 c 101.69,-28.461 219.97,-14.586 307.1,36.515 24.15,-21.363 43.86,-51.894 75.82,-57.222 22.84,-5.442 45.53,1.656 63.59,16.668 18.04,16.148 26.88,39.027 26.61,62.941 -2.32,4.527 -4.59,3.367 -8.01,3.328" /><path
         id="path48"
         style="fill:#ee293d;fill-opacity:1;fill-rule:nonzero;stroke:none"
         d="m 1954.79,565.59 c -25.63,-49.266 -58.12,-97.469 -68.87,-153.399 -3.34,-6.867 -9.06,-4.656 -13.63,-3.57 -7.92,-4.644 -18.14,-7.043 -23.74,-15.074 22.16,53.781 34.04,110.863 69.95,157.965 43.94,41.496 65,94.129 88.35,143.371 -9.73,-45.672 -26.32,-89.141 -52.06,-129.293" /><path
         id="path50"
         style="fill:#ee293d;fill-opacity:1;fill-rule:nonzero;stroke:none"
         d="m 2251.87,681.719 c -52.45,5.101 -68.7,-67.973 -114.07,-84.438 -44.42,-0.5 -88.93,8.102 -118.14,-27.539 -29.31,-26.523 -41.36,-68.804 -62.61,-103.211 -23.56,-31.019 -56.31,-55.308 -77.61,-86.304 -13.6,-5.848 -24.86,-16.227 -32.71,-27.704 19.34,1.36 36.27,15.219 50.91,30.192 68.36,97.582 160.4,217.078 297.43,185.605 42.16,-1.797 68.88,-47.05 116.54,-32.843 10.27,-1.024 19.45,-7.75 22.98,-16.821 l 0.04,-4.554 c -14,29.449 -44.54,10.882 -67.4,18.593 -36.69,21.223 -83.46,27.528 -125.52,20.215 -1.18,4.539 -5.73,3.348 -8.03,5.602 -60.2,-14.348 -116.73,-50.297 -153.73,-101.969 -1,-12.539 -16.83,-22.973 -8.73,-33.133 1.11,1.153 3.4,1.18 3.38,2.32 -17.82,-35.511 -56.28,-58.726 -77.47,-97.691 23.81,9.383 38.23,42.574 59.67,59.902 l 13.55,11.543 4.6,-4.504 c 21.45,17.329 46.38,27.864 71.34,36.118 2.26,2.308 1.1,3.429 -0.06,5.691 -19.27,-8.187 -37.41,-15.23 -55.56,-22.269 28.15,28.793 80.5,32.808 119.43,13.886 35.45,-12.121 58.79,-61.968 105.26,-42.078 17.02,5.891 29.4,18.555 34.9,35.699 6.6,20.575 1.78,44.442 -10.95,61.379 -6.96,11.313 -18.43,18.012 -31,22.426 15.94,0.18 32.01,-11.023 41.23,-21.176 16.26,-27.144 16.74,-69.277 -2.33,-94.554 -13.49,-16.098 -32.75,-24.289 -55.54,-23.411 -58.12,2.758 -102.2,72.868 -165.58,37.981 -70.12,-42.934 -106.73,-128.77 -186.16,-154.727 -17.28,18.024 17.86,32.09 23.34,50.375 2.2,6.864 5.51,17.149 0.87,23.926 -10.3,4.438 -7.8,-14.891 -13.41,-21.793 -10.13,-11.504 -26,-17.375 -39.72,-12.976 -6.73,-10.329 -20.52,0.906 -30.76,0.789 -14.87,5.527 -33.29,22.398 -33.46,38.339 l 13.53,11.547 c 0.12,-10.25 7.06,-20.422 17.33,-21.441 12.54,-0.996 23.83,7.105 30.54,18.57 -4.62,5.641 -3.58,14.766 -5.93,20.43 96.65,13.633 135.32,118.852 170.94,192.141 23.49,37.851 60.76,63.332 102.87,67.23 30.8,-4.203 71.95,-17.406 92.07,16.992 22.49,24.172 46.03,57.465 83.73,47.645" /><path
         id="path52"
         style="fill:#ee293d;fill-opacity:1;fill-rule:nonzero;stroke:none"
         d="m 1851.41,643 c -16.04,7.793 -41.09,7.508 -56.9,-4.066 -21.43,-18.465 -38.29,-38.016 -36.82,-66.473 -5.08,-55.867 52.25,-89.383 89.12,-126.547 -7.79,-14.894 -28.45,-1.461 -39.89,2.969 -43.77,42.777 -77.47,102.754 -51.96,162.269 13.45,19.516 28.03,39.043 53.04,42.743 15.96,-0.957 31.91,-0.774 43.41,-10.895" /><path
         id="path54"
         style="fill:#ee293d;fill-opacity:1;fill-rule:nonzero;stroke:none"
         d="m 2039.77,503.914 c 0.02,-2.273 -3.38,-3.453 -4.51,-3.469 l 3.35,4.598 1.16,-1.129" /><path
         id="path56"
         style="fill:#ee293d;fill-opacity:1;fill-rule:nonzero;stroke:none"
         d="m 2029.63,494.688 2.23,3.445 0.01,-1.141 z" /><path
         id="path58"
         style="fill:#ee293d;fill-opacity:1;fill-rule:nonzero;stroke:none"
         d="m 2018.34,485.449 3.38,3.457 0.02,-2.281 z" /><path
         id="path60"
         style="fill:#ee293d;fill-opacity:1;fill-rule:nonzero;stroke:none"
         d="m 2011.6,477.402 3.34,6.871 -1.06,-6.843 z" /><path
         id="path62"
         style="fill:#ee293d;fill-opacity:1;fill-rule:nonzero;stroke:none"
         d="m 1977.97,430.324 2.17,9.137 24.71,31.027 c -6.68,-13.738 -17.94,-25.261 -26.88,-40.164" /><path
         id="path64"
         style="fill:#231f20;fill-opacity:1;fill-rule:nonzero;stroke:none"
         d="m 2056.5,434.633 c 3.43,-1.102 0.03,-2.278 0.04,-3.418 l -3.41,-0.039 c -1.17,2.269 2.23,3.441 3.37,3.457" /><path
         id="path66"
         style="fill:#231f20;fill-opacity:1;fill-rule:nonzero;stroke:none"
         d="m 2091.9,427.059 c -5.7,-0.059 -13.73,5.539 -22.82,3.16 l -0.04,3.418 c 9.1,1.242 15.96,-0.961 22.86,-6.578" /><path
         id="path68"
         style="fill:#231f20;fill-opacity:1;fill-rule:nonzero;stroke:none"
         d="m 2099.89,424.875 -2.29,1.113 2.28,0.028 z" /><path
         id="path70"
         style="fill:#231f20;fill-opacity:1;fill-rule:nonzero;stroke:none"
         d="m 2106.74,422.672 -3.42,1.101 2.28,0.028 z" /><path
         id="path72"
         style="fill:#ee293d;fill-opacity:1;fill-rule:nonzero;stroke:none"
         d="m 2383.72,403.043 c -23.58,-28.738 -76.31,1.414 -99.84,-31.887 -14.56,-22.941 -17.64,-52.586 -40.22,-69.926 -7.94,-2.367 -6.95,10.172 -12.68,13.52 33.8,32.273 43.25,102.996 106.1,84.352 14.83,-0.973 35.39,-7.575 46.64,3.941" /><path
         id="path74"
         style="fill:#231f20;fill-opacity:1;fill-rule:nonzero;stroke:none"
         d="m 1838.73,355.848 c -0.89,-21.649 -16.62,-41.188 -37.03,-49.395 -3.4,-1.172 -7.95,-1.23 -11.33,-4.683 13.71,-4.403 30.75,0.351 42.02,10.726 10.21,3.531 4.21,29.664 18.04,16.149 -5.43,-23.977 -31.57,-28.832 -49.72,-34.731 -10.28,2.164 -28.46,-1.465 -32.05,13.305 -4.57,1.086 -11.43,4.422 -11.5,10.117 11.46,-5.563 28.58,-9.926 43.34,-5.199 18.13,8.179 30.46,25.398 34.81,43.672 l 3.42,0.039" /><path
         id="path76"
         style="fill:#ee293d;fill-opacity:1;fill-rule:nonzero;stroke:none"
         d="m 1795.52,349.66 c 4.62,-5.64 -3.31,-9.148 -4.45,-9.156 4.54,1.187 -0.11,9.105 4.45,9.156" /><path
         id="path78"
         style="fill:#ee293d;fill-opacity:1;fill-rule:nonzero;stroke:none"
         d="m 2067.97,326.566 -11.26,-10.382 11.26,10.382" /><path
         id="path80"
         style="fill:#ee293d;fill-opacity:1;fill-rule:nonzero;stroke:none"
         d="m 1749.33,304.719 c -4.58,2.23 -11.43,3.293 -12.62,8.969 l 2.22,4.582 c 5.71,-1.075 8.08,-9.02 10.4,-13.551" /><path
         id="path82"
         style="fill:#ee293d;fill-opacity:1;fill-rule:nonzero;stroke:none"
         d="m 1810.07,272.383 c 11.5,-10.121 -1.97,-27.36 8.4,-38.625 -3.11,-27.363 -32.51,-44.793 -42.48,-69.961 -42.64,-56.285 -109.57,-79.8282 -167.34,-106.6759 -4.52,-3.4688 1.22,-7.9648 4.64,-7.9219 5.7,-1.0781 11.3,6.9649 17.08,1.3281 -1,-12.5351 -18.01,-19.5625 -29.33,-25.3828 -19.3,-5.9257 -40.88,-10.7187 -63.7,-7.5586 21.52,10.4961 46.48,18.75 63.34,38.3008 -0.03,3.4141 1.07,6.8399 -2.35,6.8047 l -5.67,-2.3437 4.45,9.1601 C 1578.95,64.75 1563.18,48.625 1545.04,41.582 l -43.01,-23.2656 c 20.2,26.4258 26.63,61.8047 55.95,87.1956 4.53,2.336 9.05,5.804 14.75,4.722 5.79,-7.906 -10.03,-19.4723 4.84,-24.9996 9.1,1.2461 14.68,11.5586 18.02,18.4296 32.27,66.43 55.37,138.434 115.15,189.227 5.55,13.73 23.85,5.964 32.99,3.793 21.75,-10.004 41.25,-22.313 66.34,-24.301" /><path
         id="path84"
         style="fill:#ee293d;fill-opacity:1;fill-rule:nonzero;stroke:none"
         d="m 2215.45,279.266 c -33.87,-27.715 -80.48,-35.082 -123.62,-46.961 -67.14,-4.18 -145.65,-11.899 -200.76,28.472 l 36.34,8.387 c 9.11,0.098 17.18,-8.922 27.44,-8.805 l 3.47,-4.515 53.65,-10.778 c 64.86,5.289 126.2,18.52 182.83,46.497 7.98,-1.047 18.29,-5.489 20.65,-12.297" /><path
         id="path86"
         style="fill:#231f20;fill-opacity:1;fill-rule:nonzero;stroke:none"
         d="m 829.684,252.125 c -6.454,-33.098 -27.704,-67.508 -60.559,-82.687 -83.937,-30.563 -167.52,8.351 -236.281,46.285 -32.805,-19.739 -63.254,-46.278 -101.899,-53.547 -40.929,-6.164 -83.125,-0.946 -109.695,31.785 -18.508,24.832 -23.527,65.781 -9.031,93.277 15.554,34.352 48.347,55.227 85.91,56.789 l 36.457,-0.722 2.234,3.441 c -41.578,50.774 -55.035,132.625 -27.265,194.442 19.941,49.203 69.582,90.769 123.039,97.07 61.418,7.535 114.16,-23.758 145.476,-73.516 34.891,-63.379 25.586,-146.629 -11.332,-205.133 11.391,0.133 20.352,12.762 31.715,15.168 34.02,12.914 71.735,1.953 98.18,-20.523 28.765,-25.867 41.722,-63.305 33.051,-102.129 z m -133.672,137.43 c 22.136,56.054 20.183,127.789 -8.891,180.984 -30.207,52.047 -85.203,81.035 -144.41,79.223 -61.449,-4.114 -116.824,-42.328 -141.219,-100.696 -28.945,-58.41 -20.097,-135.753 11.274,-190.062 -40.969,-2.75 -80.684,-15.727 -104.172,-53.578 -17.899,-28.68 -19.684,-71.973 -4.516,-103.692 16.332,-33.988 52.949,-49.515 87.152,-52.539 4.594,-3.371 9.051,5.793 10.266,-1.023 51.281,-2.836 90.774,29.504 131.5,53.883 69.918,-39.071 148.828,-67.774 231.731,-46.332 37.433,12.945 67.738,52.015 75.285,89.683 8.679,37.688 1.343,82.024 -28.578,109.016 -28.852,33.836 -73.356,41.305 -115.422,35.133" /><path
         id="path88"
         style="fill:#231f20;fill-opacity:1;fill-rule:nonzero;stroke:none"
         d="m 279.371,571.602 c -21.312,-28.715 -25.469,-64.071 -30.762,-99.438 -14.644,-13.832 -39.812,-3.871 -56.789,-13.176 24.106,-16.808 57.285,-30.097 72.426,-59.539 23.219,-38.457 19.27,-92.035 2.645,-132.082 -25.618,-51.543 -79.911,-84.051 -136.903,-80.137 -45.5739,1.758 -93.7028,27.403 -111.2888,71.622 -12.87889,30.601 -9.92576,71.64 7.9805,99.175 20.1523,30.981 55.3242,42.77 90.5863,46.59 -28.6762,17.895 -65.3402,36.84 -72.5863,73.203 -7.207,32.946 0.4023,64.918 19.4805,90.196 39.2308,55.113 111.2308,33.152 168.1838,32.664 15.945,0.175 32.91,10.621 45.578,-1.766 5.789,-7.902 7.055,-19.277 1.449,-27.312 z m -0.449,39.859 -58.082,-0.664 C 178.684,612.594 127.281,625.68 88.8203,602.461 60.5352,586.199 38.1367,552.91 33.9531,519.836 24.2109,475.305 47.4297,436.848 79.6055,411.02 77.3711,407.574 71.6992,405.234 67.1641,404.043 24.0664,387.605 0.644531,344.066 0.0117188,299.641 -0.621094,255.215 24.8477,219.059 61.5586,195.559 102.813,173.25 166.672,166 208.523,191.535 c 40.766,20.961 71.032,63.449 79.672,104.547 14.121,60.523 -7.05,119.508 -57.558,154.238 7.898,6.922 22.75,2.535 27.152,16.254 4.09,41.043 17.34,77.645 35.145,114.289 2.148,11.418 -3.676,22.739 -14.012,30.598" /><path
         id="path90"
         style="fill:#1f4fa2;fill-opacity:1;fill-rule:nonzero;stroke:none"
         d="m 550.715,346.902 c -20.477,-2.511 -36.524,6.414 -50.313,17.649 -41.531,46.222 -34.437,123.75 -16.828,177.476 11.086,26.325 32.469,49.348 63.203,50.836 20.496,0.235 39.922,-5.242 53.778,-22.172 39.371,-56.496 32.39,-144.269 -2.274,-200.472 C 584.77,356.398 570.07,347.117 550.715,346.902 Z M 452.984,227.34 c -22.711,-5.945 -53.339,-16.555 -72.957,6.008 -4.648,7.918 -7.093,22.695 -1.5,31.871 13.391,24.066 44.231,16.445 67.016,15.566 17.133,-4.359 33.164,-12.152 48.09,-22.23 -7.809,-14.895 -25.934,-23.075 -40.649,-31.215 z m 269.512,136.316 c -20.484,-1.367 -37.422,-14.09 -49.758,-31.312 -10.074,-14.918 -12.097,-37.723 -6.211,-54.739 9.332,-19.257 26.582,-33.867 47.106,-35.914 13.668,0.157 27.265,6.008 33.969,17.473 3.316,9.149 5.453,21.703 -0.348,30.746 -5.832,12.461 -18.43,18.016 -32.07,15.578 -5.664,-2.34 -12.434,-8.109 -18.137,-7.039 -0.117,10.25 5.48,18.285 13.406,22.934 11.281,9.238 26.113,7.129 38.692,2.719 12.589,-5.555 24.132,-19.09 27.691,-31.579 4.789,-20.445 0.469,-40.992 -10.754,-55.925 -63.164,-54.25 -137.816,0.711 -193.98,31.961 l -1.204,5.679 c 29.297,27.664 55.192,54.157 77.606,86.305 38.109,53.961 46.34,131.5 17.184,191.527 -11.633,21.508 -32.379,42.914 -55.293,55.18 -37.856,23.488 -98.145,17.109 -133.172,-7.207 -61.004,-43.973 -73.813,-119.289 -58.231,-187.441 10.711,-40.883 48.754,-81.45 91.024,-92.36 14.851,-4.387 33.062,-3.039 45.652,-8.59 -5.617,-6.902 -13.473,-17.238 -22.543,-20.757 -51.555,26.746 -121.359,55.566 -180.211,23.003 -16.937,-12.718 -29.258,-31.078 -31.305,-51.601 -5.332,-31.953 7.532,-61.418 35.047,-77.059 65.282,-32.273 125.121,13.957 174.824,49.832 63.063,-36.875 134.079,-72.507 215.918,-57.906 29.504,9.445 56.508,38.215 64.133,69.059 8.758,30.851 2.664,66.09 -19.246,89.757 -19.582,19.141 -42.469,29.129 -69.789,27.676" /><path
         id="path92"
         style="fill:#231f20;fill-opacity:1;fill-rule:nonzero;stroke:none"
         d="m 1607.48,259.824 c -34.65,-58.48 -95.69,-99.027 -166.39,-90.722 -35.37,5.293 -70.91,25.39 -88.37,59.355 -12.86,29.469 -12.15,67.059 5.75,94.602 l 21.38,23.019 1,212.988 c 1.01,11.399 -15.01,18.051 -9.46,30.641 l 6.79,3.496 c 85.35,6.664 169.74,-3.765 220.67,-74.937 52.06,-71.161 52.18,-182.774 8.63,-258.442 z m -226.01,344.809 c -6.81,-2.36 -17.06,-2.477 -20.37,-11.625 -7.81,-13.754 4.83,-23.86 8.37,-35.211 l -1.07,-206.156 c -10.1,-12.641 -23.63,-25.325 -28,-41.317 -13.29,-33.183 -7.11,-76.39 13.71,-104.633 23.12,-29.336 54.02,-42.66 88.24,-46.832 69.55,-7.171 130.67,26.547 167.59,85.051 50.34,79.156 53.51,202.199 -3.18,280.141 -52.09,73.433 -137.64,84.988 -225.29,80.582" /><path
         id="path94"
         style="fill:#1f4fa2;fill-opacity:1;fill-rule:nonzero;stroke:none"
         d="M 119.762,585.73 C 89.0938,578.547 67.7969,548.695 60.1602,518.996 40.8789,411.719 186.418,432.73 205.637,345.254 c 6.054,-31.82 -3.805,-66.098 -33.192,-85.797 -19.242,-10.469 -45.371,-16.457 -67.097,-8.734 -20.6019,8.875 -35.6371,29.207 -35.8832,50.843 -0.1953,17.082 5.3438,30.813 18.8946,41.215 10.1836,5.813 23.8046,9.387 36.3826,4.973 11.446,-4.43 20.656,-13.438 17.387,-25.996 -2.215,-5.723 -5.715,1.07 -9.125,1.031 -8.047,6.742 -21.727,7.727 -30.746,-0.348 -7.8986,-6.925 -11.1838,-18.351 -9.926,-28.589 3.5313,-10.207 12.734,-18.079 21.891,-22.528 17.14,-4.359 34.168,0.391 46.562,11.918 12.36,14.946 18.973,34.383 15.336,53.703 -3.598,15.907 -14.043,32.871 -30.062,39.524 -26.36,14.508 -66.1606,9.496 -88.7348,-8.981 -27.0859,-21.949 -34.6523,-57.343 -27.4179,-92.562 9.4687,-31.789 41.6953,-61.028 73.6567,-67.5 41.14,-12.067 84.296,-1.321 114.757,24.082 32.688,29.98 50.493,66.633 46.563,112.144 0.215,80.868 -89.903,93.508 -141.535,127.086 -8.086,10.16 -15.051,21.473 -14.051,34.012 0.93,18.234 11.012,33.152 25.683,44.707 13.614,4.711 30.571,16.293 45.489,6.211 27.527,-16.77 21.051,-48.734 17.949,-76.105 10.25,0.121 23.91,0.273 34.121,3.804 4.125,37.637 17.422,70.817 32.984,104.02 -47.699,-11.934 -98.023,6.855 -145.761,-1.657" /><path
         id="path96"
         style="fill:#231f20;fill-opacity:1;fill-rule:nonzero;stroke:none"
         d="m 582.074,392.813 c -8.949,-13.766 -22.551,-19.614 -38.496,-19.797 -13.687,2.125 -27.445,9.937 -33.293,23.539 -19.867,44.191 -17.187,109.14 7.403,150.422 6.742,8.046 15.773,14.98 25.996,17.378 13.652,1.297 26.214,-1.98 36.57,-10.972 30.129,-45.215 24.07,-113.621 1.82,-160.57 z m 7.215,167.503 c -15.016,18.051 -43.496,18.872 -62.766,10.676 -44.05,-32.39 -39.957,-91.566 -38.25,-141.656 3.727,-27.293 16.641,-61.313 48.606,-67.785 21.687,-4.313 40.945,5.019 53.262,23.379 26.785,48.14 30.449,126.769 -0.852,175.386" /><path
         id="path98"
         style="fill:#231f20;fill-opacity:1;fill-rule:nonzero;stroke:none"
         d="m 1126,234.992 -87.7,0.145 c -3.47,4.515 -4.73,15.89 -12.61,7.828 -29.448,-15.141 -76.108,-17.949 -105.913,-1.207 -36.648,17.805 -58.722,56.281 -60.304,94.984 -0.66,58.078 35.261,104.043 73.488,147.754 -23.941,2.008 -61.348,-13.223 -75.387,19.649 -4.687,11.335 -2.594,27.3 1.832,38.742 6.703,11.465 18.012,18.426 30.532,19.711 l 241.452,-0.672 c 13.81,-12.375 -8.88,-20.606 -8.73,-33.125 l -1.6,-259.696 c 1.27,-11.375 21.92,-24.808 4.94,-34.113 z m 20.24,323.684 c -1.21,5.679 -5.85,13.601 -13.84,14.648 l -244.861,-0.508 -14.762,-3.578 c -12.453,-6.98 -23.683,-20.777 -25.793,-35.605 -5.5,-17.145 -0.75,-34.172 10.782,-46.574 10.406,-13.543 28.66,-16.754 45.754,-17.7 -41.547,-51.726 -74.887,-124.992 -38.844,-189.504 23.269,-43.011 66.762,-61.875 113.437,-60.207 19.399,-3.203 36.287,14.075 53.497,2.883 l 97.92,2.25 11.3,8.106 c 6.68,13.738 -2.59,27.301 -8.43,39.761 l 0.56,251.707 c 2.13,12.555 18,19.571 13.28,34.321" /><path
         id="path100"
         style="fill:#1f4fa2;fill-opacity:1;fill-rule:nonzero;stroke:none"
         d="m 1395.47,575.176 c 6.48,-69.399 -0.65,-143.512 1.32,-216.379 l 3.46,-3.375 44.38,2.781 c 6.14,61.57 1.97,127.578 5.8,191.406 41.02,-1.812 80.13,-35.539 98.77,-71.769 34.91,-65.66 32.63,-165.914 -19.1,-223.445 -24.75,-27.618 -62.16,-42.852 -98.76,-29.594 -13.74,6.676 -29.82,19.019 -33.41,33.785 -5.87,15.875 0.78,31.898 13.18,43.43 4.52,2.332 11.32,5.824 14.79,1.304 l -8.97,-12.629 c -4.46,-9.164 -4.28,-23.964 3.79,-32.984 9.23,-10.148 22.92,-12.273 35.43,-10.988 11.36,2.41 21.5,12.773 27.07,23.09 4.41,12.578 1.94,29.632 -2.75,42.105 -8.14,14.715 -23.08,25.93 -37.91,28.043 -20.54,4.32 -42.13,-0.48 -57.93,-13.191 -23.68,-20.77 -29.03,-51.582 -19.57,-82.219 11.75,-31.758 43.91,-55.317 78.12,-58.34 58.19,-9.586 112.46,25.191 143.79,74.527 43.64,67.696 49.32,169.118 4.13,238.082 -41.8,70.137 -119.42,85.204 -195.63,76.36" /><path
         id="path102"
         style="fill:#231f20;fill-opacity:1;fill-rule:nonzero;stroke:none"
         d="m 1291.2,530.711 -1.66,-255.137 c -3.24,-14.84 26.54,-30.449 3.88,-40.957 -33.02,-0.375 -63.71,-6.414 -90.89,-19.25 -6.85,1.059 -15.97,2.094 -16.06,10.067 2.09,15.964 13.36,27.484 18.88,42.347 l -0.68,259.668 c 2.14,12.555 -24.21,25.922 -2.67,35.278 l 94.53,-0.063 c 7.98,-1.051 8.1,-11.301 4.73,-15.891 z m 23.63,25.324 c -1.23,7.957 -6.99,13.59 -13.87,16.93 l -99.09,1.148 -15.86,-8.152 c -10.09,-13.777 1.45,-27.32 8.42,-38.625 l -0.5,-256.266 c -4.33,-20.547 -34.84,-41.394 -11.83,-61.629 19.55,-16.871 39.81,3.86 58,7.497 22.66,10.496 55.86,-5.075 71.55,17.886 6.66,14.879 -7.14,26.114 -10.71,39.742 l 1.68,252.86 c 4.46,9.164 12.34,17.222 12.21,28.609" /><path
         id="path104"
         style="fill:#231f20;fill-opacity:1;fill-rule:nonzero;stroke:none"
         d="m 2577.03,230.988 c -16.98,-9.304 -39.82,-3.871 -57.98,-9.769 -19.36,-0.223 -35.02,-24.313 -53.42,-9.723 -10.46,19.246 12.17,32.031 14.25,49.137 l -3.02,266.476 c -1.27,10.239 -16.16,18.039 -8.31,29.516 l 5.65,3.48 96.83,-2.312 c 14.95,-12.359 -7.71,-21.73 -6.44,-34.242 l 1.81,-258.516 c -2.13,-13.691 16.17,-20.316 10.63,-34.047 z m -2.13,286.985 c 0.99,13.679 16.85,20.691 12.11,36.586 -2.36,7.945 -8.09,11.293 -14.96,14.632 l -94.57,2.344 c -5.67,-1.207 -12.49,-2.422 -16.99,-7.031 -10.11,-12.641 -0.84,-27.344 6.12,-38.652 2.14,-87.672 4.33,-179.903 1.89,-266.489 -5.48,-18.281 -30.3,-39.058 -9.57,-59.332 18.36,-12.32 37.56,2.715 54.58,7.461 23.8,10.524 52.41,-0.554 72.7,16.766 6.69,12.609 -0.3,26.191 -7.23,35.222 l -4.08,258.493" /><path
         id="path106"
         style="fill:#231f20;fill-opacity:1;fill-rule:nonzero;stroke:none"
         d="m 2903.85,134.48 c -24.74,-27.613 -65.63,-37.1987 -104.46,-28.527 -35.39,7.574 -72.18,37.914 -82.83,73.094 -8.12,13.566 5.18,45.613 -19.85,43.051 l -59.23,0.465 c -18.31,8.902 3.17,21.675 4.2,31.941 l -3.08,271.023 c -3.53,9.071 -14.97,14.641 -10.54,24.938 l 5.63,5.758 89.97,-0.114 4.66,-9.058 c 33.98,16.332 88.58,23.781 121.88,-0.891 18.34,-11.183 35.65,-30.344 44.98,-49.601 31.7,-82.786 -25.58,-154.043 -79.64,-208.192 10.32,-5.574 22.75,2.539 36.46,0.414 30.73,0.352 60.62,-23.226 71.18,-51.582 14.07,-35.144 5.43,-76.25 -19.33,-102.719 z m -55.44,167.93 c 43.8,55.164 86.31,122.844 56.99,196.539 -25.69,56.656 -89.84,88.957 -149.98,68.91 -18.17,-4.761 -43.31,2.922 -67.18,-0.761 -23.89,-3.696 -55.93,9.613 -70.5,-11.055 -7.77,-17.172 12.86,-28.328 10.77,-44.293 l 2.88,-253.949 c -4.43,-11.438 -15.74,-18.399 -11.03,-32.012 15.13,-28.305 55.92,-9.609 79.94,-18.449 l 8.42,-38.625 c 16.41,-41.961 58.88,-71.09 102.21,-76.2931 43.39,-8.6211 80.74,12.3081 108.86,42.2381 20.18,28.703 26.51,72.055 13.59,107.211 -11.79,35.176 -49.62,57.524 -84.97,60.539" /><path
         id="path108"
         style="fill:#231f20;fill-opacity:1;fill-rule:nonzero;stroke:none"
         d="m 166.492,482.617 c -7.961,-1.226 -15.98,3.235 -22.879,8.852 -9.187,6.73 -3.648,20.461 -0.312,27.332 6.719,10.328 30.554,17.433 29.621,-0.801 z m -24.5,50.977 c -10.156,-8.09 -13.426,-20.653 -14.414,-34.332 4.789,-20.449 29.957,-30.414 48.203,-32.481 0.907,20.508 12.09,38.856 6.133,61.567 -5.883,17.023 -28.637,14.488 -39.922,5.246" /><path
         id="path110"
         style="fill:#1f4fa2;fill-opacity:1;fill-rule:nonzero;stroke:none"
         d="m 1050.72,545.066 c 7.45,-53.445 2.41,-111.589 3.04,-167.39 -0.84,-26.203 4.07,-56.899 -18.5,-75.375 -13.52,-12.688 -30.56,-17.434 -51.065,-16.528 -19.371,0.918 -35.441,12.122 -48.152,27.926 -37.477,90.684 79.287,138.707 92.037,219.715 -2.36,6.809 -6.97,11.313 -13.83,13.512 l -119.582,-0.223 c -7.957,-1.226 -17.016,-5.887 -20.34,-13.894 -4.426,-11.446 -0.867,-23.93 8.336,-31.797 31.949,-5.332 62.566,6.406 92.172,6.742 l 2.305,-2.25 C 932.188,452.602 870.113,402.922 878.922,328.988 c 3.793,-32.976 23.516,-64.644 55.527,-75.675 40.039,-15.485 84.311,-2.458 115.921,21.824 l -0.88,-22.789 c 17.12,-3.219 37.6,-0.711 55.81,-0.508 l 2.26,2.308 c -7.81,85.329 -0.89,178.793 -1.88,265.344 l 5.4,26.254 c -19.4,3.199 -41.04,2.949 -60.36,-0.68" /><path
         id="path112"
         style="fill:#1f4fa2;fill-opacity:1;fill-rule:nonzero;stroke:none"
         d="m 1277.35,546.5 c -18.23,0.934 -42.16,1.801 -59.2,-1.812 7.8,-85.333 3.16,-177.633 4.19,-268.735 l -12.08,-38.863 c 21.57,5.937 44.28,11.89 68.15,15.582 1.08,5.707 -2.39,10.223 -3.58,14.766 -1.07,94.515 -4.46,191.285 2.52,279.062" /><path
         id="path114"
         style="fill:#231f20;fill-opacity:1;fill-rule:nonzero;stroke:none"
         d="m 3248.74,152.074 c -16.82,-22.976 -40.48,-46.031 -72.34,-47.531 -45.51,-3.926 -90.18,17.203 -111.14,57.965 -8.18,18.129 -9.53,37.48 -10.92,59.097 -29.68,6.5 -55.77,-2.91 -85.45,2.45 -16.09,12.343 6.58,22.851 5.3,35.367 l -2.97,260.781 c -0.14,11.383 -17.31,19.16 -9.46,30.641 l 5.65,3.48 c 34.18,-0.754 69.43,4.207 101.41,-3.402 6.96,-11.313 -10.04,-18.336 -9.91,-29.723 -2.06,-19.386 -3.07,-30.785 0.57,-50.109 20.24,23.012 44.98,49.484 48.05,80.269 l 10.2,4.676 89.99,-0.117 c 7.99,-2.191 9.25,-12.422 3.61,-18.184 -29.27,-29.945 -56.15,-68.972 -80.83,-102.285 l 0.06,-5.691 c 28.59,-11.063 53.95,-36.969 55.47,-69.985 1.5,-31.867 -15.32,-55.976 -27.55,-82.312 32.96,6.07 68.38,-3.777 88.06,-32.027 19.66,-25.973 16.69,-65.868 2.2,-93.36 z m 20.91,64.016 c -4.9,30.691 -31.45,62.273 -61.14,69.91 -9.19,6.734 -19.39,0.926 -28.56,7.652 8.85,21.739 17.7,44.621 15.12,71.922 -1.49,30.735 -26.8,53.223 -48.67,73.477 21.2,38.961 57.35,64.429 77.4,104.523 3.28,11.426 -4.79,19.309 -12.79,22.633 l -101.36,-0.019 -10.17,-6.942 c -4.35,-19.414 -12.1,-38.867 -29.05,-50.449 -5.86,14.742 12.27,22.922 9.81,38.836 -0.1,9.109 -7,15.863 -15.01,18.051 l -93.39,0.078 c -6.82,-1.211 -14.79,-1.309 -18.13,-8.172 -12.36,-14.949 4.88,-28.422 8.45,-42.047 l 0.64,-256.25 c -6.71,-11.469 -16.77,-27.527 -6.39,-39.934 27.55,-17.906 55.85,-2.789 86.7,-11.543 1.55,-36.433 19.01,-69.265 48.88,-91.699 36.73,-25.7772 90.35,-33.1404 129.92,-7.637 39.6,23.231 52.78,65.516 47.74,107.61" /><path
         id="path116"
         style="fill:#1f4fa2;fill-opacity:1;fill-rule:nonzero;stroke:none"
         d="m 2546.57,506.262 5.28,35.367 c -18.25,3.207 -38.73,0.699 -56.95,1.629 l -3.39,-3.453 c 9.02,-92.153 3.25,-185.61 5.49,-282.391 -1.01,-10.262 -10.02,-19.476 -9.91,-29.723 20.38,10.481 44.3,10.754 65.87,16.692 l -3.74,27.293 -2.65,234.586" /><path
         id="path118"
         style="fill:#1f4fa2;fill-opacity:1;fill-rule:nonzero;stroke:none"
         d="m 2856.73,271.754 c -21.66,3.172 -42.11,-1.617 -56.74,-17.727 -13.52,-12.683 -16.73,-30.953 -13.1,-49.125 5.81,-10.187 12.79,-23.777 25.36,-27.047 11.43,-3.292 27.38,-4.238 36.38,6.106 9.01,8.074 12.28,20.641 8.75,30.852 -1.23,7.96 -9.25,13.562 -10.48,20.386 10.24,1.254 20.59,-7.742 25.24,-15.66 8.14,-14.715 4.93,-34.109 -4.03,-46.742 -12.39,-11.524 -24.83,-19.641 -41.94,-17.563 -18.24,0.934 -35.38,6.426 -48.09,22.231 -49.81,74.605 44.1,128.066 78.76,185.402 28.03,39.039 41.06,93.86 16.65,138 -26.69,44.113 -82.6,52.59 -126.81,35.004 -12.48,-4.699 -22.59,-17.344 -35.08,-19.762 l -0.27,22.778 c -19.36,0.918 -41.02,1.808 -59.2,-1.813 0.03,-3.422 2.36,-6.808 3.55,-11.351 4.5,-95.618 3.34,-193.578 0.98,-286.996 19.39,-2.055 39.87,-0.688 59.21,1.812 -0.07,5.695 -3.54,10.211 -3.59,15.906 l -3.23,182.188 5.36,29.676 c 8.88,20.597 30.36,34.511 51.97,37.035 21.63,0.246 42.2,-5.215 57.21,-23.266 11.57,-14.676 15.18,-32.859 11.99,-52.254 -22.89,-91.375 -142.9,-153.105 -96.13,-259.633 16.28,-29.425 46.09,-48.445 79.16,-51.48 34.19,-1.891 68.23,9.875 83.81,41.949 13.35,27.481 14.06,65.078 -5.58,89.906 -11.52,12.403 -25.27,19.075 -40.11,21.188" /><path
         id="path120"
         style="fill:#231f20;fill-opacity:1;fill-rule:nonzero;stroke:none"
         d="m 1477.67,357.441 c -6.24,47.758 0.03,97.946 0.55,151.477 48.1,-23.371 60.09,-75.617 66.34,-124.523 0.39,-34.161 -7.18,-69.555 -27.38,-95.981 -1.46,28.453 -17.68,52.188 -39.51,69.027 z m 77.35,8.852 c 3.88,59.266 -17.23,112.555 -62.07,149.629 -8.01,3.324 -18.38,14.594 -26.29,8.812 l -1.44,-174.273 c 17.2,-10.055 28.77,-25.863 35.8,-42.867 5.93,-20.438 -0.64,-44.426 -9.56,-61.614 45.3,23.293 57.26,73.54 63.56,120.313" /><path
         id="path122"
         style="fill:#1f4fa2;fill-opacity:1;fill-rule:nonzero;stroke:none"
         d="m 3156.43,256.941 c -13.58,-6.992 -27.08,-21.949 -29.19,-36.781 -2.09,-15.969 2.66,-32.996 16.43,-41.949 11.45,-5.57 28.58,-8.785 38.69,2.715 6.76,5.769 11.22,14.933 8.82,25.156 -0.11,10.242 -12.69,14.656 -10.51,23.801 10.23,1.25 19.43,-5.481 24.07,-13.403 5.81,-10.175 5.97,-23.843 0.38,-34.164 -4.42,-11.433 -15.7,-21.808 -28.2,-24.222 -17.04,-3.617 -38.71,-0.457 -52.55,14.199 -45.07,58.711 26.07,111.91 41.4,165.617 5.48,18.285 0.71,37.59 -9.71,52.278 -13.89,20.339 -36.7,23.5 -56.13,28.968 24.59,41.285 56.04,79.227 85.2,119.418 l -55.83,1.649 -6.79,-4.633 c -18.88,-41.219 -49.2,-79.149 -77.25,-117.051 l -3.44,3.375 c -1.58,38.703 -2.04,78.563 3.23,115.07 -15.98,3.239 -35.31,0.739 -52.4,1.68 -13.65,-1.289 -0.92,-19.367 -3.08,-29.644 1.01,-88.829 3.23,-184.465 -1.51,-267.661 18.25,-2.074 43.33,-4.066 59.21,1.805 -8.44,40.906 -3.23,83.106 -6.02,128.633 l 9,9.215 c 12.45,6.972 34.04,10.636 47.81,1.683 10.34,-7.855 20.73,-19.129 19.75,-33.949 -8.72,-34.262 -31.14,-66.406 -40.98,-101.824 -9.86,-34.277 -5.95,-77.52 21.66,-102.254 25.3,-21.352 61.85,-30.051 94.76,-19.43 27.23,8.285 46.28,35.836 49.39,63.203 4.31,20.555 -2.73,39.832 -16.56,54.481 -17.31,19.168 -45.83,23.398 -69.65,14.019" /><path
         id="path124"
         style="fill:#231f20;fill-opacity:1;fill-rule:nonzero;stroke:none"
         d="m 1023.26,455.914 c 0.47,-40.992 10.12,-88.723 -5.35,-129.898 -10.14,-10.368 -26.039,-13.965 -40.898,-9.575 -10.297,4.438 -19.539,15.723 -20.797,25.957 1.762,45.575 41.246,79.055 67.045,113.516 z M 964.551,310.602 c 12.605,-6.692 28.59,-9.922 42.199,-5.211 12.47,4.695 23.74,15.074 27.02,27.64 l 3.95,153.797 -3.5,6.793 c -26.79,-48.141 -77.638,-82.883 -88.407,-137.672 -3.211,-18.261 3.82,-35.265 18.738,-45.347" /><path
         id="path126"
         style="fill:#231f20;fill-opacity:1;fill-rule:nonzero;stroke:none"
         d="m 2762.18,474.543 c 17.07,1.336 36.45,-0.723 42.35,-18.879 9.69,-50.004 -33.19,-85.797 -61.24,-122.559 l -3.45,3.375 -0.15,112.75 c 1,12.54 12.27,22.922 22.49,25.313 z m 29.61,-99.887 c 15.62,28.649 40.28,63.098 18.27,95.875 -12.66,11.246 -27.56,20.188 -46.87,15.41 -14.78,-2.441 -28.33,-12.843 -32.71,-27.703 l -2.78,-157.203 3.53,-9.066 c 16.73,29.797 39.22,56.25 60.56,82.687" /><path
         id="path128"
         style="fill:#231f20;fill-opacity:1;fill-rule:nonzero;stroke:none"
         d="m 3084.88,340.402 c -3.34,-6.871 -6.67,-13.742 -11.17,-19.488 -2.4,10.223 -6.02,29.547 2.99,37.621 9.11,0.098 12.65,-10.109 8.18,-18.133 z m -24.21,25.922 c 0.4,-35.304 -3.76,-70.652 1.18,-103.629 9.88,32.004 33.49,58.465 36.51,93.809 -4.72,14.75 -25.25,16.793 -37.69,9.82" /><path
         id="path130"
         style="fill:#231f20;fill-opacity:1;fill-rule:nonzero;stroke:none"
         d="m 635.898,267.004 c -6.843,1.062 -11.449,5.566 -17.199,10.055 2.215,5.722 6.692,12.605 13.5,14.964 2.364,-7.945 5.887,-17.023 3.699,-25.019 z m 16.266,71.941 -53.973,-60.98 0.067,-5.695 c 21.777,-12.278 43.582,-26.836 68.699,-32.247 -21.922,24.805 -26.953,66.891 -12.504,97.809 l -2.289,1.113" /><path
         id="path132"
         style="fill:#231f20;fill-opacity:1;fill-rule:nonzero;stroke:none"
         d="m 407.176,249.602 c 4.476,6.882 19.265,8.187 28.429,3.742 -6.781,-4.641 -19.246,-10.473 -28.429,-3.742 z m -16.031,7.789 c -3.329,-8.012 1.316,-15.93 8.199,-20.411 10.344,-7.855 25.082,-1.988 36.457,-0.722 10.172,6.945 28.379,8.293 29.371,20.836 -21.762,11.14 -52.574,16.484 -74.027,0.297" /><path
         id="path134"
         style="fill:#231f20;fill-opacity:1;fill-rule:nonzero;stroke:none"
         d="m 2841.93,171.359 c -1.16,1.125 -1.16,2.258 -1.17,3.403 l -1.14,-0.008 0.05,-4.563 1.14,0.012 1.12,1.156" /><path
         id="path136"
         style="fill:#ee293d;fill-opacity:1;fill-rule:nonzero;stroke:none"
         d="m 1568.91,45.2773 c 0.02,-1.1484 -3.37,-3.4609 -5.65,-3.4804 1.12,2.289 3.38,3.457 5.65,3.4804" /><path
         id="path138"
         style="fill:#100f0d;fill-opacity:1;fill-rule:nonzero;stroke:none"
         d="m 3321.56,171.059 v -44.84 h 7.82 v 17.449 h 6.28 c 4.21,0 7.17,-0.477 8.86,-1.426 2.84,-1.656 4.26,-5.023 4.26,-10.152 v -3.504 l 0.16,-1.422 c 0.04,-0.191 0.07,-0.355 0.12,-0.5 0.03,-0.144 0.07,-0.301 0.11,-0.445 h 7.44 l -0.26,0.566 c -0.16,0.367 -0.3,1.137 -0.35,2.313 -0.07,1.179 -0.1,2.281 -0.1,3.316 v 3.258 c 0,2.246 -0.84,4.547 -2.48,6.906 -1.65,2.36 -4.26,3.805 -7.82,4.371 2.8,0.434 4.99,1.168 6.56,2.18 2.97,1.902 4.45,4.859 4.45,8.894 0,5.676 -2.33,9.477 -7,11.422 -2.6,1.082 -6.7,1.614 -12.3,1.614 z m 27.22,-13.801 c 0,-3.403 -1.56,-5.703 -4.65,-6.906 -1.69,-0.668 -4.21,-0.989 -7.57,-0.989 h -7.18 v 16 h 6.79 c 4.4,0 7.61,-0.543 9.61,-1.633 1.99,-1.101 3,-3.257 3,-6.472 z m 30.24,-8.742 c 0,11.265 -3.98,20.875 -11.97,28.804 -7.97,7.93 -17.62,11.903 -28.95,11.903 -11.24,0 -20.84,-3.973 -28.78,-11.903 -7.98,-7.972 -11.97,-17.57 -11.97,-28.804 0,-11.344 3.95,-20.996 11.86,-28.961 7.94,-8.004 17.57,-12.02 28.89,-12.02 11.33,0 20.98,4.016 28.95,12.02 7.99,7.996 11.97,17.664 11.97,28.961 z m -40.86,35.011 c 9.73,0 18.04,-3.437 24.91,-10.297 6.84,-6.839 10.26,-15.093 10.26,-24.769 0,-9.754 -3.42,-18.063 -10.26,-24.922 -6.83,-6.863 -15.13,-10.312 -24.91,-10.312 -9.78,0 -18.08,3.449 -24.91,10.312 -6.8,6.859 -10.2,15.168 -10.2,24.922 0,9.676 3.41,17.93 10.25,24.769 6.88,6.86 15.16,10.297 24.86,10.297" /><path
         id="path140"
         style="fill:#ee293d;fill-opacity:1;fill-rule:nonzero;stroke:none"
         d="m 2204.68,323.563 c 27.59,-22.465 49.66,-59.801 78.39,-83.387 16.05,-8.934 36.61,-13.254 54.76,-6.211 16.99,7.027 35.07,19.762 42.84,38.07 3.56,-12.488 -7.69,-25.144 -16.69,-35.496 -93.64,-77.379 -121.74,89.727 -213.74,68.184 -47.72,-10.793 -103.19,-41.039 -152.49,-11.985 -35.41,9.852 -63.6,-15.531 -94.34,-15.879 21.41,19.606 38.25,41.438 63.16,54.25 30.72,2.625 58.24,-14.144 85.7,-25.222 53.63,-8.504 97.55,35.277 150.15,16.515 l 2.26,1.161" /></g></g></svg>